<mxfile host="Electron" agent="Mozilla/5.0 (Macintosh; Intel Mac OS X 10_15_7) AppleWebKit/537.36 (KHTML, like Gecko) draw.io/24.7.17 Chrome/128.0.6613.36 Electron/32.0.1 Safari/537.36" version="24.7.17">
  <diagram name="Page-1" id="tBIAlemMxgHySIvlNtww">
    <mxGraphModel dx="1140" dy="826" grid="1" gridSize="10" guides="1" tooltips="1" connect="1" arrows="1" fold="1" page="1" pageScale="1" pageWidth="1920" pageHeight="1200" math="0" shadow="0">
      <root>
        <mxCell id="0" />
        <mxCell id="1" parent="0" />
        <mxCell id="0Ns2KySrUpd4GxgdJG7j-181" value="" style="rounded=0;whiteSpace=wrap;pointerEvents=1;strokeColor=default;align=center;verticalAlign=middle;fontFamily=Helvetica;fontSize=12;fontColor=default;autosize=1;resizable=1;fillColor=none;gradientColor=none;dashed=1;dashPattern=1 1;html=1;perimeterSpacing=1;" parent="1" vertex="1">
          <mxGeometry x="1061" y="1035" width="90" height="50" as="geometry" />
        </mxCell>
        <mxCell id="0Ns2KySrUpd4GxgdJG7j-170" value="" style="rounded=0;whiteSpace=wrap;html=1;pointerEvents=1;strokeColor=default;align=center;verticalAlign=middle;fontFamily=Helvetica;fontSize=12;fontColor=default;autosize=1;resizable=1;fillColor=none;gradientColor=none;dashed=1;dashPattern=1 1;" parent="1" vertex="1">
          <mxGeometry x="1061" y="935" width="172" height="90" as="geometry" />
        </mxCell>
        <mxCell id="0Ns2KySrUpd4GxgdJG7j-2" style="edgeStyle=orthogonalEdgeStyle;rounded=0;orthogonalLoop=1;jettySize=auto;html=1;exitX=0.5;exitY=0;exitDx=0;exitDy=0;endSize=4;" parent="1" source="0Ns2KySrUpd4GxgdJG7j-1" edge="1">
          <mxGeometry relative="1" as="geometry">
            <mxPoint x="1101" y="1285" as="targetPoint" />
            <Array as="points">
              <mxPoint x="1581" y="1115" />
              <mxPoint x="1581" y="1345" />
              <mxPoint x="1081" y="1345" />
            </Array>
          </mxGeometry>
        </mxCell>
        <mxCell id="0Ns2KySrUpd4GxgdJG7j-1" value="" style="shape=trapezoid;perimeter=trapezoidPerimeter;whiteSpace=wrap;html=1;fixedSize=1;rotation=90;" parent="1" vertex="1">
          <mxGeometry x="1351" y="1085" width="320" height="60" as="geometry" />
        </mxCell>
        <mxCell id="0Ns2KySrUpd4GxgdJG7j-3" value="next_state" style="text;html=1;align=center;verticalAlign=middle;resizable=0;points=[];autosize=1;strokeColor=none;fillColor=none;fontFamily=Helvetica;fontSize=11;fontColor=#009900;labelBackgroundColor=default;" parent="1" vertex="1">
          <mxGeometry x="1536" y="1087" width="70" height="30" as="geometry" />
        </mxCell>
        <mxCell id="0Ns2KySrUpd4GxgdJG7j-4" value="" style="shape=trapezoid;perimeter=trapezoidPerimeter;whiteSpace=wrap;html=1;fixedSize=1;rotation=90;" parent="1" vertex="1">
          <mxGeometry x="1391" y="975" width="80" height="40" as="geometry" />
        </mxCell>
        <mxCell id="0Ns2KySrUpd4GxgdJG7j-5" value="" style="endArrow=classic;html=1;rounded=0;strokeColor=default;align=center;verticalAlign=middle;fontFamily=Helvetica;fontSize=11;fontColor=default;labelBackgroundColor=default;edgeStyle=orthogonalEdgeStyle;endSize=4;entryX=0.107;entryY=1;entryDx=0;entryDy=0;entryPerimeter=0;" parent="1" edge="1">
          <mxGeometry width="50" height="50" relative="1" as="geometry">
            <mxPoint x="1451" y="995.04" as="sourcePoint" />
            <mxPoint x="1481" y="995" as="targetPoint" />
            <Array as="points">
              <mxPoint x="1451" y="995.04" />
            </Array>
          </mxGeometry>
        </mxCell>
        <mxCell id="0Ns2KySrUpd4GxgdJG7j-7" value="" style="shape=trapezoid;perimeter=trapezoidPerimeter;whiteSpace=wrap;html=1;fixedSize=1;rotation=90;" parent="1" vertex="1">
          <mxGeometry x="1391" y="1075" width="80" height="40" as="geometry" />
        </mxCell>
        <mxCell id="0Ns2KySrUpd4GxgdJG7j-8" value="" style="endArrow=classic;html=1;rounded=0;strokeColor=default;align=center;verticalAlign=middle;fontFamily=Helvetica;fontSize=11;fontColor=default;labelBackgroundColor=default;edgeStyle=orthogonalEdgeStyle;endSize=4;entryX=0.107;entryY=1;entryDx=0;entryDy=0;entryPerimeter=0;" parent="1" edge="1">
          <mxGeometry width="50" height="50" relative="1" as="geometry">
            <mxPoint x="1451" y="1095.04" as="sourcePoint" />
            <mxPoint x="1481" y="1095" as="targetPoint" />
            <Array as="points">
              <mxPoint x="1451" y="1095.04" />
            </Array>
          </mxGeometry>
        </mxCell>
        <mxCell id="0Ns2KySrUpd4GxgdJG7j-9" value="" style="shape=trapezoid;perimeter=trapezoidPerimeter;whiteSpace=wrap;html=1;fixedSize=1;rotation=90;" parent="1" vertex="1">
          <mxGeometry x="1391" y="1175" width="80" height="40" as="geometry" />
        </mxCell>
        <mxCell id="0Ns2KySrUpd4GxgdJG7j-10" value="" style="endArrow=classic;html=1;rounded=0;strokeColor=default;align=center;verticalAlign=middle;fontFamily=Helvetica;fontSize=11;fontColor=default;labelBackgroundColor=default;edgeStyle=orthogonalEdgeStyle;endSize=4;entryX=0.107;entryY=1;entryDx=0;entryDy=0;entryPerimeter=0;" parent="1" edge="1">
          <mxGeometry width="50" height="50" relative="1" as="geometry">
            <mxPoint x="1451" y="1195.04" as="sourcePoint" />
            <mxPoint x="1481" y="1195" as="targetPoint" />
            <Array as="points">
              <mxPoint x="1451" y="1195.04" />
            </Array>
          </mxGeometry>
        </mxCell>
        <mxCell id="0Ns2KySrUpd4GxgdJG7j-11" value="" style="endArrow=classic;html=1;rounded=0;strokeColor=default;align=center;verticalAlign=middle;fontFamily=Helvetica;fontSize=11;fontColor=default;labelBackgroundColor=default;edgeStyle=orthogonalEdgeStyle;endSize=4;entryX=0.107;entryY=1;entryDx=0;entryDy=0;entryPerimeter=0;" parent="1" edge="1">
          <mxGeometry width="50" height="50" relative="1" as="geometry">
            <mxPoint x="1461" y="1255" as="sourcePoint" />
            <mxPoint x="1481" y="1255" as="targetPoint" />
            <Array as="points">
              <mxPoint x="1471" y="1255" />
              <mxPoint x="1471" y="1255" />
            </Array>
          </mxGeometry>
        </mxCell>
        <mxCell id="0Ns2KySrUpd4GxgdJG7j-12" value="&lt;font color=&quot;#ff8000&quot;&gt;WAIT&lt;/font&gt;" style="text;html=1;align=center;verticalAlign=middle;resizable=0;points=[];autosize=1;strokeColor=none;fillColor=none;fontFamily=Helvetica;fontSize=11;fontColor=default;labelBackgroundColor=default;" parent="1" vertex="1">
          <mxGeometry x="1420" y="1240" width="50" height="30" as="geometry" />
        </mxCell>
        <mxCell id="0Ns2KySrUpd4GxgdJG7j-13" value="0" style="text;html=1;align=center;verticalAlign=middle;resizable=0;points=[];autosize=1;strokeColor=none;fillColor=none;fontFamily=Helvetica;fontSize=11;fontColor=#999999;labelBackgroundColor=default;rounded=0;imageWidth=12;imageHeight=1;connectable=0;allowArrows=0;" parent="1" vertex="1">
          <mxGeometry x="1402" y="960" width="30" height="30" as="geometry" />
        </mxCell>
        <mxCell id="0Ns2KySrUpd4GxgdJG7j-15" value="1" style="text;html=1;align=center;verticalAlign=middle;resizable=0;points=[];autosize=1;strokeColor=none;fillColor=none;fontFamily=Helvetica;fontSize=11;fontColor=#999999;labelBackgroundColor=default;rounded=0;imageWidth=12;imageHeight=1;connectable=0;allowArrows=0;" parent="1" vertex="1">
          <mxGeometry x="1402" y="1000" width="30" height="30" as="geometry" />
        </mxCell>
        <mxCell id="0Ns2KySrUpd4GxgdJG7j-16" value="0" style="text;html=1;align=center;verticalAlign=middle;resizable=0;points=[];autosize=1;strokeColor=none;fillColor=none;fontFamily=Helvetica;fontSize=11;fontColor=#999999;labelBackgroundColor=default;rounded=0;imageWidth=12;imageHeight=1;connectable=0;allowArrows=0;" parent="1" vertex="1">
          <mxGeometry x="1402" y="1060" width="30" height="30" as="geometry" />
        </mxCell>
        <mxCell id="0Ns2KySrUpd4GxgdJG7j-17" value="1" style="text;html=1;align=center;verticalAlign=middle;resizable=0;points=[];autosize=1;strokeColor=none;fillColor=none;fontFamily=Helvetica;fontSize=11;fontColor=#999999;labelBackgroundColor=default;rounded=0;imageWidth=12;imageHeight=1;connectable=0;allowArrows=0;" parent="1" vertex="1">
          <mxGeometry x="1402" y="1100" width="30" height="30" as="geometry" />
        </mxCell>
        <mxCell id="0Ns2KySrUpd4GxgdJG7j-18" value="0" style="text;html=1;align=center;verticalAlign=middle;resizable=0;points=[];autosize=1;strokeColor=none;fillColor=none;fontFamily=Helvetica;fontSize=11;fontColor=#999999;labelBackgroundColor=default;rounded=0;imageWidth=12;imageHeight=1;connectable=0;allowArrows=0;" parent="1" vertex="1">
          <mxGeometry x="1402" y="1160" width="30" height="30" as="geometry" />
        </mxCell>
        <mxCell id="0Ns2KySrUpd4GxgdJG7j-19" value="1" style="text;html=1;align=center;verticalAlign=middle;resizable=0;points=[];autosize=1;strokeColor=none;fillColor=none;fontFamily=Helvetica;fontSize=11;fontColor=#999999;labelBackgroundColor=default;rounded=0;imageWidth=12;imageHeight=1;connectable=0;allowArrows=0;" parent="1" vertex="1">
          <mxGeometry x="1402" y="1200" width="30" height="30" as="geometry" />
        </mxCell>
        <mxCell id="0Ns2KySrUpd4GxgdJG7j-20" value="" style="endArrow=classic;html=1;rounded=0;strokeColor=default;align=center;verticalAlign=middle;fontFamily=Helvetica;fontSize=11;fontColor=default;labelBackgroundColor=default;edgeStyle=orthogonalEdgeStyle;endSize=4;" parent="1" edge="1">
          <mxGeometry width="50" height="50" relative="1" as="geometry">
            <mxPoint x="1391" y="945" as="sourcePoint" />
            <mxPoint x="1431" y="965" as="targetPoint" />
            <Array as="points">
              <mxPoint x="1431" y="945" />
            </Array>
          </mxGeometry>
        </mxCell>
        <mxCell id="0Ns2KySrUpd4GxgdJG7j-21" value="start" style="text;html=1;align=center;verticalAlign=middle;resizable=0;points=[];autosize=1;strokeColor=none;fillColor=none;fontFamily=Helvetica;fontSize=11;fontColor=default;labelBackgroundColor=default;" parent="1" vertex="1">
          <mxGeometry x="1355" y="930" width="40" height="30" as="geometry" />
        </mxCell>
        <mxCell id="0Ns2KySrUpd4GxgdJG7j-29" style="edgeStyle=orthogonalEdgeStyle;shape=connector;rounded=0;orthogonalLoop=1;jettySize=auto;html=1;exitX=1;exitY=0.5;exitDx=0;exitDy=0;strokeColor=default;align=center;verticalAlign=middle;fontFamily=Helvetica;fontSize=11;fontColor=default;labelBackgroundColor=default;endArrow=classic;endSize=4;" parent="1" source="0Ns2KySrUpd4GxgdJG7j-25" edge="1">
          <mxGeometry relative="1" as="geometry">
            <mxPoint x="1431" y="1165" as="targetPoint" />
            <Array as="points">
              <mxPoint x="1431" y="1145" />
            </Array>
          </mxGeometry>
        </mxCell>
        <mxCell id="0Ns2KySrUpd4GxgdJG7j-25" value="&lt;p style=&quot;line-height: 0%;&quot;&gt;&lt;b&gt;DFF&lt;/b&gt;&lt;/p&gt;&lt;p&gt;&lt;/p&gt;" style="rounded=1;whiteSpace=wrap;html=1;" parent="1" vertex="1">
          <mxGeometry x="1281" y="1135" width="60" height="60" as="geometry" />
        </mxCell>
        <mxCell id="0Ns2KySrUpd4GxgdJG7j-26" value="" style="triangle;whiteSpace=wrap;html=1;rotation=-90;" parent="1" vertex="1">
          <mxGeometry x="1307" y="1183.5" width="8" height="14.5" as="geometry" />
        </mxCell>
        <mxCell id="0Ns2KySrUpd4GxgdJG7j-27" value="D" style="text;html=1;align=center;verticalAlign=middle;resizable=0;points=[];autosize=1;strokeColor=none;fillColor=none;fontColor=#999999;connectable=0;allowArrows=0;fontSize=11;" parent="1" vertex="1">
          <mxGeometry x="1274" y="1131" width="30" height="30" as="geometry" />
        </mxCell>
        <mxCell id="0Ns2KySrUpd4GxgdJG7j-28" value="Q" style="text;html=1;align=center;verticalAlign=middle;resizable=0;points=[];autosize=1;strokeColor=none;fillColor=none;fontColor=#999999;connectable=0;allowArrows=0;fontSize=11;" parent="1" vertex="1">
          <mxGeometry x="1318" y="1131" width="30" height="30" as="geometry" />
        </mxCell>
        <mxCell id="0Ns2KySrUpd4GxgdJG7j-30" value="delay" style="text;html=1;align=center;verticalAlign=middle;resizable=0;points=[];autosize=1;strokeColor=none;fillColor=none;fontFamily=Helvetica;fontSize=11;fontColor=#009900;labelBackgroundColor=default;" parent="1" vertex="1">
          <mxGeometry x="1333" y="1122" width="50" height="30" as="geometry" />
        </mxCell>
        <mxCell id="0Ns2KySrUpd4GxgdJG7j-33" value="&lt;font color=&quot;#ff8000&quot;&gt;FINISH&lt;/font&gt;" style="text;html=1;align=center;verticalAlign=middle;resizable=0;points=[];autosize=1;strokeColor=none;fillColor=none;fontFamily=Helvetica;fontSize=11;fontColor=default;labelBackgroundColor=default;connectable=0;allowArrows=0;" parent="1" vertex="1">
          <mxGeometry x="1340" y="1160" width="60" height="30" as="geometry" />
        </mxCell>
        <mxCell id="0Ns2KySrUpd4GxgdJG7j-38" value="" style="endArrow=classic;html=1;rounded=0;strokeColor=default;align=center;verticalAlign=middle;fontFamily=Helvetica;fontSize=11;fontColor=default;labelBackgroundColor=default;edgeStyle=orthogonalEdgeStyle;endSize=4;entryX=0.107;entryY=1;entryDx=0;entryDy=0;entryPerimeter=0;" parent="1" edge="1">
          <mxGeometry width="50" height="50" relative="1" as="geometry">
            <mxPoint x="1391" y="1175" as="sourcePoint" />
            <mxPoint x="1411" y="1175" as="targetPoint" />
            <Array as="points">
              <mxPoint x="1401" y="1175" />
              <mxPoint x="1401" y="1175" />
            </Array>
          </mxGeometry>
        </mxCell>
        <mxCell id="0Ns2KySrUpd4GxgdJG7j-39" value="" style="endArrow=classic;html=1;rounded=0;strokeColor=default;align=center;verticalAlign=middle;fontFamily=Helvetica;fontSize=11;fontColor=default;labelBackgroundColor=default;edgeStyle=orthogonalEdgeStyle;endSize=4;entryX=0.107;entryY=1;entryDx=0;entryDy=0;entryPerimeter=0;" parent="1" edge="1">
          <mxGeometry width="50" height="50" relative="1" as="geometry">
            <mxPoint x="1391" y="1215" as="sourcePoint" />
            <mxPoint x="1411" y="1215" as="targetPoint" />
            <Array as="points">
              <mxPoint x="1401" y="1215" />
              <mxPoint x="1401" y="1215" />
            </Array>
          </mxGeometry>
        </mxCell>
        <mxCell id="0Ns2KySrUpd4GxgdJG7j-40" value="&lt;font color=&quot;#ff8000&quot;&gt;WAIT&lt;/font&gt;" style="text;html=1;align=center;verticalAlign=middle;resizable=0;points=[];autosize=1;strokeColor=none;fillColor=none;fontFamily=Helvetica;fontSize=11;fontColor=default;labelBackgroundColor=default;" parent="1" vertex="1">
          <mxGeometry x="1350" y="1200" width="50" height="30" as="geometry" />
        </mxCell>
        <mxCell id="0Ns2KySrUpd4GxgdJG7j-42" style="edgeStyle=orthogonalEdgeStyle;shape=connector;rounded=0;orthogonalLoop=1;jettySize=auto;html=1;exitX=0.5;exitY=0;exitDx=0;exitDy=0;strokeColor=default;align=center;verticalAlign=middle;fontFamily=Helvetica;fontSize=11;fontColor=default;labelBackgroundColor=default;endArrow=classic;endSize=4;" parent="1" source="0Ns2KySrUpd4GxgdJG7j-41" edge="1">
          <mxGeometry relative="1" as="geometry">
            <mxPoint x="1281" y="1145" as="targetPoint" />
          </mxGeometry>
        </mxCell>
        <mxCell id="0Ns2KySrUpd4GxgdJG7j-41" value="" style="shape=trapezoid;perimeter=trapezoidPerimeter;whiteSpace=wrap;html=1;fixedSize=1;rotation=90;" parent="1" vertex="1">
          <mxGeometry x="1181" y="1125" width="100" height="40" as="geometry" />
        </mxCell>
        <mxCell id="0Ns2KySrUpd4GxgdJG7j-43" value="" style="endArrow=classic;html=1;rounded=0;strokeColor=default;align=center;verticalAlign=middle;fontFamily=Helvetica;fontSize=11;fontColor=default;labelBackgroundColor=default;edgeStyle=orthogonalEdgeStyle;endSize=4;entryX=0.107;entryY=1;entryDx=0;entryDy=0;entryPerimeter=0;" parent="1" edge="1">
          <mxGeometry width="50" height="50" relative="1" as="geometry">
            <mxPoint x="1191" y="1115" as="sourcePoint" />
            <mxPoint x="1211" y="1115" as="targetPoint" />
            <Array as="points">
              <mxPoint x="1201" y="1114.83" />
              <mxPoint x="1201" y="1114.83" />
            </Array>
          </mxGeometry>
        </mxCell>
        <mxCell id="0Ns2KySrUpd4GxgdJG7j-44" value="" style="endArrow=classic;html=1;rounded=0;strokeColor=default;align=center;verticalAlign=middle;fontFamily=Helvetica;fontSize=11;fontColor=default;labelBackgroundColor=default;edgeStyle=orthogonalEdgeStyle;endSize=4;entryX=0.107;entryY=1;entryDx=0;entryDy=0;entryPerimeter=0;" parent="1" edge="1">
          <mxGeometry width="50" height="50" relative="1" as="geometry">
            <mxPoint x="1191" y="1135" as="sourcePoint" />
            <mxPoint x="1211" y="1135" as="targetPoint" />
            <Array as="points">
              <mxPoint x="1201" y="1134.83" />
              <mxPoint x="1201" y="1134.83" />
            </Array>
          </mxGeometry>
        </mxCell>
        <mxCell id="0Ns2KySrUpd4GxgdJG7j-45" value="" style="endArrow=classic;html=1;rounded=0;strokeColor=default;align=center;verticalAlign=middle;fontFamily=Helvetica;fontSize=11;fontColor=default;labelBackgroundColor=default;edgeStyle=orthogonalEdgeStyle;endSize=4;entryX=0.107;entryY=1;entryDx=0;entryDy=0;entryPerimeter=0;" parent="1" edge="1">
          <mxGeometry width="50" height="50" relative="1" as="geometry">
            <mxPoint x="1191" y="1175" as="sourcePoint" />
            <mxPoint x="1211" y="1175" as="targetPoint" />
            <Array as="points">
              <mxPoint x="1201" y="1174.85" />
              <mxPoint x="1201" y="1174.85" />
            </Array>
          </mxGeometry>
        </mxCell>
        <mxCell id="0Ns2KySrUpd4GxgdJG7j-46" value="" style="endArrow=classic;html=1;rounded=0;strokeColor=default;align=center;verticalAlign=middle;fontFamily=Helvetica;fontSize=11;fontColor=default;labelBackgroundColor=default;edgeStyle=orthogonalEdgeStyle;endSize=4;entryX=0.107;entryY=1;entryDx=0;entryDy=0;entryPerimeter=0;" parent="1" edge="1">
          <mxGeometry width="50" height="50" relative="1" as="geometry">
            <mxPoint x="1191" y="1155" as="sourcePoint" />
            <mxPoint x="1211" y="1155" as="targetPoint" />
            <Array as="points">
              <mxPoint x="1201" y="1154.78" />
              <mxPoint x="1201" y="1154.78" />
            </Array>
          </mxGeometry>
        </mxCell>
        <mxCell id="0Ns2KySrUpd4GxgdJG7j-47" value="1&#39;b0" style="text;html=1;align=center;verticalAlign=middle;resizable=0;points=[];autosize=1;strokeColor=none;fillColor=none;fontFamily=Helvetica;fontSize=11;fontColor=default;labelBackgroundColor=default;" parent="1" vertex="1">
          <mxGeometry x="1157" y="1099" width="40" height="30" as="geometry" />
        </mxCell>
        <mxCell id="0Ns2KySrUpd4GxgdJG7j-48" value="1&#39;b0" style="text;html=1;align=center;verticalAlign=middle;resizable=0;points=[];autosize=1;strokeColor=none;fillColor=none;fontFamily=Helvetica;fontSize=11;fontColor=default;labelBackgroundColor=default;" parent="1" vertex="1">
          <mxGeometry x="1157" y="1119" width="40" height="30" as="geometry" />
        </mxCell>
        <mxCell id="0Ns2KySrUpd4GxgdJG7j-49" value="1&#39;b1" style="text;html=1;align=center;verticalAlign=middle;resizable=0;points=[];autosize=1;strokeColor=none;fillColor=none;fontFamily=Helvetica;fontSize=11;fontColor=default;labelBackgroundColor=default;" parent="1" vertex="1">
          <mxGeometry x="1157" y="1139" width="40" height="30" as="geometry" />
        </mxCell>
        <mxCell id="0Ns2KySrUpd4GxgdJG7j-50" value="1&#39;b0" style="text;html=1;align=center;verticalAlign=middle;resizable=0;points=[];autosize=1;strokeColor=none;fillColor=none;fontFamily=Helvetica;fontSize=11;fontColor=default;labelBackgroundColor=default;" parent="1" vertex="1">
          <mxGeometry x="1157" y="1159" width="40" height="30" as="geometry" />
        </mxCell>
        <mxCell id="0Ns2KySrUpd4GxgdJG7j-51" value="0" style="text;html=1;align=center;verticalAlign=middle;resizable=0;points=[];autosize=1;strokeColor=none;fillColor=none;fontFamily=Helvetica;fontSize=11;fontColor=#999999;labelBackgroundColor=default;rounded=0;imageWidth=12;imageHeight=1;connectable=0;allowArrows=0;" parent="1" vertex="1">
          <mxGeometry x="1203" y="1100" width="30" height="30" as="geometry" />
        </mxCell>
        <mxCell id="0Ns2KySrUpd4GxgdJG7j-52" value="1" style="text;html=1;align=center;verticalAlign=middle;resizable=0;points=[];autosize=1;strokeColor=none;fillColor=none;fontFamily=Helvetica;fontSize=11;fontColor=#999999;labelBackgroundColor=default;rounded=0;imageWidth=12;imageHeight=1;connectable=0;allowArrows=0;" parent="1" vertex="1">
          <mxGeometry x="1203" y="1120" width="30" height="30" as="geometry" />
        </mxCell>
        <mxCell id="0Ns2KySrUpd4GxgdJG7j-53" value="2" style="text;html=1;align=center;verticalAlign=middle;resizable=0;points=[];autosize=1;strokeColor=none;fillColor=none;fontFamily=Helvetica;fontSize=11;fontColor=#999999;labelBackgroundColor=default;rounded=0;imageWidth=12;imageHeight=1;connectable=0;allowArrows=0;" parent="1" vertex="1">
          <mxGeometry x="1203" y="1140" width="30" height="30" as="geometry" />
        </mxCell>
        <mxCell id="0Ns2KySrUpd4GxgdJG7j-54" value="3" style="text;html=1;align=center;verticalAlign=middle;resizable=0;points=[];autosize=1;strokeColor=none;fillColor=none;fontFamily=Helvetica;fontSize=11;fontColor=#999999;labelBackgroundColor=default;rounded=0;imageWidth=12;imageHeight=1;connectable=0;allowArrows=0;" parent="1" vertex="1">
          <mxGeometry x="1203" y="1160" width="30" height="30" as="geometry" />
        </mxCell>
        <mxCell id="0Ns2KySrUpd4GxgdJG7j-55" value="" style="endArrow=classic;html=1;rounded=0;strokeColor=default;align=center;verticalAlign=middle;fontFamily=Helvetica;fontSize=11;fontColor=default;labelBackgroundColor=default;edgeStyle=orthogonalEdgeStyle;endSize=4;exitX=1;exitY=0.5;exitDx=0;exitDy=0;exitPerimeter=0;" parent="1" source="0Ns2KySrUpd4GxgdJG7j-56" edge="1">
          <mxGeometry width="50" height="50" relative="1" as="geometry">
            <mxPoint x="1361" y="1045" as="sourcePoint" />
            <mxPoint x="1431" y="1065" as="targetPoint" />
            <Array as="points">
              <mxPoint x="1431" y="1045" />
            </Array>
          </mxGeometry>
        </mxCell>
        <mxCell id="0Ns2KySrUpd4GxgdJG7j-56" value="" style="verticalLabelPosition=bottom;shadow=0;dashed=0;align=center;html=1;verticalAlign=top;shape=mxgraph.electrical.logic_gates.logic_gate;operation=or;fontFamily=Helvetica;fontSize=11;fontColor=default;labelBackgroundColor=default;" parent="1" vertex="1">
          <mxGeometry x="1321" y="1025" width="55" height="40" as="geometry" />
        </mxCell>
        <mxCell id="0Ns2KySrUpd4GxgdJG7j-57" value="&lt;p style=&quot;line-height: 0px;&quot;&gt;&lt;b&gt;==&lt;/b&gt;&lt;/p&gt;&lt;p style=&quot;line-height: 0px; font-size: 8px;&quot;&gt;16-bit&lt;/p&gt;&lt;p&gt;&lt;/p&gt;" style="rounded=1;whiteSpace=wrap;html=1;" parent="1" vertex="1">
          <mxGeometry x="1291" y="1045" width="30" height="30" as="geometry" />
        </mxCell>
        <mxCell id="0Ns2KySrUpd4GxgdJG7j-58" value="&lt;p style=&quot;line-height: 0%;&quot;&gt;&lt;b&gt;==&lt;/b&gt;&lt;/p&gt;&lt;p style=&quot;line-height: 0%; font-size: 8px;&quot;&gt;&lt;font style=&quot;font-size: 8px;&quot;&gt;16-&lt;/font&gt;&lt;font style=&quot;font-size: 8px;&quot;&gt;bit&lt;/font&gt;&lt;/p&gt;&lt;p&gt;&lt;/p&gt;" style="rounded=1;whiteSpace=wrap;html=1;" parent="1" vertex="1">
          <mxGeometry x="1291" y="1015" width="30" height="30" as="geometry" />
        </mxCell>
        <mxCell id="0Ns2KySrUpd4GxgdJG7j-60" value="" style="endArrow=classic;html=1;rounded=0;strokeColor=default;align=center;verticalAlign=middle;fontFamily=Helvetica;fontSize=11;fontColor=default;labelBackgroundColor=default;edgeStyle=orthogonalEdgeStyle;endSize=4;entryX=0;entryY=0.333;entryDx=0;entryDy=0;entryPerimeter=0;" parent="1" target="0Ns2KySrUpd4GxgdJG7j-58" edge="1">
          <mxGeometry width="50" height="50" relative="1" as="geometry">
            <mxPoint x="1271" y="1025" as="sourcePoint" />
            <mxPoint x="1271" y="1025" as="targetPoint" />
            <Array as="points">
              <mxPoint x="1281" y="1025" />
              <mxPoint x="1281" y="1025" />
            </Array>
          </mxGeometry>
        </mxCell>
        <mxCell id="0Ns2KySrUpd4GxgdJG7j-61" value="" style="endArrow=classic;html=1;rounded=0;strokeColor=default;align=center;verticalAlign=middle;fontFamily=Helvetica;fontSize=11;fontColor=default;labelBackgroundColor=default;edgeStyle=orthogonalEdgeStyle;endSize=4;entryX=0;entryY=0.333;entryDx=0;entryDy=0;entryPerimeter=0;" parent="1" edge="1">
          <mxGeometry width="50" height="50" relative="1" as="geometry">
            <mxPoint x="1271" y="1035" as="sourcePoint" />
            <mxPoint x="1291" y="1035" as="targetPoint" />
            <Array as="points">
              <mxPoint x="1281" y="1035" />
              <mxPoint x="1281" y="1035" />
            </Array>
          </mxGeometry>
        </mxCell>
        <mxCell id="0Ns2KySrUpd4GxgdJG7j-62" value="" style="endArrow=classic;html=1;rounded=0;strokeColor=default;align=center;verticalAlign=middle;fontFamily=Helvetica;fontSize=11;fontColor=default;labelBackgroundColor=default;edgeStyle=orthogonalEdgeStyle;endSize=4;entryX=0;entryY=0.333;entryDx=0;entryDy=0;entryPerimeter=0;" parent="1" edge="1">
          <mxGeometry width="50" height="50" relative="1" as="geometry">
            <mxPoint x="1271" y="1055" as="sourcePoint" />
            <mxPoint x="1291" y="1055" as="targetPoint" />
            <Array as="points">
              <mxPoint x="1281" y="1054.9" />
              <mxPoint x="1281" y="1054.9" />
            </Array>
          </mxGeometry>
        </mxCell>
        <mxCell id="0Ns2KySrUpd4GxgdJG7j-65" value="c" style="text;html=1;align=center;verticalAlign=middle;resizable=0;points=[];autosize=1;strokeColor=none;fillColor=none;fontFamily=Helvetica;fontSize=11;fontColor=#009900;labelBackgroundColor=default;" parent="1" vertex="1">
          <mxGeometry x="1249" y="1009" width="30" height="30" as="geometry" />
        </mxCell>
        <mxCell id="0Ns2KySrUpd4GxgdJG7j-66" value="16&#39;b0" style="text;html=1;align=center;verticalAlign=middle;resizable=0;points=[];autosize=1;strokeColor=none;fillColor=none;fontFamily=Helvetica;fontSize=11;fontColor=default;labelBackgroundColor=default;" parent="1" vertex="1">
          <mxGeometry x="1229" y="1020" width="50" height="30" as="geometry" />
        </mxCell>
        <mxCell id="0Ns2KySrUpd4GxgdJG7j-67" value="d" style="text;html=1;align=center;verticalAlign=middle;resizable=0;points=[];autosize=1;strokeColor=none;fillColor=none;fontFamily=Helvetica;fontSize=11;fontColor=#009900;labelBackgroundColor=default;" parent="1" vertex="1">
          <mxGeometry x="1249" y="1039" width="30" height="30" as="geometry" />
        </mxCell>
        <mxCell id="0Ns2KySrUpd4GxgdJG7j-68" value="16&#39;b0" style="text;html=1;align=center;verticalAlign=middle;resizable=0;points=[];autosize=1;strokeColor=none;fillColor=none;fontFamily=Helvetica;fontSize=11;fontColor=default;labelBackgroundColor=default;" parent="1" vertex="1">
          <mxGeometry x="1229" y="1050" width="50" height="30" as="geometry" />
        </mxCell>
        <mxCell id="0Ns2KySrUpd4GxgdJG7j-69" value="eitherEq0" style="text;html=1;align=center;verticalAlign=middle;resizable=0;points=[];autosize=1;strokeColor=none;fillColor=none;fontFamily=Helvetica;fontSize=11;fontColor=#009900;labelBackgroundColor=none;" parent="1" vertex="1">
          <mxGeometry x="1948" y="1770" width="70" height="30" as="geometry" />
        </mxCell>
        <mxCell id="0Ns2KySrUpd4GxgdJG7j-70" value="" style="endArrow=classic;html=1;rounded=0;strokeColor=default;align=center;verticalAlign=middle;fontFamily=Helvetica;fontSize=11;fontColor=default;labelBackgroundColor=default;edgeStyle=orthogonalEdgeStyle;endSize=4;entryX=0.107;entryY=1;entryDx=0;entryDy=0;entryPerimeter=0;" parent="1" edge="1">
          <mxGeometry width="50" height="50" relative="1" as="geometry">
            <mxPoint x="1391" y="975" as="sourcePoint" />
            <mxPoint x="1411" y="975" as="targetPoint" />
            <Array as="points">
              <mxPoint x="1401" y="975" />
              <mxPoint x="1401" y="975" />
            </Array>
          </mxGeometry>
        </mxCell>
        <mxCell id="0Ns2KySrUpd4GxgdJG7j-71" value="&lt;font color=&quot;#ff8000&quot;&gt;WAIT&lt;/font&gt;" style="text;html=1;align=center;verticalAlign=middle;resizable=0;points=[];autosize=1;strokeColor=none;fillColor=none;fontFamily=Helvetica;fontSize=11;fontColor=default;labelBackgroundColor=default;" parent="1" vertex="1">
          <mxGeometry x="1350" y="960" width="50" height="30" as="geometry" />
        </mxCell>
        <mxCell id="0Ns2KySrUpd4GxgdJG7j-72" value="" style="endArrow=classic;html=1;rounded=0;strokeColor=default;align=center;verticalAlign=middle;fontFamily=Helvetica;fontSize=11;fontColor=default;labelBackgroundColor=default;edgeStyle=orthogonalEdgeStyle;endSize=4;entryX=0.107;entryY=1;entryDx=0;entryDy=0;entryPerimeter=0;" parent="1" edge="1">
          <mxGeometry width="50" height="50" relative="1" as="geometry">
            <mxPoint x="1391" y="1015" as="sourcePoint" />
            <mxPoint x="1411" y="1015" as="targetPoint" />
            <Array as="points">
              <mxPoint x="1401" y="1015" />
              <mxPoint x="1401" y="1015" />
            </Array>
          </mxGeometry>
        </mxCell>
        <mxCell id="0Ns2KySrUpd4GxgdJG7j-73" value="&lt;font color=&quot;#ff8000&quot;&gt;CAL&lt;/font&gt;" style="text;html=1;align=center;verticalAlign=middle;resizable=0;points=[];autosize=1;strokeColor=none;fillColor=none;fontFamily=Helvetica;fontSize=11;fontColor=default;labelBackgroundColor=default;" parent="1" vertex="1">
          <mxGeometry x="1358" y="1000" width="40" height="30" as="geometry" />
        </mxCell>
        <mxCell id="0Ns2KySrUpd4GxgdJG7j-74" value="" style="endArrow=classic;html=1;rounded=0;strokeColor=default;align=center;verticalAlign=middle;fontFamily=Helvetica;fontSize=11;fontColor=default;labelBackgroundColor=default;edgeStyle=orthogonalEdgeStyle;endSize=4;entryX=0.107;entryY=1;entryDx=0;entryDy=0;entryPerimeter=0;" parent="1" edge="1">
          <mxGeometry width="50" height="50" relative="1" as="geometry">
            <mxPoint x="1391" y="1075" as="sourcePoint" />
            <mxPoint x="1411" y="1075" as="targetPoint" />
            <Array as="points">
              <mxPoint x="1401" y="1075" />
              <mxPoint x="1401" y="1075" />
            </Array>
          </mxGeometry>
        </mxCell>
        <mxCell id="0Ns2KySrUpd4GxgdJG7j-75" value="&lt;font color=&quot;#ff8000&quot;&gt;CAL&lt;/font&gt;" style="text;html=1;align=center;verticalAlign=middle;resizable=0;points=[];autosize=1;strokeColor=none;fillColor=none;fontFamily=Helvetica;fontSize=11;fontColor=default;labelBackgroundColor=default;" parent="1" vertex="1">
          <mxGeometry x="1358" y="1060" width="40" height="30" as="geometry" />
        </mxCell>
        <mxCell id="0Ns2KySrUpd4GxgdJG7j-76" value="&lt;font color=&quot;#ff8000&quot;&gt;FINISH&lt;/font&gt;" style="text;html=1;align=center;verticalAlign=middle;resizable=0;points=[];autosize=1;strokeColor=none;fillColor=none;fontFamily=Helvetica;fontSize=11;fontColor=default;labelBackgroundColor=default;connectable=0;allowArrows=0;" parent="1" vertex="1">
          <mxGeometry x="1340" y="1100" width="60" height="30" as="geometry" />
        </mxCell>
        <mxCell id="0Ns2KySrUpd4GxgdJG7j-77" value="" style="endArrow=classic;html=1;rounded=0;strokeColor=default;align=center;verticalAlign=middle;fontFamily=Helvetica;fontSize=11;fontColor=default;labelBackgroundColor=default;edgeStyle=orthogonalEdgeStyle;endSize=4;entryX=0.107;entryY=1;entryDx=0;entryDy=0;entryPerimeter=0;" parent="1" edge="1">
          <mxGeometry width="50" height="50" relative="1" as="geometry">
            <mxPoint x="1391" y="1115" as="sourcePoint" />
            <mxPoint x="1411" y="1115" as="targetPoint" />
            <Array as="points">
              <mxPoint x="1401" y="1115" />
              <mxPoint x="1401" y="1115" />
            </Array>
          </mxGeometry>
        </mxCell>
        <mxCell id="0Ns2KySrUpd4GxgdJG7j-84" style="edgeStyle=orthogonalEdgeStyle;shape=connector;rounded=0;orthogonalLoop=1;jettySize=auto;html=1;exitX=0.5;exitY=0;exitDx=0;exitDy=0;strokeColor=default;align=center;verticalAlign=middle;fontFamily=Helvetica;fontSize=11;fontColor=default;labelBackgroundColor=default;endArrow=classic;endSize=4;" parent="1" source="0Ns2KySrUpd4GxgdJG7j-78" edge="1">
          <mxGeometry relative="1" as="geometry">
            <mxPoint x="1151" y="1275.1379310344828" as="targetPoint" />
          </mxGeometry>
        </mxCell>
        <mxCell id="0Ns2KySrUpd4GxgdJG7j-78" value="" style="shape=trapezoid;perimeter=trapezoidPerimeter;whiteSpace=wrap;html=1;fixedSize=1;rotation=90;size=14.103448275862092;" parent="1" vertex="1">
          <mxGeometry x="1086" y="1260" width="60" height="30" as="geometry" />
        </mxCell>
        <mxCell id="0Ns2KySrUpd4GxgdJG7j-92" style="edgeStyle=orthogonalEdgeStyle;shape=connector;rounded=0;orthogonalLoop=1;jettySize=auto;html=1;strokeColor=default;align=center;verticalAlign=middle;fontFamily=Helvetica;fontSize=11;fontColor=default;labelBackgroundColor=default;endArrow=classic;endSize=4;" parent="1" edge="1">
          <mxGeometry relative="1" as="geometry">
            <mxPoint x="1781" y="1105" as="targetPoint" />
            <mxPoint x="1211" y="1275" as="sourcePoint" />
            <Array as="points">
              <mxPoint x="1231" y="1275" />
              <mxPoint x="1231" y="1295" />
              <mxPoint x="1781" y="1295" />
            </Array>
          </mxGeometry>
        </mxCell>
        <mxCell id="0Ns2KySrUpd4GxgdJG7j-80" value="&lt;p style=&quot;line-height: 0%;&quot;&gt;&lt;b&gt;DFF&lt;/b&gt;&lt;/p&gt;&lt;p style=&quot;line-height: 0%;&quot;&gt;&lt;font style=&quot;font-size: 9px;&quot;&gt;2-bit&lt;/font&gt;&lt;/p&gt;&lt;p&gt;&lt;/p&gt;" style="rounded=1;whiteSpace=wrap;html=1;" parent="1" vertex="1">
          <mxGeometry x="1151" y="1264" width="60" height="60" as="geometry" />
        </mxCell>
        <mxCell id="0Ns2KySrUpd4GxgdJG7j-81" value="" style="triangle;whiteSpace=wrap;html=1;rotation=-90;" parent="1" vertex="1">
          <mxGeometry x="1177" y="1312.5" width="8" height="14.5" as="geometry" />
        </mxCell>
        <mxCell id="0Ns2KySrUpd4GxgdJG7j-82" value="D" style="text;html=1;align=center;verticalAlign=middle;resizable=0;points=[];autosize=1;strokeColor=none;fillColor=none;fontColor=#999999;connectable=0;allowArrows=0;fontSize=11;" parent="1" vertex="1">
          <mxGeometry x="1144" y="1260" width="30" height="30" as="geometry" />
        </mxCell>
        <mxCell id="0Ns2KySrUpd4GxgdJG7j-83" value="Q" style="text;html=1;align=center;verticalAlign=middle;resizable=0;points=[];autosize=1;strokeColor=none;fillColor=none;fontColor=#999999;connectable=0;allowArrows=0;fontSize=11;" parent="1" vertex="1">
          <mxGeometry x="1188" y="1260" width="30" height="30" as="geometry" />
        </mxCell>
        <mxCell id="0Ns2KySrUpd4GxgdJG7j-86" value="" style="endArrow=classic;html=1;rounded=0;strokeColor=default;align=center;verticalAlign=middle;fontFamily=Helvetica;fontSize=11;fontColor=default;labelBackgroundColor=default;edgeStyle=orthogonalEdgeStyle;endSize=4;entryX=0;entryY=0.5;entryDx=0;entryDy=0;" parent="1" target="0Ns2KySrUpd4GxgdJG7j-78" edge="1">
          <mxGeometry width="50" height="50" relative="1" as="geometry">
            <mxPoint x="1116" y="1225" as="sourcePoint" />
            <mxPoint x="1121" y="1229.6599999999999" as="targetPoint" />
            <Array as="points">
              <mxPoint x="1116" y="1230" />
            </Array>
          </mxGeometry>
        </mxCell>
        <mxCell id="0Ns2KySrUpd4GxgdJG7j-87" value="rst_n" style="text;html=1;align=center;verticalAlign=middle;resizable=0;points=[];autosize=1;strokeColor=none;fillColor=none;fontFamily=Helvetica;fontSize=11;fontColor=default;labelBackgroundColor=default;" parent="1" vertex="1">
          <mxGeometry x="1089" y="1201" width="50" height="30" as="geometry" />
        </mxCell>
        <mxCell id="0Ns2KySrUpd4GxgdJG7j-88" value="0" style="text;html=1;align=center;verticalAlign=middle;resizable=0;points=[];autosize=1;strokeColor=none;fillColor=none;fontFamily=Helvetica;fontSize=11;fontColor=#999999;labelBackgroundColor=default;rounded=0;imageWidth=12;imageHeight=1;connectable=0;allowArrows=0;" parent="1" vertex="1">
          <mxGeometry x="1093" y="1250" width="30" height="30" as="geometry" />
        </mxCell>
        <mxCell id="0Ns2KySrUpd4GxgdJG7j-89" value="1" style="text;html=1;align=center;verticalAlign=middle;resizable=0;points=[];autosize=1;strokeColor=none;fillColor=none;fontFamily=Helvetica;fontSize=11;fontColor=#999999;labelBackgroundColor=default;rounded=0;imageWidth=12;imageHeight=1;connectable=0;allowArrows=0;" parent="1" vertex="1">
          <mxGeometry x="1093" y="1270" width="30" height="30" as="geometry" />
        </mxCell>
        <mxCell id="0Ns2KySrUpd4GxgdJG7j-90" value="" style="endArrow=classic;html=1;rounded=0;strokeColor=default;align=center;verticalAlign=middle;fontFamily=Helvetica;fontSize=11;fontColor=default;labelBackgroundColor=default;edgeStyle=orthogonalEdgeStyle;endSize=4;entryX=0.107;entryY=1;entryDx=0;entryDy=0;entryPerimeter=0;" parent="1" edge="1">
          <mxGeometry width="50" height="50" relative="1" as="geometry">
            <mxPoint x="1081" y="1265" as="sourcePoint" />
            <mxPoint x="1101" y="1265" as="targetPoint" />
            <Array as="points">
              <mxPoint x="1091" y="1265" />
              <mxPoint x="1091" y="1265" />
            </Array>
          </mxGeometry>
        </mxCell>
        <mxCell id="0Ns2KySrUpd4GxgdJG7j-91" value="&lt;font color=&quot;#ff8000&quot;&gt;WAIT&lt;/font&gt;" style="text;html=1;align=center;verticalAlign=middle;resizable=0;points=[];autosize=1;strokeColor=none;fillColor=none;fontFamily=Helvetica;fontSize=11;fontColor=default;labelBackgroundColor=default;" parent="1" vertex="1">
          <mxGeometry x="1040" y="1250" width="50" height="30" as="geometry" />
        </mxCell>
        <mxCell id="0Ns2KySrUpd4GxgdJG7j-93" value="state" style="text;html=1;align=center;verticalAlign=middle;resizable=0;points=[];autosize=1;strokeColor=none;fillColor=none;fontFamily=Helvetica;fontSize=11;fontColor=#009900;labelBackgroundColor=default;" parent="1" vertex="1">
          <mxGeometry x="1222" y="1259" width="50" height="30" as="geometry" />
        </mxCell>
        <mxCell id="0Ns2KySrUpd4GxgdJG7j-94" value="" style="endArrow=classic;html=1;rounded=0;strokeColor=default;align=center;verticalAlign=middle;fontFamily=Helvetica;fontSize=11;fontColor=default;labelBackgroundColor=default;edgeStyle=orthogonalEdgeStyle;endSize=4;endFill=1;" parent="1" edge="1">
          <mxGeometry width="50" height="50" relative="1" as="geometry">
            <mxPoint x="1231" y="1275" as="sourcePoint" />
            <mxPoint x="1231" y="1185" as="targetPoint" />
          </mxGeometry>
        </mxCell>
        <mxCell id="0Ns2KySrUpd4GxgdJG7j-95" value="" style="ellipse;whiteSpace=wrap;html=1;aspect=fixed;fontFamily=Helvetica;fontSize=11;fontColor=default;labelBackgroundColor=default;fillColor=#000000;strokeColor=none;" parent="1" vertex="1">
          <mxGeometry x="1229" y="1273" width="4" height="4" as="geometry" />
        </mxCell>
        <mxCell id="0Ns2KySrUpd4GxgdJG7j-96" value="" style="endArrow=classic;html=1;rounded=0;strokeColor=default;align=center;verticalAlign=middle;fontFamily=Helvetica;fontSize=11;fontColor=default;labelBackgroundColor=default;edgeStyle=orthogonalEdgeStyle;endSize=4;endFill=1;" parent="1" edge="1">
          <mxGeometry width="50" height="50" relative="1" as="geometry">
            <mxPoint x="1511" y="1295" as="sourcePoint" />
            <mxPoint x="1511" y="1265" as="targetPoint" />
          </mxGeometry>
        </mxCell>
        <mxCell id="0Ns2KySrUpd4GxgdJG7j-97" value="" style="ellipse;whiteSpace=wrap;html=1;aspect=fixed;fontFamily=Helvetica;fontSize=11;fontColor=default;labelBackgroundColor=default;fillColor=#000000;strokeColor=none;" parent="1" vertex="1">
          <mxGeometry x="1509" y="1293" width="4" height="4" as="geometry" />
        </mxCell>
        <mxCell id="0Ns2KySrUpd4GxgdJG7j-98" value="0" style="text;html=1;align=center;verticalAlign=middle;resizable=0;points=[];autosize=1;strokeColor=none;fillColor=none;fontFamily=Helvetica;fontSize=11;fontColor=#999999;labelBackgroundColor=default;rounded=0;imageWidth=12;imageHeight=1;connectable=0;allowArrows=0;" parent="1" vertex="1">
          <mxGeometry x="1473" y="980" width="30" height="30" as="geometry" />
        </mxCell>
        <mxCell id="0Ns2KySrUpd4GxgdJG7j-100" value="2" style="text;html=1;align=center;verticalAlign=middle;resizable=0;points=[];autosize=1;strokeColor=none;fillColor=none;fontFamily=Helvetica;fontSize=11;fontColor=#999999;labelBackgroundColor=default;rounded=0;imageWidth=12;imageHeight=1;connectable=0;allowArrows=0;" parent="1" vertex="1">
          <mxGeometry x="1473" y="1180" width="30" height="30" as="geometry" />
        </mxCell>
        <mxCell id="0Ns2KySrUpd4GxgdJG7j-101" value="3" style="text;html=1;align=center;verticalAlign=middle;resizable=0;points=[];autosize=1;strokeColor=none;fillColor=none;fontFamily=Helvetica;fontSize=11;fontColor=#999999;labelBackgroundColor=default;rounded=0;imageWidth=12;imageHeight=1;connectable=0;allowArrows=0;" parent="1" vertex="1">
          <mxGeometry x="1473" y="1240" width="30" height="30" as="geometry" />
        </mxCell>
        <mxCell id="0Ns2KySrUpd4GxgdJG7j-102" value="1" style="text;html=1;align=center;verticalAlign=middle;resizable=0;points=[];autosize=1;strokeColor=none;fillColor=none;fontFamily=Helvetica;fontSize=11;fontColor=#999999;labelBackgroundColor=default;rounded=0;imageWidth=12;imageHeight=1;connectable=0;allowArrows=0;" parent="1" vertex="1">
          <mxGeometry x="1473" y="1080" width="30" height="30" as="geometry" />
        </mxCell>
        <mxCell id="0Ns2KySrUpd4GxgdJG7j-103" style="edgeStyle=orthogonalEdgeStyle;shape=connector;rounded=0;orthogonalLoop=1;jettySize=auto;html=1;exitX=0.5;exitY=0;exitDx=0;exitDy=0;strokeColor=default;align=center;verticalAlign=middle;fontFamily=Helvetica;fontSize=11;fontColor=default;labelBackgroundColor=default;endArrow=classic;endSize=4;" parent="1" source="0Ns2KySrUpd4GxgdJG7j-104" edge="1">
          <mxGeometry relative="1" as="geometry">
            <mxPoint x="1841" y="1215" as="targetPoint" />
          </mxGeometry>
        </mxCell>
        <mxCell id="0Ns2KySrUpd4GxgdJG7j-104" value="" style="shape=trapezoid;perimeter=trapezoidPerimeter;whiteSpace=wrap;html=1;fixedSize=1;rotation=90;" parent="1" vertex="1">
          <mxGeometry x="1651" y="1195" width="100" height="40" as="geometry" />
        </mxCell>
        <mxCell id="0Ns2KySrUpd4GxgdJG7j-105" value="" style="endArrow=classic;html=1;rounded=0;strokeColor=default;align=center;verticalAlign=middle;fontFamily=Helvetica;fontSize=11;fontColor=default;labelBackgroundColor=default;edgeStyle=orthogonalEdgeStyle;endSize=4;entryX=0.107;entryY=1;entryDx=0;entryDy=0;entryPerimeter=0;" parent="1" edge="1">
          <mxGeometry width="50" height="50" relative="1" as="geometry">
            <mxPoint x="1661" y="1185" as="sourcePoint" />
            <mxPoint x="1681" y="1185" as="targetPoint" />
            <Array as="points">
              <mxPoint x="1671" y="1184.83" />
              <mxPoint x="1671" y="1184.83" />
            </Array>
          </mxGeometry>
        </mxCell>
        <mxCell id="0Ns2KySrUpd4GxgdJG7j-106" value="" style="endArrow=classic;html=1;rounded=0;strokeColor=default;align=center;verticalAlign=middle;fontFamily=Helvetica;fontSize=11;fontColor=default;labelBackgroundColor=default;edgeStyle=orthogonalEdgeStyle;endSize=4;entryX=0.107;entryY=1;entryDx=0;entryDy=0;entryPerimeter=0;" parent="1" edge="1">
          <mxGeometry width="50" height="50" relative="1" as="geometry">
            <mxPoint x="1661" y="1205" as="sourcePoint" />
            <mxPoint x="1681" y="1205" as="targetPoint" />
            <Array as="points">
              <mxPoint x="1671" y="1204.83" />
              <mxPoint x="1671" y="1204.83" />
            </Array>
          </mxGeometry>
        </mxCell>
        <mxCell id="0Ns2KySrUpd4GxgdJG7j-107" value="" style="endArrow=classic;html=1;rounded=0;strokeColor=default;align=center;verticalAlign=middle;fontFamily=Helvetica;fontSize=11;fontColor=default;labelBackgroundColor=default;edgeStyle=orthogonalEdgeStyle;endSize=4;entryX=0.107;entryY=1;entryDx=0;entryDy=0;entryPerimeter=0;" parent="1" edge="1">
          <mxGeometry width="50" height="50" relative="1" as="geometry">
            <mxPoint x="1661" y="1245" as="sourcePoint" />
            <mxPoint x="1681" y="1245" as="targetPoint" />
            <Array as="points">
              <mxPoint x="1671" y="1244.85" />
              <mxPoint x="1671" y="1244.85" />
            </Array>
          </mxGeometry>
        </mxCell>
        <mxCell id="0Ns2KySrUpd4GxgdJG7j-108" value="" style="endArrow=classic;html=1;rounded=0;strokeColor=default;align=center;verticalAlign=middle;fontFamily=Helvetica;fontSize=11;fontColor=default;labelBackgroundColor=default;edgeStyle=orthogonalEdgeStyle;endSize=4;entryX=0.107;entryY=1;entryDx=0;entryDy=0;entryPerimeter=0;" parent="1" edge="1">
          <mxGeometry width="50" height="50" relative="1" as="geometry">
            <mxPoint x="1661" y="1225" as="sourcePoint" />
            <mxPoint x="1681" y="1225" as="targetPoint" />
            <Array as="points">
              <mxPoint x="1671" y="1224.78" />
              <mxPoint x="1671" y="1224.78" />
            </Array>
          </mxGeometry>
        </mxCell>
        <mxCell id="0Ns2KySrUpd4GxgdJG7j-109" value="1&#39;b0" style="text;html=1;align=center;verticalAlign=middle;resizable=0;points=[];autosize=1;strokeColor=none;fillColor=none;fontFamily=Helvetica;fontSize=11;fontColor=default;labelBackgroundColor=default;" parent="1" vertex="1">
          <mxGeometry x="1627" y="1170" width="40" height="30" as="geometry" />
        </mxCell>
        <mxCell id="0Ns2KySrUpd4GxgdJG7j-110" value="1&#39;b0" style="text;html=1;align=center;verticalAlign=middle;resizable=0;points=[];autosize=1;strokeColor=none;fillColor=none;fontFamily=Helvetica;fontSize=11;fontColor=default;labelBackgroundColor=default;" parent="1" vertex="1">
          <mxGeometry x="1627" y="1190" width="40" height="30" as="geometry" />
        </mxCell>
        <mxCell id="0Ns2KySrUpd4GxgdJG7j-111" value="1&#39;b1" style="text;html=1;align=center;verticalAlign=middle;resizable=0;points=[];autosize=1;strokeColor=none;fillColor=none;fontFamily=Helvetica;fontSize=11;fontColor=default;labelBackgroundColor=default;" parent="1" vertex="1">
          <mxGeometry x="1627" y="1210" width="40" height="30" as="geometry" />
        </mxCell>
        <mxCell id="0Ns2KySrUpd4GxgdJG7j-112" value="1&#39;b0" style="text;html=1;align=center;verticalAlign=middle;resizable=0;points=[];autosize=1;strokeColor=none;fillColor=none;fontFamily=Helvetica;fontSize=11;fontColor=default;labelBackgroundColor=default;" parent="1" vertex="1">
          <mxGeometry x="1627" y="1230" width="40" height="30" as="geometry" />
        </mxCell>
        <mxCell id="0Ns2KySrUpd4GxgdJG7j-113" value="0" style="text;html=1;align=center;verticalAlign=middle;resizable=0;points=[];autosize=1;strokeColor=none;fillColor=none;fontFamily=Helvetica;fontSize=11;fontColor=#999999;labelBackgroundColor=default;rounded=0;imageWidth=12;imageHeight=1;connectable=0;allowArrows=0;" parent="1" vertex="1">
          <mxGeometry x="1673" y="1170" width="30" height="30" as="geometry" />
        </mxCell>
        <mxCell id="0Ns2KySrUpd4GxgdJG7j-114" value="1" style="text;html=1;align=center;verticalAlign=middle;resizable=0;points=[];autosize=1;strokeColor=none;fillColor=none;fontFamily=Helvetica;fontSize=11;fontColor=#999999;labelBackgroundColor=default;rounded=0;imageWidth=12;imageHeight=1;connectable=0;allowArrows=0;" parent="1" vertex="1">
          <mxGeometry x="1673" y="1190" width="30" height="30" as="geometry" />
        </mxCell>
        <mxCell id="0Ns2KySrUpd4GxgdJG7j-115" value="2" style="text;html=1;align=center;verticalAlign=middle;resizable=0;points=[];autosize=1;strokeColor=none;fillColor=none;fontFamily=Helvetica;fontSize=11;fontColor=#999999;labelBackgroundColor=default;rounded=0;imageWidth=12;imageHeight=1;connectable=0;allowArrows=0;" parent="1" vertex="1">
          <mxGeometry x="1673" y="1210" width="30" height="30" as="geometry" />
        </mxCell>
        <mxCell id="0Ns2KySrUpd4GxgdJG7j-116" value="3" style="text;html=1;align=center;verticalAlign=middle;resizable=0;points=[];autosize=1;strokeColor=none;fillColor=none;fontFamily=Helvetica;fontSize=11;fontColor=#999999;labelBackgroundColor=default;rounded=0;imageWidth=12;imageHeight=1;connectable=0;allowArrows=0;" parent="1" vertex="1">
          <mxGeometry x="1673" y="1230" width="30" height="30" as="geometry" />
        </mxCell>
        <mxCell id="0Ns2KySrUpd4GxgdJG7j-117" value="" style="endArrow=classic;html=1;rounded=0;strokeColor=default;align=center;verticalAlign=middle;fontFamily=Helvetica;fontSize=11;fontColor=default;labelBackgroundColor=default;edgeStyle=orthogonalEdgeStyle;endSize=4;endFill=1;" parent="1" edge="1">
          <mxGeometry width="50" height="50" relative="1" as="geometry">
            <mxPoint x="1701" y="1295" as="sourcePoint" />
            <mxPoint x="1701" y="1255" as="targetPoint" />
          </mxGeometry>
        </mxCell>
        <mxCell id="0Ns2KySrUpd4GxgdJG7j-118" value="" style="ellipse;whiteSpace=wrap;html=1;aspect=fixed;fontFamily=Helvetica;fontSize=11;fontColor=default;labelBackgroundColor=default;fillColor=#000000;strokeColor=none;" parent="1" vertex="1">
          <mxGeometry x="1699" y="1293" width="4" height="4" as="geometry" />
        </mxCell>
        <mxCell id="0Ns2KySrUpd4GxgdJG7j-119" value="done" style="text;html=1;align=center;verticalAlign=middle;resizable=0;points=[];autosize=1;strokeColor=none;fillColor=none;fontFamily=Helvetica;fontSize=11;fontColor=#007FFF;labelBackgroundColor=none;" parent="1" vertex="1">
          <mxGeometry x="1832" y="1199" width="50" height="30" as="geometry" />
        </mxCell>
        <mxCell id="0Ns2KySrUpd4GxgdJG7j-150" style="edgeStyle=orthogonalEdgeStyle;shape=connector;rounded=0;orthogonalLoop=1;jettySize=auto;html=1;exitX=0.5;exitY=0;exitDx=0;exitDy=0;strokeColor=default;align=center;verticalAlign=middle;fontFamily=Helvetica;fontSize=11;fontColor=default;labelBackgroundColor=none;autosize=1;resizable=0;endArrow=classic;endSize=4;" parent="1" source="0Ns2KySrUpd4GxgdJG7j-120" edge="1">
          <mxGeometry relative="1" as="geometry">
            <mxPoint x="1841" y="1065.0980392156862" as="targetPoint" />
          </mxGeometry>
        </mxCell>
        <mxCell id="0Ns2KySrUpd4GxgdJG7j-120" value="" style="shape=trapezoid;perimeter=trapezoidPerimeter;whiteSpace=wrap;html=1;fixedSize=1;rotation=90;" parent="1" vertex="1">
          <mxGeometry x="1731" y="1045" width="100" height="40" as="geometry" />
        </mxCell>
        <mxCell id="0Ns2KySrUpd4GxgdJG7j-121" value="" style="endArrow=classic;html=1;rounded=0;strokeColor=default;align=center;verticalAlign=middle;fontFamily=Helvetica;fontSize=11;fontColor=default;labelBackgroundColor=default;edgeStyle=orthogonalEdgeStyle;endSize=4;entryX=0.107;entryY=1;entryDx=0;entryDy=0;entryPerimeter=0;" parent="1" edge="1">
          <mxGeometry width="50" height="50" relative="1" as="geometry">
            <mxPoint x="1741" y="1035" as="sourcePoint" />
            <mxPoint x="1761" y="1035" as="targetPoint" />
            <Array as="points">
              <mxPoint x="1751" y="1034.83" />
              <mxPoint x="1751" y="1034.83" />
            </Array>
          </mxGeometry>
        </mxCell>
        <mxCell id="0Ns2KySrUpd4GxgdJG7j-122" value="" style="endArrow=classic;html=1;rounded=0;strokeColor=default;align=center;verticalAlign=middle;fontFamily=Helvetica;fontSize=11;fontColor=default;labelBackgroundColor=default;edgeStyle=orthogonalEdgeStyle;endSize=4;entryX=0.107;entryY=1;entryDx=0;entryDy=0;entryPerimeter=0;" parent="1" edge="1">
          <mxGeometry width="50" height="50" relative="1" as="geometry">
            <mxPoint x="1741" y="1055" as="sourcePoint" />
            <mxPoint x="1761" y="1055" as="targetPoint" />
            <Array as="points">
              <mxPoint x="1751" y="1054.83" />
              <mxPoint x="1751" y="1054.83" />
            </Array>
          </mxGeometry>
        </mxCell>
        <mxCell id="0Ns2KySrUpd4GxgdJG7j-123" value="" style="endArrow=classic;html=1;rounded=0;strokeColor=default;align=center;verticalAlign=middle;fontFamily=Helvetica;fontSize=11;fontColor=default;labelBackgroundColor=default;edgeStyle=orthogonalEdgeStyle;endSize=4;entryX=0.107;entryY=1;entryDx=0;entryDy=0;entryPerimeter=0;" parent="1" edge="1">
          <mxGeometry width="50" height="50" relative="1" as="geometry">
            <mxPoint x="1741" y="1095" as="sourcePoint" />
            <mxPoint x="1761" y="1095" as="targetPoint" />
            <Array as="points">
              <mxPoint x="1751" y="1094.85" />
              <mxPoint x="1751" y="1094.85" />
            </Array>
          </mxGeometry>
        </mxCell>
        <mxCell id="0Ns2KySrUpd4GxgdJG7j-124" value="" style="endArrow=classic;html=1;rounded=0;strokeColor=default;align=center;verticalAlign=middle;fontFamily=Helvetica;fontSize=11;fontColor=default;labelBackgroundColor=default;edgeStyle=orthogonalEdgeStyle;endSize=4;entryX=0.107;entryY=1;entryDx=0;entryDy=0;entryPerimeter=0;" parent="1" edge="1">
          <mxGeometry width="50" height="50" relative="1" as="geometry">
            <mxPoint x="1711" y="1075" as="sourcePoint" />
            <mxPoint x="1761" y="1075" as="targetPoint" />
            <Array as="points">
              <mxPoint x="1751" y="1074.78" />
              <mxPoint x="1751" y="1074.78" />
            </Array>
          </mxGeometry>
        </mxCell>
        <mxCell id="0Ns2KySrUpd4GxgdJG7j-125" value="16&#39;b0" style="text;html=1;align=center;verticalAlign=middle;resizable=0;points=[];autosize=1;strokeColor=none;fillColor=none;fontFamily=Helvetica;fontSize=11;fontColor=default;labelBackgroundColor=default;" parent="1" vertex="1">
          <mxGeometry x="1700" y="1020" width="50" height="30" as="geometry" />
        </mxCell>
        <mxCell id="0Ns2KySrUpd4GxgdJG7j-126" value="16&#39;b0" style="text;html=1;align=center;verticalAlign=middle;resizable=0;points=[];autosize=1;strokeColor=none;fillColor=none;fontFamily=Helvetica;fontSize=11;fontColor=default;labelBackgroundColor=default;" parent="1" vertex="1">
          <mxGeometry x="1700" y="1040" width="50" height="30" as="geometry" />
        </mxCell>
        <mxCell id="0Ns2KySrUpd4GxgdJG7j-128" value="16&#39;b0" style="text;html=1;align=center;verticalAlign=middle;resizable=0;points=[];autosize=1;strokeColor=none;fillColor=none;fontFamily=Helvetica;fontSize=11;fontColor=default;labelBackgroundColor=default;" parent="1" vertex="1">
          <mxGeometry x="1700" y="1080" width="50" height="30" as="geometry" />
        </mxCell>
        <mxCell id="0Ns2KySrUpd4GxgdJG7j-129" value="0" style="text;html=1;align=center;verticalAlign=middle;resizable=0;points=[];autosize=1;strokeColor=none;fillColor=none;fontFamily=Helvetica;fontSize=11;fontColor=#999999;labelBackgroundColor=default;rounded=0;imageWidth=12;imageHeight=1;connectable=0;allowArrows=0;" parent="1" vertex="1">
          <mxGeometry x="1753" y="1020" width="30" height="30" as="geometry" />
        </mxCell>
        <mxCell id="0Ns2KySrUpd4GxgdJG7j-130" value="1" style="text;html=1;align=center;verticalAlign=middle;resizable=0;points=[];autosize=1;strokeColor=none;fillColor=none;fontFamily=Helvetica;fontSize=11;fontColor=#999999;labelBackgroundColor=default;rounded=0;imageWidth=12;imageHeight=1;connectable=0;allowArrows=0;" parent="1" vertex="1">
          <mxGeometry x="1753" y="1040" width="30" height="30" as="geometry" />
        </mxCell>
        <mxCell id="0Ns2KySrUpd4GxgdJG7j-131" value="2" style="text;html=1;align=center;verticalAlign=middle;resizable=0;points=[];autosize=1;strokeColor=none;fillColor=none;fontFamily=Helvetica;fontSize=11;fontColor=#999999;labelBackgroundColor=default;rounded=0;imageWidth=12;imageHeight=1;connectable=0;allowArrows=0;" parent="1" vertex="1">
          <mxGeometry x="1753" y="1060" width="30" height="30" as="geometry" />
        </mxCell>
        <mxCell id="0Ns2KySrUpd4GxgdJG7j-132" value="3" style="text;html=1;align=center;verticalAlign=middle;resizable=0;points=[];autosize=1;strokeColor=none;fillColor=none;fontFamily=Helvetica;fontSize=11;fontColor=#999999;labelBackgroundColor=default;rounded=0;imageWidth=12;imageHeight=1;connectable=0;allowArrows=0;" parent="1" vertex="1">
          <mxGeometry x="1753" y="1080" width="30" height="30" as="geometry" />
        </mxCell>
        <mxCell id="0Ns2KySrUpd4GxgdJG7j-135" value="" style="shape=trapezoid;perimeter=trapezoidPerimeter;whiteSpace=wrap;html=1;fixedSize=1;rotation=90;size=14.103448275862092;" parent="1" vertex="1">
          <mxGeometry x="1666" y="1060.5" width="60" height="30" as="geometry" />
        </mxCell>
        <mxCell id="0Ns2KySrUpd4GxgdJG7j-136" value="" style="endArrow=classic;html=1;rounded=0;strokeColor=default;align=center;verticalAlign=middle;fontFamily=Helvetica;fontSize=11;fontColor=default;labelBackgroundColor=default;edgeStyle=orthogonalEdgeStyle;endSize=4;entryX=0;entryY=0.5;entryDx=0;entryDy=0;" parent="1" target="0Ns2KySrUpd4GxgdJG7j-135" edge="1">
          <mxGeometry width="50" height="50" relative="1" as="geometry">
            <mxPoint x="1696" y="1025.5" as="sourcePoint" />
            <mxPoint x="1701" y="1030.1599999999999" as="targetPoint" />
            <Array as="points">
              <mxPoint x="1696" y="1030.5" />
            </Array>
          </mxGeometry>
        </mxCell>
        <mxCell id="0Ns2KySrUpd4GxgdJG7j-139" value="" style="endArrow=classic;html=1;rounded=0;strokeColor=default;align=center;verticalAlign=middle;fontFamily=Helvetica;fontSize=11;fontColor=default;labelBackgroundColor=default;edgeStyle=orthogonalEdgeStyle;endSize=4;entryX=0.107;entryY=1;entryDx=0;entryDy=0;entryPerimeter=0;" parent="1" edge="1">
          <mxGeometry width="50" height="50" relative="1" as="geometry">
            <mxPoint x="1661" y="1064.5" as="sourcePoint" />
            <mxPoint x="1681" y="1064.5" as="targetPoint" />
            <Array as="points">
              <mxPoint x="1671" y="1064.5" />
              <mxPoint x="1671" y="1064.5" />
            </Array>
          </mxGeometry>
        </mxCell>
        <mxCell id="0Ns2KySrUpd4GxgdJG7j-140" value="" style="endArrow=classic;html=1;rounded=0;strokeColor=default;align=center;verticalAlign=middle;fontFamily=Helvetica;fontSize=11;fontColor=default;labelBackgroundColor=default;edgeStyle=orthogonalEdgeStyle;endSize=4;entryX=0.107;entryY=1;entryDx=0;entryDy=0;entryPerimeter=0;" parent="1" edge="1">
          <mxGeometry width="50" height="50" relative="1" as="geometry">
            <mxPoint x="1661" y="1085.01" as="sourcePoint" />
            <mxPoint x="1681" y="1085.01" as="targetPoint" />
            <Array as="points">
              <mxPoint x="1671" y="1085.01" />
              <mxPoint x="1671" y="1085.01" />
            </Array>
          </mxGeometry>
        </mxCell>
        <mxCell id="0Ns2KySrUpd4GxgdJG7j-142" value="c" style="text;html=1;align=center;verticalAlign=middle;resizable=0;points=[];autosize=1;strokeColor=none;fillColor=none;fontFamily=Helvetica;fontSize=11;fontColor=#009900;labelBackgroundColor=none;allowArrows=0;connectable=0;imageAspect=0;pointerEvents=0;deletable=0;" parent="1" vertex="1">
          <mxGeometry x="1639" y="1049" width="30" height="30" as="geometry" />
        </mxCell>
        <mxCell id="0Ns2KySrUpd4GxgdJG7j-143" value="d" style="text;html=1;align=center;verticalAlign=middle;resizable=0;points=[];autosize=1;strokeColor=none;fillColor=none;fontFamily=Helvetica;fontSize=11;fontColor=#009900;labelBackgroundColor=none;allowArrows=0;connectable=0;imageAspect=0;pointerEvents=0;deletable=0;" parent="1" vertex="1">
          <mxGeometry x="1639" y="1069" width="30" height="30" as="geometry" />
        </mxCell>
        <mxCell id="0Ns2KySrUpd4GxgdJG7j-144" value="&lt;p style=&quot;line-height: 0%;&quot;&gt;&lt;b&gt;==&lt;/b&gt;&lt;/p&gt;&lt;p&gt;&lt;/p&gt;" style="rounded=1;whiteSpace=wrap;html=1;" parent="1" vertex="1">
          <mxGeometry x="1681" y="995" width="30" height="30" as="geometry" />
        </mxCell>
        <mxCell id="0Ns2KySrUpd4GxgdJG7j-145" value="" style="endArrow=classic;html=1;rounded=0;strokeColor=default;align=center;verticalAlign=middle;fontFamily=Helvetica;fontSize=11;fontColor=default;labelBackgroundColor=default;edgeStyle=orthogonalEdgeStyle;endSize=4;entryX=0.107;entryY=1;entryDx=0;entryDy=0;entryPerimeter=0;" parent="1" edge="1">
          <mxGeometry width="50" height="50" relative="1" as="geometry">
            <mxPoint x="1661" y="1005.5" as="sourcePoint" />
            <mxPoint x="1681" y="1005.5" as="targetPoint" />
            <Array as="points">
              <mxPoint x="1671" y="1005.5" />
              <mxPoint x="1671" y="1005.5" />
            </Array>
          </mxGeometry>
        </mxCell>
        <mxCell id="0Ns2KySrUpd4GxgdJG7j-146" value="c" style="text;html=1;align=center;verticalAlign=middle;resizable=0;points=[];autosize=1;strokeColor=none;fillColor=none;fontFamily=Helvetica;fontSize=11;fontColor=#009900;labelBackgroundColor=none;allowArrows=0;connectable=0;imageAspect=0;pointerEvents=0;" parent="1" vertex="1">
          <mxGeometry x="1640" y="989" width="30" height="30" as="geometry" />
        </mxCell>
        <mxCell id="0Ns2KySrUpd4GxgdJG7j-148" value="" style="endArrow=classic;html=1;rounded=0;strokeColor=default;align=center;verticalAlign=middle;fontFamily=Helvetica;fontSize=11;fontColor=default;labelBackgroundColor=default;edgeStyle=orthogonalEdgeStyle;endSize=4;entryX=0.107;entryY=1;entryDx=0;entryDy=0;entryPerimeter=0;" parent="1" edge="1">
          <mxGeometry width="50" height="50" relative="1" as="geometry">
            <mxPoint x="1661" y="1015.01" as="sourcePoint" />
            <mxPoint x="1681" y="1015.01" as="targetPoint" />
            <Array as="points">
              <mxPoint x="1671" y="1015.01" />
              <mxPoint x="1671" y="1015.01" />
            </Array>
          </mxGeometry>
        </mxCell>
        <mxCell id="0Ns2KySrUpd4GxgdJG7j-149" value="16&#39;b0" style="text;html=1;align=center;verticalAlign=middle;resizable=0;points=[];autosize=1;strokeColor=none;fillColor=none;fontFamily=Helvetica;fontSize=11;fontColor=default;labelBackgroundColor=none;allowArrows=0;connectable=0;imageAspect=0;pointerEvents=0;" parent="1" vertex="1">
          <mxGeometry x="1621" y="1000" width="50" height="30" as="geometry" />
        </mxCell>
        <mxCell id="0Ns2KySrUpd4GxgdJG7j-151" value="gcd" style="text;html=1;align=center;verticalAlign=middle;resizable=0;points=[];autosize=1;strokeColor=none;fillColor=none;fontFamily=Helvetica;fontSize=11;fontColor=#007FFF;labelBackgroundColor=none;" parent="1" vertex="1">
          <mxGeometry x="1834" y="1049" width="40" height="30" as="geometry" />
        </mxCell>
        <mxCell id="0Ns2KySrUpd4GxgdJG7j-153" value="" style="endArrow=classic;html=1;rounded=0;strokeColor=default;align=center;verticalAlign=middle;fontFamily=Helvetica;fontSize=11;fontColor=default;labelBackgroundColor=none;autosize=1;resizable=0;edgeStyle=orthogonalEdgeStyle;endSize=4;" parent="1" edge="1">
          <mxGeometry width="50" height="50" relative="1" as="geometry">
            <mxPoint x="1311" y="1215" as="sourcePoint" />
            <mxPoint x="1311" y="1195" as="targetPoint" />
            <Array as="points">
              <mxPoint x="1311" y="1205" />
              <mxPoint x="1311" y="1205" />
            </Array>
          </mxGeometry>
        </mxCell>
        <mxCell id="0Ns2KySrUpd4GxgdJG7j-158" value="0" style="text;html=1;align=center;verticalAlign=middle;resizable=0;points=[];autosize=1;strokeColor=none;fillColor=none;fontFamily=Helvetica;fontSize=11;fontColor=#999999;labelBackgroundColor=none;allowArrows=0;connectable=0;imageAspect=0;pointerEvents=0;deletable=0;" parent="1" vertex="1">
          <mxGeometry x="1673" y="1049" width="30" height="30" as="geometry" />
        </mxCell>
        <mxCell id="0Ns2KySrUpd4GxgdJG7j-159" value="1" style="text;html=1;align=center;verticalAlign=middle;resizable=0;points=[];autosize=1;strokeColor=none;fillColor=none;fontFamily=Helvetica;fontSize=11;fontColor=#999999;labelBackgroundColor=none;allowArrows=0;connectable=0;imageAspect=0;pointerEvents=0;deletable=0;" parent="1" vertex="1">
          <mxGeometry x="1673" y="1069" width="30" height="30" as="geometry" />
        </mxCell>
        <mxCell id="0Ns2KySrUpd4GxgdJG7j-162" value="" style="endArrow=classic;html=1;rounded=0;strokeColor=default;align=center;verticalAlign=middle;fontFamily=Helvetica;fontSize=11;fontColor=default;labelBackgroundColor=default;edgeStyle=orthogonalEdgeStyle;endSize=4;entryX=0.5;entryY=1;entryDx=0;entryDy=0;" parent="1" target="0Ns2KySrUpd4GxgdJG7j-80" edge="1">
          <mxGeometry width="50" height="50" relative="1" as="geometry">
            <mxPoint x="1161" y="1335" as="sourcePoint" />
            <mxPoint x="1181" y="1335" as="targetPoint" />
            <Array as="points">
              <mxPoint x="1181" y="1335" />
            </Array>
          </mxGeometry>
        </mxCell>
        <mxCell id="0Ns2KySrUpd4GxgdJG7j-163" value="clk" style="text;html=1;align=center;verticalAlign=middle;resizable=0;points=[];autosize=1;strokeColor=none;fillColor=none;fontFamily=Helvetica;fontSize=11;fontColor=default;labelBackgroundColor=none;" parent="1" vertex="1">
          <mxGeometry x="1131" y="1319" width="40" height="30" as="geometry" />
        </mxCell>
        <mxCell id="0Ns2KySrUpd4GxgdJG7j-164" value="clk" style="text;html=1;align=center;verticalAlign=middle;resizable=0;points=[];autosize=1;strokeColor=none;fillColor=none;fontFamily=Helvetica;fontSize=11;fontColor=default;labelBackgroundColor=none;allowArrows=0;connectable=0;imageAspect=0;pointerEvents=0;deletable=1;" parent="1" vertex="1">
          <mxGeometry x="1291" y="1207" width="40" height="30" as="geometry" />
        </mxCell>
        <mxCell id="0Ns2KySrUpd4GxgdJG7j-171" value="" style="rounded=0;whiteSpace=wrap;html=1;pointerEvents=1;strokeColor=none;align=center;verticalAlign=middle;fontFamily=Helvetica;fontSize=12;fontColor=default;autosize=1;resizable=1;fillColor=#000000;gradientColor=none;" parent="1" vertex="1">
          <mxGeometry x="1073" y="945" width="10" height="10" as="geometry" />
        </mxCell>
        <mxCell id="0Ns2KySrUpd4GxgdJG7j-173" value="inputs &amp;amp; primitive values" style="text;html=1;align=center;verticalAlign=middle;resizable=1;points=[];autosize=1;strokeColor=none;fillColor=none;fontFamily=Helvetica;fontSize=12;fontColor=default;labelBackgroundColor=none;allowArrows=0;connectable=0;imageAspect=0;pointerEvents=0;deletable=1;" parent="1" vertex="1">
          <mxGeometry x="1077" y="935" width="150" height="30" as="geometry" />
        </mxCell>
        <mxCell id="0Ns2KySrUpd4GxgdJG7j-174" value="" style="rounded=0;whiteSpace=wrap;html=1;pointerEvents=1;strokeColor=none;align=center;verticalAlign=middle;fontFamily=Helvetica;fontSize=12;fontColor=default;autosize=1;resizable=1;fillColor=#009900;gradientColor=none;" parent="1" vertex="1">
          <mxGeometry x="1073" y="985" width="10" height="10" as="geometry" />
        </mxCell>
        <mxCell id="0Ns2KySrUpd4GxgdJG7j-175" value="" style="rounded=0;whiteSpace=wrap;html=1;pointerEvents=1;strokeColor=none;align=center;verticalAlign=middle;fontFamily=Helvetica;fontSize=12;fontColor=default;autosize=1;resizable=1;fillColor=#007FFF;gradientColor=none;" parent="1" vertex="1">
          <mxGeometry x="1073" y="965" width="10" height="10" as="geometry" />
        </mxCell>
        <mxCell id="0Ns2KySrUpd4GxgdJG7j-176" value="" style="rounded=0;whiteSpace=wrap;html=1;pointerEvents=1;strokeColor=none;align=center;verticalAlign=middle;fontFamily=Helvetica;fontSize=12;fontColor=default;autosize=1;resizable=1;fillColor=#FF8000;gradientColor=none;" parent="1" vertex="1">
          <mxGeometry x="1073" y="1005" width="10" height="10" as="geometry" />
        </mxCell>
        <mxCell id="0Ns2KySrUpd4GxgdJG7j-177" value="outputs" style="text;html=1;align=center;verticalAlign=middle;resizable=1;points=[];autosize=1;strokeColor=none;fillColor=none;fontFamily=Helvetica;fontSize=12;fontColor=default;labelBackgroundColor=none;allowArrows=0;connectable=0;imageAspect=0;pointerEvents=0;deletable=1;" parent="1" vertex="1">
          <mxGeometry x="1076" y="954" width="60" height="30" as="geometry" />
        </mxCell>
        <mxCell id="0Ns2KySrUpd4GxgdJG7j-178" value="internal signals" style="text;html=1;align=center;verticalAlign=middle;resizable=1;points=[];autosize=1;strokeColor=none;fillColor=none;fontFamily=Helvetica;fontSize=12;fontColor=default;labelBackgroundColor=none;allowArrows=0;connectable=0;imageAspect=0;pointerEvents=0;deletable=1;" parent="1" vertex="1">
          <mxGeometry x="1077" y="975" width="100" height="30" as="geometry" />
        </mxCell>
        <mxCell id="0Ns2KySrUpd4GxgdJG7j-179" value="states" style="text;html=1;align=center;verticalAlign=middle;resizable=1;points=[];autosize=1;strokeColor=none;fillColor=none;fontFamily=Helvetica;fontSize=12;fontColor=default;labelBackgroundColor=none;allowArrows=0;connectable=0;imageAspect=0;pointerEvents=0;deletable=1;" parent="1" vertex="1">
          <mxGeometry x="1073" y="995" width="60" height="30" as="geometry" />
        </mxCell>
        <mxCell id="0Ns2KySrUpd4GxgdJG7j-180" value="WAIT = 2&#39;d0&lt;div&gt;CAL = 2&#39;d1&lt;/div&gt;&lt;div style=&quot;&quot;&gt;FINISH = 2&#39;d2&lt;/div&gt;" style="text;html=1;align=left;verticalAlign=middle;resizable=1;points=[];autosize=1;strokeColor=none;fillColor=none;fontFamily=Helvetica;fontSize=12;fontColor=default;labelBackgroundColor=none;allowArrows=0;connectable=0;imageAspect=0;pointerEvents=0;deletable=1;" parent="1" vertex="1">
          <mxGeometry x="1065.5" y="1030" width="91" height="60" as="geometry" />
        </mxCell>
        <mxCell id="0Ns2KySrUpd4GxgdJG7j-182" value="" style="shape=trapezoid;perimeter=trapezoidPerimeter;whiteSpace=wrap;html=1;fixedSize=1;rotation=90;snapToPoint=1;" parent="1" vertex="1">
          <mxGeometry x="1981" y="1615" width="240" height="40" as="geometry" />
        </mxCell>
        <mxCell id="0Ns2KySrUpd4GxgdJG7j-229" value="&lt;p style=&quot;line-height: 0px;&quot;&gt;&lt;b&gt;DFF&lt;/b&gt;&lt;/p&gt;&lt;p style=&quot;line-height: 0px;&quot;&gt;&lt;font style=&quot;font-size: 9px;&quot;&gt;16-bit&lt;/font&gt;&lt;/p&gt;&lt;p&gt;&lt;/p&gt;" style="rounded=1;whiteSpace=wrap;html=1;strokeColor=default;align=center;verticalAlign=middle;fontFamily=Helvetica;fontSize=12;fontColor=default;fillColor=default;" parent="1" vertex="1">
          <mxGeometry x="2141" y="1625" width="60" height="60" as="geometry" />
        </mxCell>
        <mxCell id="0Ns2KySrUpd4GxgdJG7j-230" value="" style="triangle;whiteSpace=wrap;html=1;rotation=-90;strokeColor=default;align=center;verticalAlign=middle;fontFamily=Helvetica;fontSize=12;fontColor=default;fillColor=default;" parent="1" vertex="1">
          <mxGeometry x="2167" y="1673.5" width="8" height="14.5" as="geometry" />
        </mxCell>
        <mxCell id="0Ns2KySrUpd4GxgdJG7j-231" value="D" style="text;html=1;align=center;verticalAlign=middle;resizable=0;points=[];autosize=1;strokeColor=none;fillColor=none;fontColor=#999999;connectable=0;allowArrows=0;fontSize=12;pointerEvents=1;fontFamily=Helvetica;" parent="1" vertex="1">
          <mxGeometry x="2134" y="1621" width="30" height="30" as="geometry" />
        </mxCell>
        <mxCell id="0Ns2KySrUpd4GxgdJG7j-232" value="Q" style="text;html=1;align=center;verticalAlign=middle;resizable=0;points=[];autosize=1;strokeColor=none;fillColor=none;fontColor=#999999;connectable=0;allowArrows=0;fontSize=12;pointerEvents=1;fontFamily=Helvetica;" parent="1" vertex="1">
          <mxGeometry x="2178" y="1621" width="30" height="30" as="geometry" />
        </mxCell>
        <mxCell id="0Ns2KySrUpd4GxgdJG7j-233" style="edgeStyle=orthogonalEdgeStyle;shape=connector;rounded=0;orthogonalLoop=1;jettySize=auto;html=1;exitX=0.5;exitY=0;exitDx=0;exitDy=0;strokeColor=default;align=center;verticalAlign=middle;fontFamily=Helvetica;fontSize=11;fontColor=default;labelBackgroundColor=default;endArrow=classic;endSize=4;autosize=1;resizable=1;" parent="1" edge="1">
          <mxGeometry relative="1" as="geometry">
            <mxPoint x="2141" y="1635" as="targetPoint" />
            <mxPoint x="2121" y="1635" as="sourcePoint" />
          </mxGeometry>
        </mxCell>
        <mxCell id="0Ns2KySrUpd4GxgdJG7j-234" value="" style="endArrow=classic;html=1;rounded=0;strokeColor=default;align=center;verticalAlign=middle;fontFamily=Helvetica;fontSize=11;fontColor=default;labelBackgroundColor=none;autosize=1;resizable=0;edgeStyle=orthogonalEdgeStyle;endSize=4;" parent="1" edge="1">
          <mxGeometry width="50" height="50" relative="1" as="geometry">
            <mxPoint x="2171" y="1705" as="sourcePoint" />
            <mxPoint x="2171" y="1685" as="targetPoint" />
            <Array as="points">
              <mxPoint x="2171" y="1695" />
              <mxPoint x="2171" y="1695" />
            </Array>
          </mxGeometry>
        </mxCell>
        <mxCell id="0Ns2KySrUpd4GxgdJG7j-235" style="edgeStyle=orthogonalEdgeStyle;shape=connector;rounded=0;orthogonalLoop=1;jettySize=auto;html=1;exitX=0.5;exitY=0;exitDx=0;exitDy=0;strokeColor=#99004D;align=center;verticalAlign=middle;fontFamily=Helvetica;fontSize=11;fontColor=default;labelBackgroundColor=default;endArrow=classic;endSize=4;autosize=1;resizable=1;" parent="1" edge="1">
          <mxGeometry relative="1" as="geometry">
            <mxPoint x="2281" y="1635" as="targetPoint" />
            <mxPoint x="2201" y="1635" as="sourcePoint" />
          </mxGeometry>
        </mxCell>
        <mxCell id="0Ns2KySrUpd4GxgdJG7j-240" value="" style="shape=trapezoid;perimeter=trapezoidPerimeter;whiteSpace=wrap;html=1;fixedSize=1;rotation=90;size=14.103448275862092;" parent="1" vertex="1">
          <mxGeometry x="2006" y="1540.5" width="60" height="30" as="geometry" />
        </mxCell>
        <mxCell id="0Ns2KySrUpd4GxgdJG7j-241" value="" style="endArrow=classic;html=1;rounded=0;strokeColor=default;align=center;verticalAlign=middle;fontFamily=Helvetica;fontSize=11;fontColor=default;labelBackgroundColor=default;edgeStyle=orthogonalEdgeStyle;endSize=4;entryX=0;entryY=0.5;entryDx=0;entryDy=0;" parent="1" target="0Ns2KySrUpd4GxgdJG7j-240" edge="1">
          <mxGeometry width="50" height="50" relative="1" as="geometry">
            <mxPoint x="2036" y="1515" as="sourcePoint" />
            <mxPoint x="2041" y="1510.1599999999999" as="targetPoint" />
            <Array as="points">
              <mxPoint x="2036" y="1515" />
            </Array>
          </mxGeometry>
        </mxCell>
        <mxCell id="0Ns2KySrUpd4GxgdJG7j-242" value="" style="endArrow=classic;html=1;rounded=0;strokeColor=default;align=center;verticalAlign=middle;fontFamily=Helvetica;fontSize=11;fontColor=default;labelBackgroundColor=default;edgeStyle=orthogonalEdgeStyle;endSize=4;entryX=0.107;entryY=1;entryDx=0;entryDy=0;entryPerimeter=0;" parent="1" edge="1">
          <mxGeometry width="50" height="50" relative="1" as="geometry">
            <mxPoint x="2001" y="1544.5" as="sourcePoint" />
            <mxPoint x="2021" y="1544.5" as="targetPoint" />
            <Array as="points">
              <mxPoint x="2011" y="1544.5" />
              <mxPoint x="2011" y="1544.5" />
            </Array>
          </mxGeometry>
        </mxCell>
        <mxCell id="0Ns2KySrUpd4GxgdJG7j-243" value="" style="endArrow=classic;html=1;rounded=0;strokeColor=default;align=center;verticalAlign=middle;fontFamily=Helvetica;fontSize=11;fontColor=default;labelBackgroundColor=default;edgeStyle=orthogonalEdgeStyle;endSize=4;entryX=0.107;entryY=1;entryDx=0;entryDy=0;entryPerimeter=0;" parent="1" edge="1">
          <mxGeometry width="50" height="50" relative="1" as="geometry">
            <mxPoint x="2001" y="1565.01" as="sourcePoint" />
            <mxPoint x="2021" y="1565.01" as="targetPoint" />
            <Array as="points">
              <mxPoint x="2011" y="1565.01" />
              <mxPoint x="2011" y="1565.01" />
            </Array>
          </mxGeometry>
        </mxCell>
        <mxCell id="0Ns2KySrUpd4GxgdJG7j-244" value="16&#39;d0" style="text;html=1;align=center;verticalAlign=middle;resizable=0;points=[];autosize=1;strokeColor=none;fillColor=none;fontFamily=Helvetica;fontSize=11;fontColor=default;labelBackgroundColor=none;allowArrows=0;connectable=0;imageAspect=0;pointerEvents=0;deletable=0;" parent="1" vertex="1">
          <mxGeometry x="1960" y="1529" width="50" height="30" as="geometry" />
        </mxCell>
        <mxCell id="0Ns2KySrUpd4GxgdJG7j-245" value="a" style="text;html=1;align=center;verticalAlign=middle;resizable=0;points=[];autosize=1;strokeColor=none;fillColor=none;fontFamily=Helvetica;fontSize=11;fontColor=default;labelBackgroundColor=none;allowArrows=0;connectable=0;imageAspect=0;pointerEvents=0;deletable=0;" parent="1" vertex="1">
          <mxGeometry x="1980" y="1549" width="30" height="30" as="geometry" />
        </mxCell>
        <mxCell id="0Ns2KySrUpd4GxgdJG7j-246" value="&lt;p style=&quot;line-height: 0%;&quot;&gt;&lt;b&gt;==&lt;/b&gt;&lt;/p&gt;&lt;p style=&quot;line-height: 0%;&quot;&gt;&lt;font style=&quot;font-size: 9px;&quot;&gt;2-bit&lt;/font&gt;&lt;/p&gt;&lt;p&gt;&lt;/p&gt;" style="rounded=1;whiteSpace=wrap;html=1;" parent="1" vertex="1">
          <mxGeometry x="2021" y="1485" width="30" height="30" as="geometry" />
        </mxCell>
        <mxCell id="0Ns2KySrUpd4GxgdJG7j-247" value="" style="endArrow=classic;html=1;rounded=0;strokeColor=default;align=center;verticalAlign=middle;fontFamily=Helvetica;fontSize=11;fontColor=default;labelBackgroundColor=default;edgeStyle=orthogonalEdgeStyle;endSize=4;" parent="1" edge="1">
          <mxGeometry width="50" height="50" relative="1" as="geometry">
            <mxPoint x="1991" y="1495" as="sourcePoint" />
            <mxPoint x="2021" y="1495" as="targetPoint" />
            <Array as="points">
              <mxPoint x="2011" y="1495" />
            </Array>
          </mxGeometry>
        </mxCell>
        <mxCell id="0Ns2KySrUpd4GxgdJG7j-248" value="next_state" style="text;html=1;align=center;verticalAlign=middle;resizable=0;points=[];autosize=1;strokeColor=none;fillColor=none;fontFamily=Helvetica;fontSize=11;fontColor=#009900;labelBackgroundColor=none;allowArrows=0;connectable=0;imageAspect=0;pointerEvents=0;" parent="1" vertex="1">
          <mxGeometry x="1926" y="1479" width="70" height="30" as="geometry" />
        </mxCell>
        <mxCell id="0Ns2KySrUpd4GxgdJG7j-249" value="" style="endArrow=classic;html=1;rounded=0;strokeColor=default;align=center;verticalAlign=middle;fontFamily=Helvetica;fontSize=11;fontColor=default;labelBackgroundColor=default;edgeStyle=orthogonalEdgeStyle;endSize=4;entryX=0.107;entryY=1;entryDx=0;entryDy=0;entryPerimeter=0;" parent="1" edge="1">
          <mxGeometry width="50" height="50" relative="1" as="geometry">
            <mxPoint x="1991" y="1505" as="sourcePoint" />
            <mxPoint x="2021" y="1505.01" as="targetPoint" />
            <Array as="points">
              <mxPoint x="2011" y="1505.01" />
              <mxPoint x="2011" y="1505.01" />
            </Array>
          </mxGeometry>
        </mxCell>
        <mxCell id="0Ns2KySrUpd4GxgdJG7j-250" value="CAL" style="text;html=1;align=center;verticalAlign=middle;resizable=0;points=[];autosize=1;strokeColor=none;fillColor=none;fontFamily=Helvetica;fontSize=11;fontColor=#FF8000;labelBackgroundColor=none;allowArrows=0;connectable=0;imageAspect=0;pointerEvents=0;" parent="1" vertex="1">
          <mxGeometry x="1955" y="1490" width="40" height="30" as="geometry" />
        </mxCell>
        <mxCell id="0Ns2KySrUpd4GxgdJG7j-251" value="0" style="text;html=1;align=center;verticalAlign=middle;resizable=0;points=[];autosize=1;strokeColor=none;fillColor=none;fontFamily=Helvetica;fontSize=11;fontColor=#999999;labelBackgroundColor=none;allowArrows=0;connectable=0;imageAspect=0;pointerEvents=0;deletable=0;" parent="1" vertex="1">
          <mxGeometry x="2013" y="1530" width="30" height="30" as="geometry" />
        </mxCell>
        <mxCell id="0Ns2KySrUpd4GxgdJG7j-252" value="1" style="text;html=1;align=center;verticalAlign=middle;resizable=0;points=[];autosize=1;strokeColor=none;fillColor=none;fontFamily=Helvetica;fontSize=11;fontColor=#999999;labelBackgroundColor=none;allowArrows=0;connectable=0;imageAspect=0;pointerEvents=0;deletable=0;" parent="1" vertex="1">
          <mxGeometry x="2013" y="1550" width="30" height="30" as="geometry" />
        </mxCell>
        <mxCell id="0Ns2KySrUpd4GxgdJG7j-254" value="" style="endArrow=classic;html=1;rounded=0;strokeColor=default;align=center;verticalAlign=middle;fontFamily=Helvetica;fontSize=11;fontColor=default;labelBackgroundColor=default;edgeStyle=orthogonalEdgeStyle;endSize=4;entryX=0.107;entryY=1;entryDx=0;entryDy=0;entryPerimeter=0;exitX=0.5;exitY=0;exitDx=0;exitDy=0;" parent="1" source="0Ns2KySrUpd4GxgdJG7j-240" edge="1">
          <mxGeometry width="50" height="50" relative="1" as="geometry">
            <mxPoint x="2061" y="1555.4" as="sourcePoint" />
            <mxPoint x="2081" y="1555.4" as="targetPoint" />
            <Array as="points">
              <mxPoint x="2071" y="1556" />
            </Array>
          </mxGeometry>
        </mxCell>
        <mxCell id="0Ns2KySrUpd4GxgdJG7j-255" value="" style="endArrow=classic;html=1;rounded=0;strokeColor=default;align=center;verticalAlign=middle;fontFamily=Helvetica;fontSize=11;fontColor=default;labelBackgroundColor=default;edgeStyle=orthogonalEdgeStyle;endSize=4;" parent="1" edge="1">
          <mxGeometry width="50" height="50" relative="1" as="geometry">
            <mxPoint x="2051" y="1635" as="sourcePoint" />
            <mxPoint x="2081" y="1634.8" as="targetPoint" />
            <Array as="points">
              <mxPoint x="2061" y="1634.8" />
              <mxPoint x="2061" y="1634.8" />
            </Array>
          </mxGeometry>
        </mxCell>
        <mxCell id="0Ns2KySrUpd4GxgdJG7j-256" value="" style="shape=trapezoid;perimeter=trapezoidPerimeter;whiteSpace=wrap;html=1;fixedSize=1;rotation=90;size=14.103448275862092;" parent="1" vertex="1">
          <mxGeometry x="2006" y="1620" width="60" height="30" as="geometry" />
        </mxCell>
        <mxCell id="0Ns2KySrUpd4GxgdJG7j-257" value="0" style="text;html=1;align=center;verticalAlign=middle;resizable=0;points=[];autosize=1;strokeColor=none;fillColor=none;fontFamily=Helvetica;fontSize=11;fontColor=#999999;labelBackgroundColor=none;allowArrows=0;connectable=0;imageAspect=0;pointerEvents=0;deletable=0;" parent="1" vertex="1">
          <mxGeometry x="2011" y="1609.5" width="30" height="30" as="geometry" />
        </mxCell>
        <mxCell id="0Ns2KySrUpd4GxgdJG7j-258" value="1" style="text;html=1;align=center;verticalAlign=middle;resizable=0;points=[];autosize=1;strokeColor=none;fillColor=none;fontFamily=Helvetica;fontSize=11;fontColor=#999999;labelBackgroundColor=none;allowArrows=0;connectable=0;imageAspect=0;pointerEvents=0;deletable=0;" parent="1" vertex="1">
          <mxGeometry x="2011" y="1628" width="30" height="30" as="geometry" />
        </mxCell>
        <mxCell id="0Ns2KySrUpd4GxgdJG7j-264" style="edgeStyle=orthogonalEdgeStyle;shape=connector;rounded=0;orthogonalLoop=1;jettySize=auto;html=1;exitX=0.5;exitY=0;exitDx=0;exitDy=0;strokeColor=default;align=center;verticalAlign=middle;fontFamily=Helvetica;fontSize=12;fontColor=default;labelBackgroundColor=none;autosize=1;resizable=1;endArrow=classic;endSize=4;" parent="1" source="0Ns2KySrUpd4GxgdJG7j-259" edge="1">
          <mxGeometry relative="1" as="geometry">
            <mxPoint x="2021" y="1645" as="targetPoint" />
            <Array as="points">
              <mxPoint x="2001" y="1655" />
              <mxPoint x="2001" y="1645" />
            </Array>
          </mxGeometry>
        </mxCell>
        <mxCell id="0Ns2KySrUpd4GxgdJG7j-259" value="" style="shape=trapezoid;perimeter=trapezoidPerimeter;whiteSpace=wrap;html=1;fixedSize=1;rotation=90;size=14.103448275862092;" parent="1" vertex="1">
          <mxGeometry x="1946" y="1640" width="60" height="30" as="geometry" />
        </mxCell>
        <mxCell id="0Ns2KySrUpd4GxgdJG7j-260" value="0" style="text;html=1;align=center;verticalAlign=middle;resizable=0;points=[];autosize=1;strokeColor=none;fillColor=none;fontFamily=Helvetica;fontSize=11;fontColor=#999999;labelBackgroundColor=none;allowArrows=0;connectable=0;imageAspect=0;pointerEvents=0;deletable=0;" parent="1" vertex="1">
          <mxGeometry x="1953" y="1629.5" width="30" height="30" as="geometry" />
        </mxCell>
        <mxCell id="0Ns2KySrUpd4GxgdJG7j-261" value="1" style="text;html=1;align=center;verticalAlign=middle;resizable=0;points=[];autosize=1;strokeColor=none;fillColor=none;fontFamily=Helvetica;fontSize=11;fontColor=#999999;labelBackgroundColor=none;allowArrows=0;connectable=0;imageAspect=0;pointerEvents=0;deletable=0;" parent="1" vertex="1">
          <mxGeometry x="1953" y="1649.5" width="30" height="30" as="geometry" />
        </mxCell>
        <mxCell id="0Ns2KySrUpd4GxgdJG7j-270" style="edgeStyle=orthogonalEdgeStyle;shape=connector;rounded=0;orthogonalLoop=1;jettySize=auto;html=1;exitX=0.5;exitY=0;exitDx=0;exitDy=0;entryX=1;entryY=0.5;entryDx=0;entryDy=0;strokeColor=default;align=center;verticalAlign=middle;fontFamily=Helvetica;fontSize=12;fontColor=default;labelBackgroundColor=none;autosize=1;resizable=1;endArrow=classic;endSize=4;" parent="1" source="0Ns2KySrUpd4GxgdJG7j-265" target="0Ns2KySrUpd4GxgdJG7j-259" edge="1">
          <mxGeometry relative="1" as="geometry" />
        </mxCell>
        <mxCell id="0Ns2KySrUpd4GxgdJG7j-265" value="&lt;p style=&quot;line-height: 0%;&quot;&gt;&lt;b&gt;&amp;gt;&lt;/b&gt;&lt;/p&gt;&lt;p style=&quot;line-height: 0%;&quot;&gt;&lt;b&gt;&lt;br&gt;&lt;/b&gt;&lt;/p&gt;&lt;p&gt;&lt;/p&gt;" style="rounded=1;whiteSpace=wrap;html=1;" parent="1" vertex="1">
          <mxGeometry x="1961" y="1695" width="30" height="30" as="geometry" />
        </mxCell>
        <mxCell id="0Ns2KySrUpd4GxgdJG7j-266" value="" style="endArrow=classic;html=1;rounded=0;strokeColor=#99004D;align=center;verticalAlign=middle;fontFamily=Helvetica;fontSize=11;fontColor=default;labelBackgroundColor=default;edgeStyle=orthogonalEdgeStyle;endSize=4;entryX=0.107;entryY=1;entryDx=0;entryDy=0;entryPerimeter=0;" parent="1" edge="1">
          <mxGeometry width="50" height="50" relative="1" as="geometry">
            <mxPoint x="1891" y="1705" as="sourcePoint" />
            <mxPoint x="1961" y="1705.5" as="targetPoint" />
            <Array as="points">
              <mxPoint x="1951" y="1705.5" />
              <mxPoint x="1951" y="1705.5" />
            </Array>
          </mxGeometry>
        </mxCell>
        <mxCell id="0Ns2KySrUpd4GxgdJG7j-268" value="" style="endArrow=classic;html=1;rounded=0;strokeColor=#4C0099;align=center;verticalAlign=middle;fontFamily=Helvetica;fontSize=11;fontColor=default;labelBackgroundColor=default;edgeStyle=orthogonalEdgeStyle;endSize=4;entryX=0.107;entryY=1;entryDx=0;entryDy=0;entryPerimeter=0;" parent="1" edge="1">
          <mxGeometry width="50" height="50" relative="1" as="geometry">
            <mxPoint x="1881" y="1715" as="sourcePoint" />
            <mxPoint x="1961" y="1715.01" as="targetPoint" />
            <Array as="points">
              <mxPoint x="1951" y="1715.01" />
              <mxPoint x="1951" y="1715.01" />
            </Array>
          </mxGeometry>
        </mxCell>
        <mxCell id="0Ns2KySrUpd4GxgdJG7j-271" value="(a&amp;gt;b)" style="text;html=1;align=center;verticalAlign=middle;resizable=0;points=[];autosize=1;strokeColor=none;fillColor=none;fontFamily=Helvetica;fontSize=7;fontColor=#999999;labelBackgroundColor=none;allowArrows=0;connectable=0;imageAspect=0;pointerEvents=0;deletable=1;" parent="1" vertex="1">
          <mxGeometry x="1956" y="1709" width="40" height="20" as="geometry" />
        </mxCell>
        <mxCell id="0Ns2KySrUpd4GxgdJG7j-272" value="b" style="text;html=1;align=center;verticalAlign=middle;resizable=0;points=[];autosize=1;strokeColor=none;fillColor=none;fontFamily=Helvetica;fontSize=9;fontColor=#999999;labelBackgroundColor=none;allowArrows=0;connectable=0;imageAspect=0;pointerEvents=0;deletable=0;" parent="1" vertex="1">
          <mxGeometry x="1950" y="1705" width="30" height="20" as="geometry" />
        </mxCell>
        <mxCell id="0Ns2KySrUpd4GxgdJG7j-273" value="a" style="text;html=1;align=center;verticalAlign=middle;resizable=0;points=[];autosize=1;strokeColor=none;fillColor=none;fontFamily=Helvetica;fontSize=9;fontColor=#999999;labelBackgroundColor=none;allowArrows=0;connectable=0;imageAspect=0;pointerEvents=0;deletable=0;" parent="1" vertex="1">
          <mxGeometry x="1950" y="1694" width="30" height="20" as="geometry" />
        </mxCell>
        <mxCell id="0Ns2KySrUpd4GxgdJG7j-274" value="" style="endArrow=classic;html=1;rounded=0;strokeColor=#99004D;align=center;verticalAlign=middle;fontFamily=Helvetica;fontSize=11;fontColor=default;labelBackgroundColor=default;edgeStyle=orthogonalEdgeStyle;endSize=4;entryX=0.107;entryY=1;entryDx=0;entryDy=0;entryPerimeter=0;" parent="1" edge="1">
          <mxGeometry width="50" height="50" relative="1" as="geometry">
            <mxPoint x="1891" y="1645" as="sourcePoint" />
            <mxPoint x="1961" y="1645" as="targetPoint" />
            <Array as="points">
              <mxPoint x="1951" y="1645" />
              <mxPoint x="1951" y="1645" />
            </Array>
          </mxGeometry>
        </mxCell>
        <mxCell id="0Ns2KySrUpd4GxgdJG7j-275" value="" style="endArrow=classic;html=1;rounded=0;strokeColor=default;align=center;verticalAlign=middle;fontFamily=Helvetica;fontSize=11;fontColor=default;labelBackgroundColor=default;edgeStyle=orthogonalEdgeStyle;endSize=4;entryX=0.107;entryY=1;entryDx=0;entryDy=0;entryPerimeter=0;" parent="1" edge="1">
          <mxGeometry width="50" height="50" relative="1" as="geometry">
            <mxPoint x="1941" y="1665.51" as="sourcePoint" />
            <mxPoint x="1961" y="1665.51" as="targetPoint" />
            <Array as="points">
              <mxPoint x="1951" y="1665.51" />
              <mxPoint x="1951" y="1665.51" />
            </Array>
          </mxGeometry>
        </mxCell>
        <mxCell id="0Ns2KySrUpd4GxgdJG7j-278" value="&lt;p style=&quot;line-height: 0%;&quot;&gt;&lt;b&gt;–&lt;/b&gt;&lt;/p&gt;&lt;p style=&quot;line-height: 0%;&quot;&gt;&lt;b&gt;&lt;br&gt;&lt;/b&gt;&lt;/p&gt;&lt;p&gt;&lt;/p&gt;" style="rounded=1;whiteSpace=wrap;html=1;" parent="1" vertex="1">
          <mxGeometry x="1911" y="1654.5" width="30" height="30" as="geometry" />
        </mxCell>
        <mxCell id="0Ns2KySrUpd4GxgdJG7j-279" value="(a-b)" style="text;html=1;align=center;verticalAlign=middle;resizable=0;points=[];autosize=1;strokeColor=none;fillColor=none;fontFamily=Helvetica;fontSize=7;fontColor=#999999;labelBackgroundColor=none;allowArrows=0;connectable=0;imageAspect=0;pointerEvents=0;deletable=1;" parent="1" vertex="1">
          <mxGeometry x="1906" y="1668" width="40" height="20" as="geometry" />
        </mxCell>
        <mxCell id="0Ns2KySrUpd4GxgdJG7j-280" value="b" style="text;html=1;align=center;verticalAlign=middle;resizable=0;points=[];autosize=1;strokeColor=none;fillColor=none;fontFamily=Helvetica;fontSize=9;fontColor=#999999;labelBackgroundColor=none;allowArrows=0;connectable=0;imageAspect=0;pointerEvents=0;deletable=0;" parent="1" vertex="1">
          <mxGeometry x="1900" y="1663" width="30" height="20" as="geometry" />
        </mxCell>
        <mxCell id="0Ns2KySrUpd4GxgdJG7j-281" value="a" style="text;html=1;align=center;verticalAlign=middle;resizable=0;points=[];autosize=1;strokeColor=none;fillColor=none;fontFamily=Helvetica;fontSize=9;fontColor=#999999;labelBackgroundColor=none;allowArrows=0;connectable=0;imageAspect=0;pointerEvents=0;deletable=0;" parent="1" vertex="1">
          <mxGeometry x="1900" y="1652" width="30" height="20" as="geometry" />
        </mxCell>
        <mxCell id="0Ns2KySrUpd4GxgdJG7j-282" value="" style="endArrow=classic;html=1;rounded=0;strokeColor=#99004D;align=center;verticalAlign=middle;fontFamily=Helvetica;fontSize=11;fontColor=default;labelBackgroundColor=default;edgeStyle=orthogonalEdgeStyle;endSize=4;entryX=0.107;entryY=1;entryDx=0;entryDy=0;entryPerimeter=0;" parent="1" edge="1">
          <mxGeometry width="50" height="50" relative="1" as="geometry">
            <mxPoint x="1891" y="1664.5" as="sourcePoint" />
            <mxPoint x="1911" y="1664.5" as="targetPoint" />
            <Array as="points">
              <mxPoint x="1901" y="1664.5" />
              <mxPoint x="1901" y="1664.5" />
            </Array>
          </mxGeometry>
        </mxCell>
        <mxCell id="0Ns2KySrUpd4GxgdJG7j-286" value="" style="endArrow=classic;html=1;rounded=0;strokeColor=#99004D;align=center;verticalAlign=middle;fontFamily=Helvetica;fontSize=11;fontColor=default;labelBackgroundColor=default;edgeStyle=orthogonalEdgeStyle;endSize=4;" parent="1" edge="1">
          <mxGeometry width="50" height="50" relative="1" as="geometry">
            <mxPoint x="2061" y="1765" as="sourcePoint" />
            <mxPoint x="2081" y="1695" as="targetPoint" />
            <Array as="points">
              <mxPoint x="2061" y="1695" />
              <mxPoint x="2061" y="1695" />
            </Array>
          </mxGeometry>
        </mxCell>
        <mxCell id="0Ns2KySrUpd4GxgdJG7j-287" value="" style="endArrow=classic;html=1;rounded=0;strokeColor=#99004D;align=center;verticalAlign=middle;fontFamily=Helvetica;fontSize=11;fontColor=default;labelBackgroundColor=default;edgeStyle=orthogonalEdgeStyle;endSize=4;" parent="1" edge="1">
          <mxGeometry width="50" height="50" relative="1" as="geometry">
            <mxPoint x="2061" y="1725" as="sourcePoint" />
            <mxPoint x="2081" y="1725" as="targetPoint" />
            <Array as="points">
              <mxPoint x="2061" y="1725" />
              <mxPoint x="2061" y="1725" />
            </Array>
          </mxGeometry>
        </mxCell>
        <mxCell id="0Ns2KySrUpd4GxgdJG7j-288" value="c" style="text;html=1;align=center;verticalAlign=middle;resizable=0;points=[];autosize=1;strokeColor=none;fillColor=none;fontFamily=Helvetica;fontSize=14;fontColor=#009900;" parent="1" vertex="1">
          <mxGeometry x="2192" y="1610" width="30" height="30" as="geometry" />
        </mxCell>
        <mxCell id="0Ns2KySrUpd4GxgdJG7j-289" value="0" style="text;html=1;align=center;verticalAlign=middle;resizable=0;points=[];autosize=1;strokeColor=none;fillColor=none;fontFamily=Helvetica;fontSize=11;fontColor=#999999;labelBackgroundColor=none;allowArrows=0;connectable=0;imageAspect=0;pointerEvents=0;deletable=0;" parent="1" vertex="1">
          <mxGeometry x="2073" y="1540.5" width="30" height="30" as="geometry" />
        </mxCell>
        <mxCell id="0Ns2KySrUpd4GxgdJG7j-290" value="1" style="text;html=1;align=center;verticalAlign=middle;resizable=0;points=[];autosize=1;strokeColor=none;fillColor=none;fontFamily=Helvetica;fontSize=11;fontColor=#999999;labelBackgroundColor=none;allowArrows=0;connectable=0;imageAspect=0;pointerEvents=0;deletable=0;" parent="1" vertex="1">
          <mxGeometry x="2073" y="1620" width="30" height="30" as="geometry" />
        </mxCell>
        <mxCell id="0Ns2KySrUpd4GxgdJG7j-291" value="2" style="text;html=1;align=center;verticalAlign=middle;resizable=0;points=[];autosize=1;strokeColor=none;fillColor=none;fontFamily=Helvetica;fontSize=11;fontColor=#999999;labelBackgroundColor=none;allowArrows=0;connectable=0;imageAspect=0;pointerEvents=0;deletable=0;" parent="1" vertex="1">
          <mxGeometry x="2073" y="1679.5" width="30" height="30" as="geometry" />
        </mxCell>
        <mxCell id="0Ns2KySrUpd4GxgdJG7j-292" value="3" style="text;html=1;align=center;verticalAlign=middle;resizable=0;points=[];autosize=1;strokeColor=none;fillColor=none;fontFamily=Helvetica;fontSize=11;fontColor=#999999;labelBackgroundColor=none;allowArrows=0;connectable=0;imageAspect=0;pointerEvents=0;deletable=0;" parent="1" vertex="1">
          <mxGeometry x="2073" y="1709.5" width="30" height="30" as="geometry" />
        </mxCell>
        <mxCell id="0Ns2KySrUpd4GxgdJG7j-293" value="" style="endArrow=classic;html=1;rounded=0;strokeColor=default;align=center;verticalAlign=middle;fontFamily=Helvetica;fontSize=11;fontColor=default;labelBackgroundColor=default;edgeStyle=orthogonalEdgeStyle;endSize=4;" parent="1" edge="1">
          <mxGeometry width="50" height="50" relative="1" as="geometry">
            <mxPoint x="2101" y="1465" as="sourcePoint" />
            <mxPoint x="2101" y="1525" as="targetPoint" />
            <Array as="points">
              <mxPoint x="2100.83" y="1509" />
            </Array>
          </mxGeometry>
        </mxCell>
        <mxCell id="0Ns2KySrUpd4GxgdJG7j-294" value="state" style="text;html=1;align=center;verticalAlign=middle;resizable=0;points=[];autosize=1;strokeColor=none;fillColor=none;fontFamily=Helvetica;fontSize=12;fontColor=#009900;" parent="1" vertex="1">
          <mxGeometry x="2038" y="1448" width="50" height="30" as="geometry" />
        </mxCell>
        <mxCell id="0Ns2KySrUpd4GxgdJG7j-297" value="clk" style="text;html=1;align=center;verticalAlign=middle;resizable=0;points=[];autosize=1;strokeColor=none;fillColor=none;fontFamily=Helvetica;fontSize=12;fontColor=default;" parent="1" vertex="1">
          <mxGeometry x="2151" y="1697" width="40" height="30" as="geometry" />
        </mxCell>
        <mxCell id="0Ns2KySrUpd4GxgdJG7j-298" value="" style="shape=trapezoid;perimeter=trapezoidPerimeter;whiteSpace=wrap;html=1;fixedSize=1;rotation=90;snapToPoint=1;" parent="1" vertex="1">
          <mxGeometry x="2351" y="1615" width="240" height="40" as="geometry" />
        </mxCell>
        <mxCell id="0Ns2KySrUpd4GxgdJG7j-299" value="&lt;p style=&quot;line-height: 0%;&quot;&gt;&lt;b&gt;DFF&lt;/b&gt;&lt;/p&gt;&lt;p style=&quot;line-height: 0%;&quot;&gt;&lt;font style=&quot;font-size: 9px;&quot;&gt;16-bit&lt;/font&gt;&lt;/p&gt;&lt;p&gt;&lt;/p&gt;" style="rounded=1;whiteSpace=wrap;html=1;strokeColor=default;align=center;verticalAlign=middle;fontFamily=Helvetica;fontSize=12;fontColor=default;fillColor=default;" parent="1" vertex="1">
          <mxGeometry x="2511" y="1625" width="60" height="60" as="geometry" />
        </mxCell>
        <mxCell id="0Ns2KySrUpd4GxgdJG7j-300" value="" style="triangle;whiteSpace=wrap;html=1;rotation=-90;strokeColor=default;align=center;verticalAlign=middle;fontFamily=Helvetica;fontSize=12;fontColor=default;fillColor=default;" parent="1" vertex="1">
          <mxGeometry x="2537" y="1673.5" width="8" height="14.5" as="geometry" />
        </mxCell>
        <mxCell id="0Ns2KySrUpd4GxgdJG7j-301" value="D" style="text;html=1;align=center;verticalAlign=middle;resizable=0;points=[];autosize=1;strokeColor=none;fillColor=none;fontColor=#999999;connectable=0;allowArrows=0;fontSize=12;pointerEvents=1;fontFamily=Helvetica;" parent="1" vertex="1">
          <mxGeometry x="2504" y="1621" width="30" height="30" as="geometry" />
        </mxCell>
        <mxCell id="0Ns2KySrUpd4GxgdJG7j-302" value="Q" style="text;html=1;align=center;verticalAlign=middle;resizable=0;points=[];autosize=1;strokeColor=none;fillColor=none;fontColor=#999999;connectable=0;allowArrows=0;fontSize=12;pointerEvents=1;fontFamily=Helvetica;" parent="1" vertex="1">
          <mxGeometry x="2548" y="1621" width="30" height="30" as="geometry" />
        </mxCell>
        <mxCell id="0Ns2KySrUpd4GxgdJG7j-303" style="edgeStyle=orthogonalEdgeStyle;shape=connector;rounded=0;orthogonalLoop=1;jettySize=auto;html=1;exitX=0.5;exitY=0;exitDx=0;exitDy=0;strokeColor=default;align=center;verticalAlign=middle;fontFamily=Helvetica;fontSize=11;fontColor=default;labelBackgroundColor=default;endArrow=classic;endSize=4;autosize=1;resizable=1;" parent="1" edge="1">
          <mxGeometry relative="1" as="geometry">
            <mxPoint x="2511" y="1635" as="targetPoint" />
            <mxPoint x="2491" y="1635" as="sourcePoint" />
          </mxGeometry>
        </mxCell>
        <mxCell id="0Ns2KySrUpd4GxgdJG7j-304" value="" style="endArrow=classic;html=1;rounded=0;strokeColor=default;align=center;verticalAlign=middle;fontFamily=Helvetica;fontSize=11;fontColor=default;labelBackgroundColor=none;autosize=1;resizable=0;edgeStyle=orthogonalEdgeStyle;endSize=4;" parent="1" edge="1">
          <mxGeometry width="50" height="50" relative="1" as="geometry">
            <mxPoint x="2541" y="1705" as="sourcePoint" />
            <mxPoint x="2541" y="1685" as="targetPoint" />
            <Array as="points">
              <mxPoint x="2541" y="1695" />
              <mxPoint x="2541" y="1695" />
            </Array>
          </mxGeometry>
        </mxCell>
        <mxCell id="0Ns2KySrUpd4GxgdJG7j-306" value="" style="shape=trapezoid;perimeter=trapezoidPerimeter;whiteSpace=wrap;html=1;fixedSize=1;rotation=90;size=14.103448275862092;" parent="1" vertex="1">
          <mxGeometry x="2376" y="1540.5" width="60" height="30" as="geometry" />
        </mxCell>
        <mxCell id="0Ns2KySrUpd4GxgdJG7j-307" value="" style="endArrow=classic;html=1;rounded=0;strokeColor=default;align=center;verticalAlign=middle;fontFamily=Helvetica;fontSize=11;fontColor=default;labelBackgroundColor=default;edgeStyle=orthogonalEdgeStyle;endSize=4;entryX=0;entryY=0.5;entryDx=0;entryDy=0;" parent="1" target="0Ns2KySrUpd4GxgdJG7j-306" edge="1">
          <mxGeometry width="50" height="50" relative="1" as="geometry">
            <mxPoint x="2406" y="1515" as="sourcePoint" />
            <mxPoint x="2411" y="1510.1599999999999" as="targetPoint" />
            <Array as="points">
              <mxPoint x="2406" y="1515" />
            </Array>
          </mxGeometry>
        </mxCell>
        <mxCell id="0Ns2KySrUpd4GxgdJG7j-308" value="" style="endArrow=classic;html=1;rounded=0;strokeColor=default;align=center;verticalAlign=middle;fontFamily=Helvetica;fontSize=11;fontColor=default;labelBackgroundColor=default;edgeStyle=orthogonalEdgeStyle;endSize=4;entryX=0.107;entryY=1;entryDx=0;entryDy=0;entryPerimeter=0;" parent="1" edge="1">
          <mxGeometry width="50" height="50" relative="1" as="geometry">
            <mxPoint x="2371" y="1544.5" as="sourcePoint" />
            <mxPoint x="2391" y="1544.5" as="targetPoint" />
            <Array as="points">
              <mxPoint x="2381" y="1544.5" />
              <mxPoint x="2381" y="1544.5" />
            </Array>
          </mxGeometry>
        </mxCell>
        <mxCell id="0Ns2KySrUpd4GxgdJG7j-309" value="" style="endArrow=classic;html=1;rounded=0;strokeColor=default;align=center;verticalAlign=middle;fontFamily=Helvetica;fontSize=11;fontColor=default;labelBackgroundColor=default;edgeStyle=orthogonalEdgeStyle;endSize=4;entryX=0.107;entryY=1;entryDx=0;entryDy=0;entryPerimeter=0;" parent="1" edge="1">
          <mxGeometry width="50" height="50" relative="1" as="geometry">
            <mxPoint x="2371" y="1565.01" as="sourcePoint" />
            <mxPoint x="2391" y="1565.01" as="targetPoint" />
            <Array as="points">
              <mxPoint x="2381" y="1565.01" />
              <mxPoint x="2381" y="1565.01" />
            </Array>
          </mxGeometry>
        </mxCell>
        <mxCell id="0Ns2KySrUpd4GxgdJG7j-310" value="16&#39;d0" style="text;html=1;align=center;verticalAlign=middle;resizable=0;points=[];autosize=1;strokeColor=none;fillColor=none;fontFamily=Helvetica;fontSize=11;fontColor=default;labelBackgroundColor=none;allowArrows=0;connectable=0;imageAspect=0;pointerEvents=0;deletable=0;" parent="1" vertex="1">
          <mxGeometry x="2330" y="1529" width="50" height="30" as="geometry" />
        </mxCell>
        <mxCell id="0Ns2KySrUpd4GxgdJG7j-311" value="b" style="text;html=1;align=center;verticalAlign=middle;resizable=0;points=[];autosize=1;strokeColor=none;fillColor=none;fontFamily=Helvetica;fontSize=11;fontColor=default;labelBackgroundColor=none;allowArrows=0;connectable=0;imageAspect=0;pointerEvents=0;deletable=0;" parent="1" vertex="1">
          <mxGeometry x="2350" y="1549" width="30" height="30" as="geometry" />
        </mxCell>
        <mxCell id="0Ns2KySrUpd4GxgdJG7j-312" value="&lt;p style=&quot;line-height: 0px;&quot;&gt;&lt;b&gt;==&lt;/b&gt;&lt;/p&gt;&lt;p style=&quot;line-height: 0px;&quot;&gt;&lt;font style=&quot;font-size: 9px;&quot;&gt;2-bit&lt;/font&gt;&lt;/p&gt;&lt;p&gt;&lt;/p&gt;" style="rounded=1;whiteSpace=wrap;html=1;" parent="1" vertex="1">
          <mxGeometry x="2391" y="1485" width="30" height="30" as="geometry" />
        </mxCell>
        <mxCell id="0Ns2KySrUpd4GxgdJG7j-313" value="" style="endArrow=classic;html=1;rounded=0;strokeColor=default;align=center;verticalAlign=middle;fontFamily=Helvetica;fontSize=11;fontColor=default;labelBackgroundColor=default;edgeStyle=orthogonalEdgeStyle;endSize=4;" parent="1" edge="1">
          <mxGeometry width="50" height="50" relative="1" as="geometry">
            <mxPoint x="2011" y="1495" as="sourcePoint" />
            <mxPoint x="2391" y="1495" as="targetPoint" />
            <Array as="points">
              <mxPoint x="2006" y="1495" />
              <mxPoint x="2006" y="1475" />
              <mxPoint x="2361" y="1475" />
              <mxPoint x="2361" y="1495" />
            </Array>
          </mxGeometry>
        </mxCell>
        <mxCell id="0Ns2KySrUpd4GxgdJG7j-315" value="" style="endArrow=classic;html=1;rounded=0;strokeColor=default;align=center;verticalAlign=middle;fontFamily=Helvetica;fontSize=11;fontColor=default;labelBackgroundColor=default;edgeStyle=orthogonalEdgeStyle;endSize=4;entryX=0.107;entryY=1;entryDx=0;entryDy=0;entryPerimeter=0;" parent="1" edge="1">
          <mxGeometry width="50" height="50" relative="1" as="geometry">
            <mxPoint x="2371" y="1505.01" as="sourcePoint" />
            <mxPoint x="2391" y="1505.01" as="targetPoint" />
            <Array as="points">
              <mxPoint x="2381" y="1505.01" />
              <mxPoint x="2381" y="1505.01" />
            </Array>
          </mxGeometry>
        </mxCell>
        <mxCell id="0Ns2KySrUpd4GxgdJG7j-316" value="CAL" style="text;html=1;align=center;verticalAlign=middle;resizable=0;points=[];autosize=1;strokeColor=none;fillColor=none;fontFamily=Helvetica;fontSize=11;fontColor=#FF8000;labelBackgroundColor=none;allowArrows=0;connectable=0;imageAspect=0;pointerEvents=0;" parent="1" vertex="1">
          <mxGeometry x="2338" y="1490" width="40" height="30" as="geometry" />
        </mxCell>
        <mxCell id="0Ns2KySrUpd4GxgdJG7j-317" value="0" style="text;html=1;align=center;verticalAlign=middle;resizable=0;points=[];autosize=1;strokeColor=none;fillColor=none;fontFamily=Helvetica;fontSize=11;fontColor=#999999;labelBackgroundColor=none;allowArrows=0;connectable=0;imageAspect=0;pointerEvents=0;deletable=0;" parent="1" vertex="1">
          <mxGeometry x="2383" y="1530" width="30" height="30" as="geometry" />
        </mxCell>
        <mxCell id="0Ns2KySrUpd4GxgdJG7j-318" value="1" style="text;html=1;align=center;verticalAlign=middle;resizable=0;points=[];autosize=1;strokeColor=none;fillColor=none;fontFamily=Helvetica;fontSize=11;fontColor=#999999;labelBackgroundColor=none;allowArrows=0;connectable=0;imageAspect=0;pointerEvents=0;deletable=0;" parent="1" vertex="1">
          <mxGeometry x="2383" y="1550" width="30" height="30" as="geometry" />
        </mxCell>
        <mxCell id="0Ns2KySrUpd4GxgdJG7j-319" value="" style="endArrow=classic;html=1;rounded=0;strokeColor=default;align=center;verticalAlign=middle;fontFamily=Helvetica;fontSize=11;fontColor=default;labelBackgroundColor=default;edgeStyle=orthogonalEdgeStyle;endSize=4;entryX=0.107;entryY=1;entryDx=0;entryDy=0;entryPerimeter=0;exitX=0.5;exitY=0;exitDx=0;exitDy=0;" parent="1" source="0Ns2KySrUpd4GxgdJG7j-306" edge="1">
          <mxGeometry width="50" height="50" relative="1" as="geometry">
            <mxPoint x="2431" y="1555.4" as="sourcePoint" />
            <mxPoint x="2451" y="1555.4" as="targetPoint" />
            <Array as="points">
              <mxPoint x="2441" y="1556" />
            </Array>
          </mxGeometry>
        </mxCell>
        <mxCell id="0Ns2KySrUpd4GxgdJG7j-320" value="" style="endArrow=classic;html=1;rounded=0;strokeColor=default;align=center;verticalAlign=middle;fontFamily=Helvetica;fontSize=11;fontColor=default;labelBackgroundColor=default;edgeStyle=orthogonalEdgeStyle;endSize=4;" parent="1" edge="1">
          <mxGeometry width="50" height="50" relative="1" as="geometry">
            <mxPoint x="2421" y="1635" as="sourcePoint" />
            <mxPoint x="2451" y="1634.8" as="targetPoint" />
            <Array as="points">
              <mxPoint x="2431" y="1634.8" />
              <mxPoint x="2431" y="1634.8" />
            </Array>
          </mxGeometry>
        </mxCell>
        <mxCell id="0Ns2KySrUpd4GxgdJG7j-321" value="" style="shape=trapezoid;perimeter=trapezoidPerimeter;whiteSpace=wrap;html=1;fixedSize=1;rotation=90;size=14.103448275862092;" parent="1" vertex="1">
          <mxGeometry x="2376" y="1620" width="60" height="30" as="geometry" />
        </mxCell>
        <mxCell id="0Ns2KySrUpd4GxgdJG7j-322" value="0" style="text;html=1;align=center;verticalAlign=middle;resizable=0;points=[];autosize=1;strokeColor=none;fillColor=none;fontFamily=Helvetica;fontSize=11;fontColor=#999999;labelBackgroundColor=none;allowArrows=0;connectable=0;imageAspect=0;pointerEvents=0;deletable=0;" parent="1" vertex="1">
          <mxGeometry x="2382" y="1601.5" width="30" height="30" as="geometry" />
        </mxCell>
        <mxCell id="0Ns2KySrUpd4GxgdJG7j-323" value="1" style="text;html=1;align=center;verticalAlign=middle;resizable=0;points=[];autosize=1;strokeColor=none;fillColor=none;fontFamily=Helvetica;fontSize=11;fontColor=#999999;labelBackgroundColor=none;allowArrows=0;connectable=0;imageAspect=0;pointerEvents=0;deletable=0;" parent="1" vertex="1">
          <mxGeometry x="2382" y="1638" width="30" height="30" as="geometry" />
        </mxCell>
        <mxCell id="0Ns2KySrUpd4GxgdJG7j-324" style="edgeStyle=orthogonalEdgeStyle;shape=connector;rounded=0;orthogonalLoop=1;jettySize=auto;html=1;exitX=0.5;exitY=0;exitDx=0;exitDy=0;strokeColor=default;align=center;verticalAlign=middle;fontFamily=Helvetica;fontSize=12;fontColor=default;labelBackgroundColor=none;autosize=1;resizable=1;endArrow=classic;endSize=4;" parent="1" source="0Ns2KySrUpd4GxgdJG7j-325" edge="1">
          <mxGeometry relative="1" as="geometry">
            <mxPoint x="2391" y="1655" as="targetPoint" />
            <Array as="points">
              <mxPoint x="2381" y="1655" />
              <mxPoint x="2381" y="1655" />
            </Array>
          </mxGeometry>
        </mxCell>
        <mxCell id="0Ns2KySrUpd4GxgdJG7j-325" value="" style="shape=trapezoid;perimeter=trapezoidPerimeter;whiteSpace=wrap;html=1;fixedSize=1;rotation=90;size=14.103448275862092;" parent="1" vertex="1">
          <mxGeometry x="2316" y="1640" width="60" height="30" as="geometry" />
        </mxCell>
        <mxCell id="0Ns2KySrUpd4GxgdJG7j-326" value="0" style="text;html=1;align=center;verticalAlign=middle;resizable=0;points=[];autosize=1;strokeColor=none;fillColor=none;fontFamily=Helvetica;fontSize=11;fontColor=#999999;labelBackgroundColor=none;allowArrows=0;connectable=0;imageAspect=0;pointerEvents=0;deletable=0;" parent="1" vertex="1">
          <mxGeometry x="2323" y="1629.5" width="30" height="30" as="geometry" />
        </mxCell>
        <mxCell id="0Ns2KySrUpd4GxgdJG7j-327" value="1" style="text;html=1;align=center;verticalAlign=middle;resizable=0;points=[];autosize=1;strokeColor=none;fillColor=none;fontFamily=Helvetica;fontSize=11;fontColor=#999999;labelBackgroundColor=none;allowArrows=0;connectable=0;imageAspect=0;pointerEvents=0;deletable=0;" parent="1" vertex="1">
          <mxGeometry x="2323" y="1649.5" width="30" height="30" as="geometry" />
        </mxCell>
        <mxCell id="0Ns2KySrUpd4GxgdJG7j-328" value="" style="endArrow=classic;html=1;rounded=0;strokeColor=#4C0099;align=center;verticalAlign=middle;fontFamily=Helvetica;fontSize=11;fontColor=default;labelBackgroundColor=default;edgeStyle=orthogonalEdgeStyle;endSize=4;entryX=0.107;entryY=1;entryDx=0;entryDy=0;entryPerimeter=0;" parent="1" edge="1">
          <mxGeometry width="50" height="50" relative="1" as="geometry">
            <mxPoint x="2261" y="1775" as="sourcePoint" />
            <mxPoint x="2391" y="1615.01" as="targetPoint" />
            <Array as="points">
              <mxPoint x="2381" y="1615.01" />
              <mxPoint x="2381" y="1615.01" />
            </Array>
          </mxGeometry>
        </mxCell>
        <mxCell id="0Ns2KySrUpd4GxgdJG7j-330" style="edgeStyle=orthogonalEdgeStyle;shape=connector;rounded=0;orthogonalLoop=1;jettySize=auto;html=1;exitX=0.5;exitY=0;exitDx=0;exitDy=0;entryX=1;entryY=0.5;entryDx=0;entryDy=0;strokeColor=default;align=center;verticalAlign=middle;fontFamily=Helvetica;fontSize=12;fontColor=default;labelBackgroundColor=none;autosize=1;resizable=1;endArrow=classic;endSize=4;" parent="1" source="0Ns2KySrUpd4GxgdJG7j-331" target="0Ns2KySrUpd4GxgdJG7j-325" edge="1">
          <mxGeometry relative="1" as="geometry" />
        </mxCell>
        <mxCell id="0Ns2KySrUpd4GxgdJG7j-331" value="&lt;p style=&quot;line-height: 0%;&quot;&gt;&lt;b&gt;&amp;gt;&lt;/b&gt;&lt;/p&gt;&lt;p style=&quot;line-height: 0%;&quot;&gt;&lt;b&gt;&lt;br&gt;&lt;/b&gt;&lt;/p&gt;&lt;p&gt;&lt;/p&gt;" style="rounded=1;whiteSpace=wrap;html=1;" parent="1" vertex="1">
          <mxGeometry x="2331" y="1695" width="30" height="30" as="geometry" />
        </mxCell>
        <mxCell id="0Ns2KySrUpd4GxgdJG7j-332" value="" style="endArrow=classic;html=1;rounded=0;strokeColor=#99004D;align=center;verticalAlign=middle;fontFamily=Helvetica;fontSize=11;fontColor=default;labelBackgroundColor=default;edgeStyle=orthogonalEdgeStyle;endSize=4;entryX=0.107;entryY=1;entryDx=0;entryDy=0;entryPerimeter=0;" parent="1" edge="1">
          <mxGeometry width="50" height="50" relative="1" as="geometry">
            <mxPoint x="2211" y="1705" as="sourcePoint" />
            <mxPoint x="2331" y="1705.5" as="targetPoint" />
            <Array as="points">
              <mxPoint x="2321" y="1705.5" />
              <mxPoint x="2321" y="1705.5" />
            </Array>
          </mxGeometry>
        </mxCell>
        <mxCell id="0Ns2KySrUpd4GxgdJG7j-334" value="" style="endArrow=classic;html=1;rounded=0;strokeColor=#4C0099;align=center;verticalAlign=middle;fontFamily=Helvetica;fontSize=11;fontColor=default;labelBackgroundColor=default;edgeStyle=orthogonalEdgeStyle;endSize=4;entryX=0.107;entryY=1;entryDx=0;entryDy=0;entryPerimeter=0;" parent="1" edge="1">
          <mxGeometry width="50" height="50" relative="1" as="geometry">
            <mxPoint x="2261" y="1715" as="sourcePoint" />
            <mxPoint x="2331" y="1715.01" as="targetPoint" />
            <Array as="points">
              <mxPoint x="2321" y="1715.01" />
              <mxPoint x="2321" y="1715.01" />
            </Array>
          </mxGeometry>
        </mxCell>
        <mxCell id="0Ns2KySrUpd4GxgdJG7j-336" value="(a&amp;gt;b)" style="text;html=1;align=center;verticalAlign=middle;resizable=0;points=[];autosize=1;strokeColor=none;fillColor=none;fontFamily=Helvetica;fontSize=7;fontColor=#999999;labelBackgroundColor=none;allowArrows=0;connectable=0;imageAspect=0;pointerEvents=0;deletable=1;" parent="1" vertex="1">
          <mxGeometry x="2326" y="1709" width="40" height="20" as="geometry" />
        </mxCell>
        <mxCell id="0Ns2KySrUpd4GxgdJG7j-337" value="b" style="text;html=1;align=center;verticalAlign=middle;resizable=0;points=[];autosize=1;strokeColor=none;fillColor=none;fontFamily=Helvetica;fontSize=9;fontColor=#999999;labelBackgroundColor=none;allowArrows=0;connectable=0;imageAspect=0;pointerEvents=0;deletable=0;" parent="1" vertex="1">
          <mxGeometry x="2320" y="1705" width="30" height="20" as="geometry" />
        </mxCell>
        <mxCell id="0Ns2KySrUpd4GxgdJG7j-338" value="a" style="text;html=1;align=center;verticalAlign=middle;resizable=0;points=[];autosize=1;strokeColor=none;fillColor=none;fontFamily=Helvetica;fontSize=9;fontColor=#999999;labelBackgroundColor=none;allowArrows=0;connectable=0;imageAspect=0;pointerEvents=0;deletable=0;" parent="1" vertex="1">
          <mxGeometry x="2320" y="1694" width="30" height="20" as="geometry" />
        </mxCell>
        <mxCell id="0Ns2KySrUpd4GxgdJG7j-339" value="" style="endArrow=classic;html=1;rounded=0;strokeColor=default;align=center;verticalAlign=middle;fontFamily=Helvetica;fontSize=11;fontColor=default;labelBackgroundColor=default;edgeStyle=orthogonalEdgeStyle;endSize=4;entryX=0.107;entryY=1;entryDx=0;entryDy=0;entryPerimeter=0;" parent="1" edge="1">
          <mxGeometry width="50" height="50" relative="1" as="geometry">
            <mxPoint x="2311" y="1645" as="sourcePoint" />
            <mxPoint x="2331" y="1645" as="targetPoint" />
            <Array as="points">
              <mxPoint x="2321" y="1645" />
              <mxPoint x="2321" y="1645" />
            </Array>
          </mxGeometry>
        </mxCell>
        <mxCell id="0Ns2KySrUpd4GxgdJG7j-340" value="" style="endArrow=classic;html=1;rounded=0;strokeColor=#4C0099;align=center;verticalAlign=middle;fontFamily=Helvetica;fontSize=11;fontColor=default;labelBackgroundColor=default;edgeStyle=orthogonalEdgeStyle;endSize=4;entryX=0.107;entryY=1;entryDx=0;entryDy=0;entryPerimeter=0;" parent="1" edge="1">
          <mxGeometry width="50" height="50" relative="1" as="geometry">
            <mxPoint x="2261" y="1665" as="sourcePoint" />
            <mxPoint x="2331" y="1665.51" as="targetPoint" />
            <Array as="points">
              <mxPoint x="2321" y="1665.51" />
              <mxPoint x="2321" y="1665.51" />
            </Array>
          </mxGeometry>
        </mxCell>
        <mxCell id="0Ns2KySrUpd4GxgdJG7j-342" value="&lt;p style=&quot;line-height: 0%;&quot;&gt;&lt;b&gt;–&lt;/b&gt;&lt;/p&gt;&lt;p style=&quot;line-height: 0%;&quot;&gt;&lt;b&gt;&lt;br&gt;&lt;/b&gt;&lt;/p&gt;&lt;p&gt;&lt;/p&gt;" style="rounded=1;whiteSpace=wrap;html=1;" parent="1" vertex="1">
          <mxGeometry x="2281" y="1625" width="30" height="30" as="geometry" />
        </mxCell>
        <mxCell id="0Ns2KySrUpd4GxgdJG7j-343" value="(a-b)" style="text;html=1;align=center;verticalAlign=middle;resizable=0;points=[];autosize=1;strokeColor=none;fillColor=none;fontFamily=Helvetica;fontSize=7;fontColor=#999999;labelBackgroundColor=none;allowArrows=0;connectable=0;imageAspect=0;pointerEvents=0;deletable=1;" parent="1" vertex="1">
          <mxGeometry x="2276" y="1637.5" width="40" height="20" as="geometry" />
        </mxCell>
        <mxCell id="0Ns2KySrUpd4GxgdJG7j-344" value="b" style="text;html=1;align=center;verticalAlign=middle;resizable=0;points=[];autosize=1;strokeColor=none;fillColor=none;fontFamily=Helvetica;fontSize=9;fontColor=#999999;labelBackgroundColor=none;allowArrows=0;connectable=0;imageAspect=0;pointerEvents=0;deletable=0;" parent="1" vertex="1">
          <mxGeometry x="2270" y="1633.5" width="30" height="20" as="geometry" />
        </mxCell>
        <mxCell id="0Ns2KySrUpd4GxgdJG7j-345" value="a" style="text;html=1;align=center;verticalAlign=middle;resizable=0;points=[];autosize=1;strokeColor=none;fillColor=none;fontFamily=Helvetica;fontSize=9;fontColor=#999999;labelBackgroundColor=none;allowArrows=0;connectable=0;imageAspect=0;pointerEvents=0;deletable=0;" parent="1" vertex="1">
          <mxGeometry x="2270" y="1622.5" width="30" height="20" as="geometry" />
        </mxCell>
        <mxCell id="0Ns2KySrUpd4GxgdJG7j-348" value="" style="endArrow=classic;html=1;rounded=0;strokeColor=#4C0099;align=center;verticalAlign=middle;fontFamily=Helvetica;fontSize=11;fontColor=default;labelBackgroundColor=default;edgeStyle=orthogonalEdgeStyle;endSize=4;entryX=0.107;entryY=1;entryDx=0;entryDy=0;entryPerimeter=0;" parent="1" edge="1">
          <mxGeometry width="50" height="50" relative="1" as="geometry">
            <mxPoint x="2261" y="1644.51" as="sourcePoint" />
            <mxPoint x="2281" y="1644.51" as="targetPoint" />
            <Array as="points">
              <mxPoint x="2271" y="1644.51" />
              <mxPoint x="2271" y="1644.51" />
            </Array>
          </mxGeometry>
        </mxCell>
        <mxCell id="0Ns2KySrUpd4GxgdJG7j-350" value="" style="endArrow=classic;html=1;rounded=0;strokeColor=#4C0099;align=center;verticalAlign=middle;fontFamily=Helvetica;fontSize=11;fontColor=default;labelBackgroundColor=default;edgeStyle=orthogonalEdgeStyle;endSize=4;" parent="1" edge="1">
          <mxGeometry width="50" height="50" relative="1" as="geometry">
            <mxPoint x="2431" y="1775" as="sourcePoint" />
            <mxPoint x="2451" y="1695" as="targetPoint" />
            <Array as="points">
              <mxPoint x="2431" y="1695" />
              <mxPoint x="2431" y="1695" />
            </Array>
          </mxGeometry>
        </mxCell>
        <mxCell id="0Ns2KySrUpd4GxgdJG7j-351" value="" style="endArrow=classic;html=1;rounded=0;strokeColor=#4C0099;align=center;verticalAlign=middle;fontFamily=Helvetica;fontSize=11;fontColor=default;labelBackgroundColor=default;edgeStyle=orthogonalEdgeStyle;endSize=4;" parent="1" edge="1">
          <mxGeometry width="50" height="50" relative="1" as="geometry">
            <mxPoint x="2431" y="1725" as="sourcePoint" />
            <mxPoint x="2451" y="1725" as="targetPoint" />
            <Array as="points">
              <mxPoint x="2431" y="1725" />
              <mxPoint x="2431" y="1725" />
            </Array>
          </mxGeometry>
        </mxCell>
        <mxCell id="0Ns2KySrUpd4GxgdJG7j-352" value="d" style="text;html=1;align=center;verticalAlign=middle;resizable=0;points=[];autosize=1;strokeColor=none;fillColor=none;fontFamily=Helvetica;fontSize=14;fontColor=#009900;connectable=1;pointerEvents=0;" parent="1" vertex="1">
          <mxGeometry x="2562" y="1610" width="30" height="30" as="geometry" />
        </mxCell>
        <mxCell id="0Ns2KySrUpd4GxgdJG7j-353" value="0" style="text;html=1;align=center;verticalAlign=middle;resizable=0;points=[];autosize=1;strokeColor=none;fillColor=none;fontFamily=Helvetica;fontSize=11;fontColor=#999999;labelBackgroundColor=none;allowArrows=0;connectable=0;imageAspect=0;pointerEvents=0;deletable=0;" parent="1" vertex="1">
          <mxGeometry x="2443" y="1540.5" width="30" height="30" as="geometry" />
        </mxCell>
        <mxCell id="0Ns2KySrUpd4GxgdJG7j-354" value="1" style="text;html=1;align=center;verticalAlign=middle;resizable=0;points=[];autosize=1;strokeColor=none;fillColor=none;fontFamily=Helvetica;fontSize=11;fontColor=#999999;labelBackgroundColor=none;allowArrows=0;connectable=0;imageAspect=0;pointerEvents=0;deletable=0;" parent="1" vertex="1">
          <mxGeometry x="2443" y="1620" width="30" height="30" as="geometry" />
        </mxCell>
        <mxCell id="0Ns2KySrUpd4GxgdJG7j-355" value="2" style="text;html=1;align=center;verticalAlign=middle;resizable=0;points=[];autosize=1;strokeColor=none;fillColor=none;fontFamily=Helvetica;fontSize=11;fontColor=#999999;labelBackgroundColor=none;allowArrows=0;connectable=0;imageAspect=0;pointerEvents=0;deletable=0;" parent="1" vertex="1">
          <mxGeometry x="2443" y="1679.5" width="30" height="30" as="geometry" />
        </mxCell>
        <mxCell id="0Ns2KySrUpd4GxgdJG7j-356" value="3" style="text;html=1;align=center;verticalAlign=middle;resizable=0;points=[];autosize=1;strokeColor=none;fillColor=none;fontFamily=Helvetica;fontSize=11;fontColor=#999999;labelBackgroundColor=none;allowArrows=0;connectable=0;imageAspect=0;pointerEvents=0;deletable=0;" parent="1" vertex="1">
          <mxGeometry x="2443" y="1709.5" width="30" height="30" as="geometry" />
        </mxCell>
        <mxCell id="0Ns2KySrUpd4GxgdJG7j-361" value="clk" style="text;html=1;align=center;verticalAlign=middle;resizable=0;points=[];autosize=1;strokeColor=none;fillColor=none;fontFamily=Helvetica;fontSize=12;fontColor=default;" parent="1" vertex="1">
          <mxGeometry x="2521" y="1697" width="40" height="30" as="geometry" />
        </mxCell>
        <mxCell id="0Ns2KySrUpd4GxgdJG7j-362" style="edgeStyle=orthogonalEdgeStyle;shape=connector;rounded=0;orthogonalLoop=1;jettySize=auto;html=1;strokeColor=default;align=center;verticalAlign=middle;fontFamily=Helvetica;fontSize=12;fontColor=default;labelBackgroundColor=none;autosize=1;resizable=1;endArrow=classic;endSize=4;" parent="1" edge="1">
          <mxGeometry relative="1" as="geometry">
            <mxPoint x="2471" y="1525" as="targetPoint" />
            <mxPoint x="2081" y="1465" as="sourcePoint" />
            <Array as="points">
              <mxPoint x="2081" y="1465" />
              <mxPoint x="2471" y="1465" />
            </Array>
          </mxGeometry>
        </mxCell>
        <mxCell id="0Ns2KySrUpd4GxgdJG7j-364" value="" style="ellipse;whiteSpace=wrap;html=1;aspect=fixed;fontFamily=Helvetica;fontSize=11;fontColor=default;labelBackgroundColor=default;fillColor=#000000;strokeColor=none;align=center;verticalAlign=middle;" parent="1" vertex="1">
          <mxGeometry x="2099" y="1463" width="4" height="4" as="geometry" />
        </mxCell>
        <mxCell id="0Ns2KySrUpd4GxgdJG7j-365" style="edgeStyle=orthogonalEdgeStyle;shape=connector;rounded=0;orthogonalLoop=1;jettySize=auto;html=1;entryX=1;entryY=0.5;entryDx=0;entryDy=0;strokeColor=default;align=center;verticalAlign=middle;fontFamily=Helvetica;fontSize=12;fontColor=default;labelBackgroundColor=none;autosize=1;resizable=1;endArrow=classic;endSize=4;" parent="1" edge="1">
          <mxGeometry relative="1" as="geometry">
            <mxPoint x="2036" y="1785" as="sourcePoint" />
            <mxPoint x="2035.89" y="1658" as="targetPoint" />
          </mxGeometry>
        </mxCell>
        <mxCell id="0Ns2KySrUpd4GxgdJG7j-367" style="edgeStyle=orthogonalEdgeStyle;shape=connector;rounded=0;orthogonalLoop=1;jettySize=auto;html=1;entryX=1;entryY=0.5;entryDx=0;entryDy=0;strokeColor=default;align=center;verticalAlign=middle;fontFamily=Helvetica;fontSize=12;fontColor=default;labelBackgroundColor=none;autosize=1;resizable=1;endArrow=classic;endSize=4;" parent="1" edge="1">
          <mxGeometry relative="1" as="geometry">
            <mxPoint x="2011" y="1785" as="sourcePoint" />
            <mxPoint x="2405.8900000000003" y="1658" as="targetPoint" />
            <Array as="points">
              <mxPoint x="2406" y="1785" />
            </Array>
          </mxGeometry>
        </mxCell>
        <mxCell id="0Ns2KySrUpd4GxgdJG7j-368" value="" style="ellipse;whiteSpace=wrap;html=1;aspect=fixed;fontFamily=Helvetica;fontSize=11;fontColor=default;labelBackgroundColor=default;fillColor=#000000;strokeColor=none;align=center;verticalAlign=middle;" parent="1" vertex="1">
          <mxGeometry x="2004" y="1493" width="4" height="4" as="geometry" />
        </mxCell>
        <mxCell id="0Ns2KySrUpd4GxgdJG7j-369" value="" style="endArrow=classic;html=1;rounded=0;strokeColor=#99004D;align=center;verticalAlign=middle;fontFamily=Helvetica;fontSize=11;fontColor=default;labelBackgroundColor=default;edgeStyle=orthogonalEdgeStyle;endSize=4;" parent="1" edge="1">
          <mxGeometry width="50" height="50" relative="1" as="geometry">
            <mxPoint x="2211" y="1635" as="sourcePoint" />
            <mxPoint x="2021" y="1625" as="targetPoint" />
            <Array as="points">
              <mxPoint x="2211" y="1765" />
              <mxPoint x="1891" y="1765" />
              <mxPoint x="1891" y="1625" />
            </Array>
          </mxGeometry>
        </mxCell>
        <mxCell id="0Ns2KySrUpd4GxgdJG7j-370" value="" style="ellipse;whiteSpace=wrap;html=1;aspect=fixed;fontFamily=Helvetica;fontSize=11;fontColor=default;labelBackgroundColor=default;fillColor=#99004D;strokeColor=none;align=center;verticalAlign=middle;" parent="1" vertex="1">
          <mxGeometry x="2209" y="1633" width="4" height="4" as="geometry" />
        </mxCell>
        <mxCell id="0Ns2KySrUpd4GxgdJG7j-373" value="" style="ellipse;whiteSpace=wrap;html=1;aspect=fixed;fontFamily=Helvetica;fontSize=11;fontColor=default;labelBackgroundColor=default;fillColor=#99004D;strokeColor=none;align=center;verticalAlign=middle;" parent="1" vertex="1">
          <mxGeometry x="1889" y="1643" width="4" height="4" as="geometry" />
        </mxCell>
        <mxCell id="0Ns2KySrUpd4GxgdJG7j-374" value="" style="ellipse;whiteSpace=wrap;html=1;aspect=fixed;fontFamily=Helvetica;fontSize=11;fontColor=default;labelBackgroundColor=default;fillColor=#99004D;strokeColor=none;align=center;verticalAlign=middle;" parent="1" vertex="1">
          <mxGeometry x="1889" y="1662" width="4" height="4" as="geometry" />
        </mxCell>
        <mxCell id="0Ns2KySrUpd4GxgdJG7j-375" value="" style="ellipse;whiteSpace=wrap;html=1;aspect=fixed;fontFamily=Helvetica;fontSize=11;fontColor=default;labelBackgroundColor=default;fillColor=#99004D;strokeColor=none;align=center;verticalAlign=middle;" parent="1" vertex="1">
          <mxGeometry x="1889" y="1703" width="4" height="4" as="geometry" />
        </mxCell>
        <mxCell id="0Ns2KySrUpd4GxgdJG7j-376" value="" style="ellipse;whiteSpace=wrap;html=1;aspect=fixed;fontFamily=Helvetica;fontSize=11;fontColor=default;labelBackgroundColor=default;fillColor=#99004D;strokeColor=none;align=center;verticalAlign=middle;" parent="1" vertex="1">
          <mxGeometry x="2059" y="1723" width="4" height="4" as="geometry" />
        </mxCell>
        <mxCell id="0Ns2KySrUpd4GxgdJG7j-377" value="" style="ellipse;whiteSpace=wrap;html=1;aspect=fixed;fontFamily=Helvetica;fontSize=11;fontColor=default;labelBackgroundColor=default;fillColor=#99004D;strokeColor=none;align=center;verticalAlign=middle;" parent="1" vertex="1">
          <mxGeometry x="2059" y="1763" width="4" height="4" as="geometry" />
        </mxCell>
        <mxCell id="0Ns2KySrUpd4GxgdJG7j-378" style="edgeStyle=orthogonalEdgeStyle;shape=connector;rounded=0;orthogonalLoop=1;jettySize=auto;html=1;exitX=0.5;exitY=0;exitDx=0;exitDy=0;strokeColor=#4C0099;align=center;verticalAlign=middle;fontFamily=Helvetica;fontSize=11;fontColor=default;labelBackgroundColor=default;endArrow=classic;endSize=4;autosize=1;resizable=1;" parent="1" edge="1">
          <mxGeometry relative="1" as="geometry">
            <mxPoint x="1911" y="1675" as="targetPoint" />
            <mxPoint x="2571" y="1635.5" as="sourcePoint" />
            <Array as="points">
              <mxPoint x="2581" y="1636" />
              <mxPoint x="2581" y="1775" />
              <mxPoint x="1881" y="1775" />
              <mxPoint x="1881" y="1675" />
            </Array>
          </mxGeometry>
        </mxCell>
        <mxCell id="0Ns2KySrUpd4GxgdJG7j-379" value="" style="ellipse;whiteSpace=wrap;html=1;aspect=fixed;fontFamily=Helvetica;fontSize=11;fontColor=default;labelBackgroundColor=default;fillColor=#4C0099;strokeColor=none;align=center;verticalAlign=middle;" parent="1" vertex="1">
          <mxGeometry x="1879" y="1713" width="4" height="4" as="geometry" />
        </mxCell>
        <mxCell id="0Ns2KySrUpd4GxgdJG7j-380" value="" style="ellipse;whiteSpace=wrap;html=1;aspect=fixed;fontFamily=Helvetica;fontSize=11;fontColor=default;labelBackgroundColor=default;fillColor=#4C0099;strokeColor=none;align=center;verticalAlign=middle;" parent="1" vertex="1">
          <mxGeometry x="2429" y="1723" width="4" height="4" as="geometry" />
        </mxCell>
        <mxCell id="0Ns2KySrUpd4GxgdJG7j-381" value="" style="ellipse;whiteSpace=wrap;html=1;aspect=fixed;fontFamily=Helvetica;fontSize=11;fontColor=default;labelBackgroundColor=default;fillColor=#4C0099;strokeColor=none;align=center;verticalAlign=middle;" parent="1" vertex="1">
          <mxGeometry x="2429" y="1773" width="4" height="4" as="geometry" />
        </mxCell>
        <mxCell id="0Ns2KySrUpd4GxgdJG7j-382" value="" style="ellipse;whiteSpace=wrap;html=1;aspect=fixed;fontFamily=Helvetica;fontSize=11;fontColor=default;labelBackgroundColor=default;fillColor=#99004D;strokeColor=none;align=center;verticalAlign=middle;" parent="1" vertex="1">
          <mxGeometry x="2209" y="1703" width="4" height="4" as="geometry" />
        </mxCell>
        <mxCell id="0Ns2KySrUpd4GxgdJG7j-384" value="" style="ellipse;whiteSpace=wrap;html=1;aspect=fixed;fontFamily=Helvetica;fontSize=11;fontColor=default;labelBackgroundColor=default;fillColor=#4C0099;strokeColor=none;align=center;verticalAlign=middle;" parent="1" vertex="1">
          <mxGeometry x="2259" y="1663" width="4" height="4" as="geometry" />
        </mxCell>
        <mxCell id="0Ns2KySrUpd4GxgdJG7j-385" value="" style="ellipse;whiteSpace=wrap;html=1;aspect=fixed;fontFamily=Helvetica;fontSize=11;fontColor=default;labelBackgroundColor=default;fillColor=#4C0099;strokeColor=none;align=center;verticalAlign=middle;fontStyle=1" parent="1" vertex="1">
          <mxGeometry x="2259" y="1713" width="4" height="4" as="geometry" />
        </mxCell>
        <mxCell id="0Ns2KySrUpd4GxgdJG7j-386" value="" style="ellipse;whiteSpace=wrap;html=1;aspect=fixed;fontFamily=Helvetica;fontSize=11;fontColor=default;labelBackgroundColor=default;fillColor=#4C0099;strokeColor=none;align=center;verticalAlign=middle;" parent="1" vertex="1">
          <mxGeometry x="2259" y="1642" width="4" height="4" as="geometry" />
        </mxCell>
        <mxCell id="0Ns2KySrUpd4GxgdJG7j-391" value="" style="ellipse;whiteSpace=wrap;html=1;aspect=fixed;fontFamily=Helvetica;fontSize=11;fontColor=default;labelBackgroundColor=default;fillColor=#000000;strokeColor=none;align=center;verticalAlign=middle;" parent="1" vertex="1">
          <mxGeometry x="2034" y="1783" width="4" height="4" as="geometry" />
        </mxCell>
        <mxCell id="WAmQgtdZ2m0MMh2K5OEY-12" value="" style="group;fontFamily=Helvetica;fontSize=11;fontColor=default;labelBackgroundColor=default;strokeColor=none;align=center;verticalAlign=middle;fillColor=none;" parent="1" vertex="1" connectable="0">
          <mxGeometry x="1266" y="999" width="31" height="35" as="geometry" />
        </mxCell>
        <mxCell id="WAmQgtdZ2m0MMh2K5OEY-13" value="16" style="text;html=1;align=center;verticalAlign=middle;resizable=0;points=[];autosize=1;strokeColor=none;fillColor=none;fontFamily=Helvetica;fontSize=8;fontColor=default;labelBackgroundColor=none;" parent="WAmQgtdZ2m0MMh2K5OEY-12" vertex="1">
          <mxGeometry x="-6" y="11" width="30" height="20" as="geometry" />
        </mxCell>
        <mxCell id="WAmQgtdZ2m0MMh2K5OEY-14" value="" style="endArrow=none;html=1;rounded=0;strokeColor=default;align=center;verticalAlign=middle;fontFamily=Helvetica;fontSize=11;fontColor=default;labelBackgroundColor=default;autosize=1;resizable=0;endSize=4;" parent="WAmQgtdZ2m0MMh2K5OEY-12" edge="1">
          <mxGeometry width="50" height="50" relative="1" as="geometry">
            <mxPoint x="12" y="31" as="sourcePoint" />
            <mxPoint x="16" y="21" as="targetPoint" />
          </mxGeometry>
        </mxCell>
        <mxCell id="WAmQgtdZ2m0MMh2K5OEY-15" value="" style="group" parent="1" vertex="1" connectable="0">
          <mxGeometry x="1266" y="1027" width="30" height="30" as="geometry" />
        </mxCell>
        <mxCell id="WAmQgtdZ2m0MMh2K5OEY-16" value="&lt;font style=&quot;font-size: 8px;&quot;&gt;16&lt;/font&gt;" style="text;html=1;align=center;verticalAlign=middle;resizable=0;points=[];autosize=1;strokeColor=none;fillColor=none;fontFamily=Helvetica;fontSize=11;fontColor=default;labelBackgroundColor=none;" parent="WAmQgtdZ2m0MMh2K5OEY-15" vertex="1">
          <mxGeometry width="30" height="30" as="geometry" />
        </mxCell>
        <mxCell id="WAmQgtdZ2m0MMh2K5OEY-17" value="" style="endArrow=none;html=1;rounded=0;strokeColor=default;align=center;verticalAlign=middle;fontFamily=Helvetica;fontSize=11;fontColor=default;labelBackgroundColor=default;autosize=1;resizable=0;endSize=4;" parent="WAmQgtdZ2m0MMh2K5OEY-15" edge="1">
          <mxGeometry width="50" height="50" relative="1" as="geometry">
            <mxPoint x="12" y="13" as="sourcePoint" />
            <mxPoint x="16" y="3" as="targetPoint" />
          </mxGeometry>
        </mxCell>
        <mxCell id="WAmQgtdZ2m0MMh2K5OEY-18" value="" style="group;fontFamily=Helvetica;fontSize=11;fontColor=default;labelBackgroundColor=default;strokeColor=none;align=center;verticalAlign=middle;fillColor=none;" parent="1" vertex="1" connectable="0">
          <mxGeometry x="1126" y="1248" width="30" height="35" as="geometry" />
        </mxCell>
        <mxCell id="WAmQgtdZ2m0MMh2K5OEY-19" value="2" style="text;html=1;align=center;verticalAlign=middle;resizable=0;points=[];autosize=1;strokeColor=none;fillColor=none;fontFamily=Helvetica;fontSize=11;fontColor=default;labelBackgroundColor=none;" parent="WAmQgtdZ2m0MMh2K5OEY-18" vertex="1">
          <mxGeometry x="-4" y="5" width="30" height="30" as="geometry" />
        </mxCell>
        <mxCell id="WAmQgtdZ2m0MMh2K5OEY-20" value="" style="endArrow=none;html=1;rounded=0;strokeColor=default;align=center;verticalAlign=middle;fontFamily=Helvetica;fontSize=11;fontColor=default;labelBackgroundColor=default;autosize=1;resizable=0;endSize=4;" parent="WAmQgtdZ2m0MMh2K5OEY-18" edge="1">
          <mxGeometry width="50" height="50" relative="1" as="geometry">
            <mxPoint x="12" y="31" as="sourcePoint" />
            <mxPoint x="16" y="21" as="targetPoint" />
          </mxGeometry>
        </mxCell>
        <mxCell id="WAmQgtdZ2m0MMh2K5OEY-21" value="" style="group;fontFamily=Helvetica;fontSize=11;fontColor=default;labelBackgroundColor=default;strokeColor=none;align=center;verticalAlign=middle;fillColor=none;" parent="1" vertex="1" connectable="0">
          <mxGeometry x="1207" y="1249" width="30" height="35" as="geometry" />
        </mxCell>
        <mxCell id="WAmQgtdZ2m0MMh2K5OEY-22" value="2" style="text;html=1;align=center;verticalAlign=middle;resizable=0;points=[];autosize=1;strokeColor=none;fillColor=none;fontFamily=Helvetica;fontSize=11;fontColor=default;labelBackgroundColor=none;" parent="WAmQgtdZ2m0MMh2K5OEY-21" vertex="1">
          <mxGeometry x="-4" y="5" width="30" height="30" as="geometry" />
        </mxCell>
        <mxCell id="WAmQgtdZ2m0MMh2K5OEY-23" value="" style="endArrow=none;html=1;rounded=0;strokeColor=default;align=center;verticalAlign=middle;fontFamily=Helvetica;fontSize=11;fontColor=default;labelBackgroundColor=default;autosize=1;resizable=0;endSize=4;" parent="WAmQgtdZ2m0MMh2K5OEY-21" edge="1">
          <mxGeometry width="50" height="50" relative="1" as="geometry">
            <mxPoint x="12" y="31" as="sourcePoint" />
            <mxPoint x="16" y="21" as="targetPoint" />
          </mxGeometry>
        </mxCell>
        <mxCell id="WAmQgtdZ2m0MMh2K5OEY-24" value="" style="group;fontFamily=Helvetica;fontSize=11;fontColor=default;labelBackgroundColor=default;strokeColor=none;align=center;verticalAlign=middle;fillColor=none;" parent="1" vertex="1" connectable="0">
          <mxGeometry x="1076" y="1239" width="30" height="35" as="geometry" />
        </mxCell>
        <mxCell id="WAmQgtdZ2m0MMh2K5OEY-25" value="2" style="text;html=1;align=center;verticalAlign=middle;resizable=0;points=[];autosize=1;strokeColor=none;fillColor=none;fontFamily=Helvetica;fontSize=11;fontColor=default;labelBackgroundColor=none;" parent="WAmQgtdZ2m0MMh2K5OEY-24" vertex="1">
          <mxGeometry x="-4" y="5" width="30" height="30" as="geometry" />
        </mxCell>
        <mxCell id="WAmQgtdZ2m0MMh2K5OEY-26" value="" style="endArrow=none;html=1;rounded=0;strokeColor=default;align=center;verticalAlign=middle;fontFamily=Helvetica;fontSize=11;fontColor=default;labelBackgroundColor=default;autosize=1;resizable=0;endSize=4;" parent="WAmQgtdZ2m0MMh2K5OEY-24" edge="1">
          <mxGeometry width="50" height="50" relative="1" as="geometry">
            <mxPoint x="12" y="31" as="sourcePoint" />
            <mxPoint x="16" y="21" as="targetPoint" />
          </mxGeometry>
        </mxCell>
        <mxCell id="WAmQgtdZ2m0MMh2K5OEY-27" value="" style="group;fontFamily=Helvetica;fontSize=11;fontColor=default;labelBackgroundColor=default;strokeColor=none;align=center;verticalAlign=middle;fillColor=none;" parent="1" vertex="1" connectable="0">
          <mxGeometry x="1547" y="1090" width="30" height="35" as="geometry" />
        </mxCell>
        <mxCell id="WAmQgtdZ2m0MMh2K5OEY-28" value="2" style="text;html=1;align=center;verticalAlign=middle;resizable=0;points=[];autosize=1;strokeColor=none;fillColor=none;fontFamily=Helvetica;fontSize=11;fontColor=default;labelBackgroundColor=none;" parent="WAmQgtdZ2m0MMh2K5OEY-27" vertex="1">
          <mxGeometry x="3" y="17" width="30" height="30" as="geometry" />
        </mxCell>
        <mxCell id="WAmQgtdZ2m0MMh2K5OEY-29" value="" style="endArrow=none;html=1;rounded=0;strokeColor=default;align=center;verticalAlign=middle;fontFamily=Helvetica;fontSize=11;fontColor=default;labelBackgroundColor=default;autosize=1;resizable=0;endSize=4;" parent="WAmQgtdZ2m0MMh2K5OEY-27" edge="1">
          <mxGeometry width="50" height="50" relative="1" as="geometry">
            <mxPoint x="12" y="31" as="sourcePoint" />
            <mxPoint x="16" y="21" as="targetPoint" />
          </mxGeometry>
        </mxCell>
        <mxCell id="WAmQgtdZ2m0MMh2K5OEY-30" value="" style="group;fontFamily=Helvetica;fontSize=11;fontColor=default;labelBackgroundColor=default;strokeColor=none;align=center;verticalAlign=middle;fillColor=none;" parent="1" vertex="1" connectable="0">
          <mxGeometry x="1385" y="1149" width="30" height="35" as="geometry" />
        </mxCell>
        <mxCell id="WAmQgtdZ2m0MMh2K5OEY-31" value="2" style="text;html=1;align=center;verticalAlign=middle;resizable=0;points=[];autosize=1;strokeColor=none;fillColor=none;fontFamily=Helvetica;fontSize=11;fontColor=default;labelBackgroundColor=none;" parent="WAmQgtdZ2m0MMh2K5OEY-30" vertex="1">
          <mxGeometry x="-4" y="5" width="30" height="30" as="geometry" />
        </mxCell>
        <mxCell id="WAmQgtdZ2m0MMh2K5OEY-32" value="" style="endArrow=none;html=1;rounded=0;strokeColor=default;align=center;verticalAlign=middle;fontFamily=Helvetica;fontSize=11;fontColor=default;labelBackgroundColor=default;autosize=1;resizable=0;endSize=4;" parent="WAmQgtdZ2m0MMh2K5OEY-30" edge="1">
          <mxGeometry width="50" height="50" relative="1" as="geometry">
            <mxPoint x="12" y="31" as="sourcePoint" />
            <mxPoint x="16" y="21" as="targetPoint" />
          </mxGeometry>
        </mxCell>
        <mxCell id="WAmQgtdZ2m0MMh2K5OEY-33" value="" style="group;fontFamily=Helvetica;fontSize=11;fontColor=default;labelBackgroundColor=default;strokeColor=none;align=center;verticalAlign=middle;fillColor=none;" parent="1" vertex="1" connectable="0">
          <mxGeometry x="1385" y="1189" width="30" height="35" as="geometry" />
        </mxCell>
        <mxCell id="WAmQgtdZ2m0MMh2K5OEY-34" value="2" style="text;html=1;align=center;verticalAlign=middle;resizable=0;points=[];autosize=1;strokeColor=none;fillColor=none;fontFamily=Helvetica;fontSize=11;fontColor=default;labelBackgroundColor=none;" parent="WAmQgtdZ2m0MMh2K5OEY-33" vertex="1">
          <mxGeometry x="-4" y="5" width="30" height="30" as="geometry" />
        </mxCell>
        <mxCell id="WAmQgtdZ2m0MMh2K5OEY-35" value="" style="endArrow=none;html=1;rounded=0;strokeColor=default;align=center;verticalAlign=middle;fontFamily=Helvetica;fontSize=11;fontColor=default;labelBackgroundColor=default;autosize=1;resizable=0;endSize=4;" parent="WAmQgtdZ2m0MMh2K5OEY-33" edge="1">
          <mxGeometry width="50" height="50" relative="1" as="geometry">
            <mxPoint x="12" y="31" as="sourcePoint" />
            <mxPoint x="16" y="21" as="targetPoint" />
          </mxGeometry>
        </mxCell>
        <mxCell id="WAmQgtdZ2m0MMh2K5OEY-36" value="" style="group;fontFamily=Helvetica;fontSize=11;fontColor=default;labelBackgroundColor=default;strokeColor=none;align=center;verticalAlign=middle;fillColor=none;" parent="1" vertex="1" connectable="0">
          <mxGeometry x="1385" y="1049" width="30" height="35" as="geometry" />
        </mxCell>
        <mxCell id="WAmQgtdZ2m0MMh2K5OEY-37" value="2" style="text;html=1;align=center;verticalAlign=middle;resizable=0;points=[];autosize=1;strokeColor=none;fillColor=none;fontFamily=Helvetica;fontSize=11;fontColor=default;labelBackgroundColor=none;" parent="WAmQgtdZ2m0MMh2K5OEY-36" vertex="1">
          <mxGeometry x="-4" y="5" width="30" height="30" as="geometry" />
        </mxCell>
        <mxCell id="WAmQgtdZ2m0MMh2K5OEY-38" value="" style="endArrow=none;html=1;rounded=0;strokeColor=default;align=center;verticalAlign=middle;fontFamily=Helvetica;fontSize=11;fontColor=default;labelBackgroundColor=default;autosize=1;resizable=0;endSize=4;" parent="WAmQgtdZ2m0MMh2K5OEY-36" edge="1">
          <mxGeometry width="50" height="50" relative="1" as="geometry">
            <mxPoint x="12" y="31" as="sourcePoint" />
            <mxPoint x="16" y="21" as="targetPoint" />
          </mxGeometry>
        </mxCell>
        <mxCell id="WAmQgtdZ2m0MMh2K5OEY-39" value="" style="group;fontFamily=Helvetica;fontSize=11;fontColor=default;labelBackgroundColor=default;strokeColor=none;align=center;verticalAlign=middle;fillColor=none;" parent="1" vertex="1" connectable="0">
          <mxGeometry x="1385" y="1089" width="30" height="35" as="geometry" />
        </mxCell>
        <mxCell id="WAmQgtdZ2m0MMh2K5OEY-40" value="2" style="text;html=1;align=center;verticalAlign=middle;resizable=0;points=[];autosize=1;strokeColor=none;fillColor=none;fontFamily=Helvetica;fontSize=11;fontColor=default;labelBackgroundColor=none;" parent="WAmQgtdZ2m0MMh2K5OEY-39" vertex="1">
          <mxGeometry x="-4" y="5" width="30" height="30" as="geometry" />
        </mxCell>
        <mxCell id="WAmQgtdZ2m0MMh2K5OEY-41" value="" style="endArrow=none;html=1;rounded=0;strokeColor=default;align=center;verticalAlign=middle;fontFamily=Helvetica;fontSize=11;fontColor=default;labelBackgroundColor=default;autosize=1;resizable=0;endSize=4;" parent="WAmQgtdZ2m0MMh2K5OEY-39" edge="1">
          <mxGeometry width="50" height="50" relative="1" as="geometry">
            <mxPoint x="12" y="31" as="sourcePoint" />
            <mxPoint x="16" y="21" as="targetPoint" />
          </mxGeometry>
        </mxCell>
        <mxCell id="WAmQgtdZ2m0MMh2K5OEY-42" value="" style="group;fontFamily=Helvetica;fontSize=11;fontColor=default;labelBackgroundColor=default;strokeColor=none;align=center;verticalAlign=middle;fillColor=none;" parent="1" vertex="1" connectable="0">
          <mxGeometry x="1385" y="949" width="30" height="35" as="geometry" />
        </mxCell>
        <mxCell id="WAmQgtdZ2m0MMh2K5OEY-43" value="2" style="text;html=1;align=center;verticalAlign=middle;resizable=0;points=[];autosize=1;strokeColor=none;fillColor=none;fontFamily=Helvetica;fontSize=11;fontColor=default;labelBackgroundColor=none;" parent="WAmQgtdZ2m0MMh2K5OEY-42" vertex="1">
          <mxGeometry x="-4" y="5" width="30" height="30" as="geometry" />
        </mxCell>
        <mxCell id="WAmQgtdZ2m0MMh2K5OEY-44" value="" style="endArrow=none;html=1;rounded=0;strokeColor=default;align=center;verticalAlign=middle;fontFamily=Helvetica;fontSize=11;fontColor=default;labelBackgroundColor=default;autosize=1;resizable=0;endSize=4;" parent="WAmQgtdZ2m0MMh2K5OEY-42" edge="1">
          <mxGeometry width="50" height="50" relative="1" as="geometry">
            <mxPoint x="12" y="31" as="sourcePoint" />
            <mxPoint x="16" y="21" as="targetPoint" />
          </mxGeometry>
        </mxCell>
        <mxCell id="WAmQgtdZ2m0MMh2K5OEY-45" value="" style="group;fontFamily=Helvetica;fontSize=11;fontColor=default;labelBackgroundColor=default;strokeColor=none;align=center;verticalAlign=middle;fillColor=none;" parent="1" vertex="1" connectable="0">
          <mxGeometry x="1385" y="989" width="30" height="35" as="geometry" />
        </mxCell>
        <mxCell id="WAmQgtdZ2m0MMh2K5OEY-46" value="2" style="text;html=1;align=center;verticalAlign=middle;resizable=0;points=[];autosize=1;strokeColor=none;fillColor=none;fontFamily=Helvetica;fontSize=11;fontColor=default;labelBackgroundColor=none;" parent="WAmQgtdZ2m0MMh2K5OEY-45" vertex="1">
          <mxGeometry x="-4" y="5" width="30" height="30" as="geometry" />
        </mxCell>
        <mxCell id="WAmQgtdZ2m0MMh2K5OEY-47" value="" style="endArrow=none;html=1;rounded=0;strokeColor=default;align=center;verticalAlign=middle;fontFamily=Helvetica;fontSize=11;fontColor=default;labelBackgroundColor=default;autosize=1;resizable=0;endSize=4;" parent="WAmQgtdZ2m0MMh2K5OEY-45" edge="1">
          <mxGeometry width="50" height="50" relative="1" as="geometry">
            <mxPoint x="12" y="31" as="sourcePoint" />
            <mxPoint x="16" y="21" as="targetPoint" />
          </mxGeometry>
        </mxCell>
        <mxCell id="WAmQgtdZ2m0MMh2K5OEY-48" value="" style="group;fontFamily=Helvetica;fontSize=11;fontColor=default;labelBackgroundColor=default;strokeColor=none;align=center;verticalAlign=middle;fillColor=none;" parent="1" vertex="1" connectable="0">
          <mxGeometry x="1451" y="969" width="30" height="35" as="geometry" />
        </mxCell>
        <mxCell id="WAmQgtdZ2m0MMh2K5OEY-49" value="2" style="text;html=1;align=center;verticalAlign=middle;resizable=0;points=[];autosize=1;strokeColor=none;fillColor=none;fontFamily=Helvetica;fontSize=11;fontColor=default;labelBackgroundColor=none;" parent="WAmQgtdZ2m0MMh2K5OEY-48" vertex="1">
          <mxGeometry x="-4" y="5" width="30" height="30" as="geometry" />
        </mxCell>
        <mxCell id="WAmQgtdZ2m0MMh2K5OEY-50" value="" style="endArrow=none;html=1;rounded=0;strokeColor=default;align=center;verticalAlign=middle;fontFamily=Helvetica;fontSize=11;fontColor=default;labelBackgroundColor=default;autosize=1;resizable=0;endSize=4;" parent="WAmQgtdZ2m0MMh2K5OEY-48" edge="1">
          <mxGeometry width="50" height="50" relative="1" as="geometry">
            <mxPoint x="12" y="31" as="sourcePoint" />
            <mxPoint x="16" y="21" as="targetPoint" />
          </mxGeometry>
        </mxCell>
        <mxCell id="WAmQgtdZ2m0MMh2K5OEY-51" value="" style="group;fontFamily=Helvetica;fontSize=11;fontColor=default;labelBackgroundColor=default;strokeColor=none;align=center;verticalAlign=middle;fillColor=none;" parent="1" vertex="1" connectable="0">
          <mxGeometry x="1451" y="1069" width="30" height="35" as="geometry" />
        </mxCell>
        <mxCell id="WAmQgtdZ2m0MMh2K5OEY-52" value="2" style="text;html=1;align=center;verticalAlign=middle;resizable=0;points=[];autosize=1;strokeColor=none;fillColor=none;fontFamily=Helvetica;fontSize=11;fontColor=default;labelBackgroundColor=none;" parent="WAmQgtdZ2m0MMh2K5OEY-51" vertex="1">
          <mxGeometry x="-4" y="5" width="30" height="30" as="geometry" />
        </mxCell>
        <mxCell id="WAmQgtdZ2m0MMh2K5OEY-53" value="" style="endArrow=none;html=1;rounded=0;strokeColor=default;align=center;verticalAlign=middle;fontFamily=Helvetica;fontSize=11;fontColor=default;labelBackgroundColor=default;autosize=1;resizable=0;endSize=4;" parent="WAmQgtdZ2m0MMh2K5OEY-51" edge="1">
          <mxGeometry width="50" height="50" relative="1" as="geometry">
            <mxPoint x="12" y="31" as="sourcePoint" />
            <mxPoint x="16" y="21" as="targetPoint" />
          </mxGeometry>
        </mxCell>
        <mxCell id="WAmQgtdZ2m0MMh2K5OEY-54" value="" style="group;fontFamily=Helvetica;fontSize=11;fontColor=default;labelBackgroundColor=default;strokeColor=none;align=center;verticalAlign=middle;fillColor=none;" parent="1" vertex="1" connectable="0">
          <mxGeometry x="1451" y="1169" width="30" height="35" as="geometry" />
        </mxCell>
        <mxCell id="WAmQgtdZ2m0MMh2K5OEY-55" value="2" style="text;html=1;align=center;verticalAlign=middle;resizable=0;points=[];autosize=1;strokeColor=none;fillColor=none;fontFamily=Helvetica;fontSize=11;fontColor=default;labelBackgroundColor=none;" parent="WAmQgtdZ2m0MMh2K5OEY-54" vertex="1">
          <mxGeometry x="-4" y="5" width="30" height="30" as="geometry" />
        </mxCell>
        <mxCell id="WAmQgtdZ2m0MMh2K5OEY-56" value="" style="endArrow=none;html=1;rounded=0;strokeColor=default;align=center;verticalAlign=middle;fontFamily=Helvetica;fontSize=11;fontColor=default;labelBackgroundColor=default;autosize=1;resizable=0;endSize=4;" parent="WAmQgtdZ2m0MMh2K5OEY-54" edge="1">
          <mxGeometry width="50" height="50" relative="1" as="geometry">
            <mxPoint x="12" y="31" as="sourcePoint" />
            <mxPoint x="16" y="21" as="targetPoint" />
          </mxGeometry>
        </mxCell>
        <mxCell id="WAmQgtdZ2m0MMh2K5OEY-57" value="" style="group;fontFamily=Helvetica;fontSize=11;fontColor=default;labelBackgroundColor=default;strokeColor=none;align=center;verticalAlign=middle;fillColor=none;" parent="1" vertex="1" connectable="0">
          <mxGeometry x="1455" y="1229" width="30" height="35" as="geometry" />
        </mxCell>
        <mxCell id="WAmQgtdZ2m0MMh2K5OEY-58" value="2" style="text;html=1;align=center;verticalAlign=middle;resizable=0;points=[];autosize=1;strokeColor=none;fillColor=none;fontFamily=Helvetica;fontSize=11;fontColor=default;labelBackgroundColor=none;" parent="WAmQgtdZ2m0MMh2K5OEY-57" vertex="1">
          <mxGeometry x="-4" y="5" width="30" height="30" as="geometry" />
        </mxCell>
        <mxCell id="WAmQgtdZ2m0MMh2K5OEY-59" value="" style="endArrow=none;html=1;rounded=0;strokeColor=default;align=center;verticalAlign=middle;fontFamily=Helvetica;fontSize=11;fontColor=default;labelBackgroundColor=default;autosize=1;resizable=0;endSize=4;" parent="WAmQgtdZ2m0MMh2K5OEY-57" edge="1">
          <mxGeometry width="50" height="50" relative="1" as="geometry">
            <mxPoint x="12" y="31" as="sourcePoint" />
            <mxPoint x="16" y="21" as="targetPoint" />
          </mxGeometry>
        </mxCell>
        <mxCell id="WAmQgtdZ2m0MMh2K5OEY-68" value="" style="endArrow=classic;html=1;rounded=0;strokeColor=default;align=center;verticalAlign=middle;fontFamily=Helvetica;fontSize=11;fontColor=default;labelBackgroundColor=default;edgeStyle=orthogonalEdgeStyle;endSize=4;entryX=0;entryY=0.333;entryDx=0;entryDy=0;entryPerimeter=0;" parent="1" edge="1">
          <mxGeometry width="50" height="50" relative="1" as="geometry">
            <mxPoint x="1271" y="1065" as="sourcePoint" />
            <mxPoint x="1291" y="1065" as="targetPoint" />
            <Array as="points">
              <mxPoint x="1281" y="1064.9" />
              <mxPoint x="1281" y="1064.9" />
            </Array>
          </mxGeometry>
        </mxCell>
        <mxCell id="WAmQgtdZ2m0MMh2K5OEY-69" value="" style="group;fontFamily=Helvetica;fontSize=11;fontColor=default;labelBackgroundColor=default;strokeColor=none;align=center;verticalAlign=middle;fillColor=none;" parent="1" vertex="1" connectable="0">
          <mxGeometry x="1265" y="1029" width="31" height="35" as="geometry" />
        </mxCell>
        <mxCell id="WAmQgtdZ2m0MMh2K5OEY-70" value="16" style="text;html=1;align=center;verticalAlign=middle;resizable=0;points=[];autosize=1;strokeColor=none;fillColor=none;fontFamily=Helvetica;fontSize=8;fontColor=default;labelBackgroundColor=none;" parent="WAmQgtdZ2m0MMh2K5OEY-69" vertex="1">
          <mxGeometry x="-6" y="11" width="30" height="20" as="geometry" />
        </mxCell>
        <mxCell id="WAmQgtdZ2m0MMh2K5OEY-71" value="" style="endArrow=none;html=1;rounded=0;strokeColor=default;align=center;verticalAlign=middle;fontFamily=Helvetica;fontSize=11;fontColor=default;labelBackgroundColor=default;autosize=1;resizable=0;endSize=4;" parent="WAmQgtdZ2m0MMh2K5OEY-69" edge="1">
          <mxGeometry width="50" height="50" relative="1" as="geometry">
            <mxPoint x="12" y="31" as="sourcePoint" />
            <mxPoint x="16" y="21" as="targetPoint" />
          </mxGeometry>
        </mxCell>
        <mxCell id="WAmQgtdZ2m0MMh2K5OEY-72" value="" style="group" parent="1" vertex="1" connectable="0">
          <mxGeometry x="1265" y="1057" width="30" height="30" as="geometry" />
        </mxCell>
        <mxCell id="WAmQgtdZ2m0MMh2K5OEY-73" value="&lt;font style=&quot;font-size: 8px;&quot;&gt;16&lt;/font&gt;" style="text;html=1;align=center;verticalAlign=middle;resizable=0;points=[];autosize=1;strokeColor=none;fillColor=none;fontFamily=Helvetica;fontSize=11;fontColor=default;labelBackgroundColor=none;" parent="WAmQgtdZ2m0MMh2K5OEY-72" vertex="1">
          <mxGeometry width="30" height="30" as="geometry" />
        </mxCell>
        <mxCell id="WAmQgtdZ2m0MMh2K5OEY-74" value="" style="endArrow=none;html=1;rounded=0;strokeColor=default;align=center;verticalAlign=middle;fontFamily=Helvetica;fontSize=11;fontColor=default;labelBackgroundColor=default;autosize=1;resizable=0;endSize=4;" parent="WAmQgtdZ2m0MMh2K5OEY-72" edge="1">
          <mxGeometry width="50" height="50" relative="1" as="geometry">
            <mxPoint x="12" y="13" as="sourcePoint" />
            <mxPoint x="16" y="3" as="targetPoint" />
          </mxGeometry>
        </mxCell>
        <mxCell id="WAmQgtdZ2m0MMh2K5OEY-75" value="" style="group;fontFamily=Helvetica;fontSize=11;fontColor=default;labelBackgroundColor=default;strokeColor=none;align=center;verticalAlign=middle;fillColor=none;" parent="1" vertex="1" connectable="0">
          <mxGeometry x="1655" y="979" width="31" height="35" as="geometry" />
        </mxCell>
        <mxCell id="WAmQgtdZ2m0MMh2K5OEY-76" value="16" style="text;html=1;align=center;verticalAlign=middle;resizable=0;points=[];autosize=1;strokeColor=none;fillColor=none;fontFamily=Helvetica;fontSize=8;fontColor=default;labelBackgroundColor=none;" parent="WAmQgtdZ2m0MMh2K5OEY-75" vertex="1">
          <mxGeometry x="-6" y="11" width="30" height="20" as="geometry" />
        </mxCell>
        <mxCell id="WAmQgtdZ2m0MMh2K5OEY-77" value="" style="endArrow=none;html=1;rounded=0;strokeColor=default;align=center;verticalAlign=middle;fontFamily=Helvetica;fontSize=11;fontColor=default;labelBackgroundColor=default;autosize=1;resizable=0;endSize=4;" parent="WAmQgtdZ2m0MMh2K5OEY-75" edge="1">
          <mxGeometry width="50" height="50" relative="1" as="geometry">
            <mxPoint x="12" y="31" as="sourcePoint" />
            <mxPoint x="16" y="21" as="targetPoint" />
          </mxGeometry>
        </mxCell>
        <mxCell id="WAmQgtdZ2m0MMh2K5OEY-78" value="" style="group" parent="1" vertex="1" connectable="0">
          <mxGeometry x="1655" y="1007" width="30" height="30" as="geometry" />
        </mxCell>
        <mxCell id="WAmQgtdZ2m0MMh2K5OEY-79" value="&lt;font style=&quot;font-size: 8px;&quot;&gt;16&lt;/font&gt;" style="text;html=1;align=center;verticalAlign=middle;resizable=0;points=[];autosize=1;strokeColor=none;fillColor=none;fontFamily=Helvetica;fontSize=11;fontColor=default;labelBackgroundColor=none;" parent="WAmQgtdZ2m0MMh2K5OEY-78" vertex="1">
          <mxGeometry width="30" height="30" as="geometry" />
        </mxCell>
        <mxCell id="WAmQgtdZ2m0MMh2K5OEY-80" value="" style="endArrow=none;html=1;rounded=0;strokeColor=default;align=center;verticalAlign=middle;fontFamily=Helvetica;fontSize=11;fontColor=default;labelBackgroundColor=default;autosize=1;resizable=0;endSize=4;" parent="WAmQgtdZ2m0MMh2K5OEY-78" edge="1">
          <mxGeometry width="50" height="50" relative="1" as="geometry">
            <mxPoint x="12" y="13" as="sourcePoint" />
            <mxPoint x="16" y="3" as="targetPoint" />
          </mxGeometry>
        </mxCell>
        <mxCell id="WAmQgtdZ2m0MMh2K5OEY-81" value="" style="group;fontFamily=Helvetica;fontSize=11;fontColor=default;labelBackgroundColor=default;strokeColor=none;align=center;verticalAlign=middle;fillColor=none;" parent="1" vertex="1" connectable="0">
          <mxGeometry x="1657" y="1039" width="31" height="35" as="geometry" />
        </mxCell>
        <mxCell id="WAmQgtdZ2m0MMh2K5OEY-82" value="16" style="text;html=1;align=center;verticalAlign=middle;resizable=0;points=[];autosize=1;strokeColor=none;fillColor=none;fontFamily=Helvetica;fontSize=8;fontColor=default;labelBackgroundColor=none;" parent="WAmQgtdZ2m0MMh2K5OEY-81" vertex="1">
          <mxGeometry x="-6" y="11" width="30" height="20" as="geometry" />
        </mxCell>
        <mxCell id="WAmQgtdZ2m0MMh2K5OEY-83" value="" style="endArrow=none;html=1;rounded=0;strokeColor=default;align=center;verticalAlign=middle;fontFamily=Helvetica;fontSize=11;fontColor=default;labelBackgroundColor=default;autosize=1;resizable=0;endSize=4;" parent="WAmQgtdZ2m0MMh2K5OEY-81" edge="1">
          <mxGeometry width="50" height="50" relative="1" as="geometry">
            <mxPoint x="12" y="31" as="sourcePoint" />
            <mxPoint x="16" y="21" as="targetPoint" />
          </mxGeometry>
        </mxCell>
        <mxCell id="WAmQgtdZ2m0MMh2K5OEY-84" value="" style="group;fontFamily=Helvetica;fontSize=11;fontColor=default;labelBackgroundColor=default;strokeColor=none;align=center;verticalAlign=middle;fillColor=none;" parent="1" vertex="1" connectable="0">
          <mxGeometry x="1657" y="1060" width="31" height="35" as="geometry" />
        </mxCell>
        <mxCell id="WAmQgtdZ2m0MMh2K5OEY-85" value="16" style="text;html=1;align=center;verticalAlign=middle;resizable=0;points=[];autosize=1;strokeColor=none;fillColor=none;fontFamily=Helvetica;fontSize=8;fontColor=default;labelBackgroundColor=none;" parent="WAmQgtdZ2m0MMh2K5OEY-84" vertex="1">
          <mxGeometry x="-6" y="11" width="30" height="20" as="geometry" />
        </mxCell>
        <mxCell id="WAmQgtdZ2m0MMh2K5OEY-86" value="" style="endArrow=none;html=1;rounded=0;strokeColor=default;align=center;verticalAlign=middle;fontFamily=Helvetica;fontSize=11;fontColor=default;labelBackgroundColor=default;autosize=1;resizable=0;endSize=4;" parent="WAmQgtdZ2m0MMh2K5OEY-84" edge="1">
          <mxGeometry width="50" height="50" relative="1" as="geometry">
            <mxPoint x="12" y="31" as="sourcePoint" />
            <mxPoint x="16" y="21" as="targetPoint" />
          </mxGeometry>
        </mxCell>
        <mxCell id="WAmQgtdZ2m0MMh2K5OEY-87" value="" style="group;fontFamily=Helvetica;fontSize=11;fontColor=default;labelBackgroundColor=default;strokeColor=none;align=center;verticalAlign=middle;fillColor=none;" parent="1" vertex="1" connectable="0">
          <mxGeometry x="1737" y="1010" width="31" height="35" as="geometry" />
        </mxCell>
        <mxCell id="WAmQgtdZ2m0MMh2K5OEY-88" value="16" style="text;html=1;align=center;verticalAlign=middle;resizable=0;points=[];autosize=1;strokeColor=none;fillColor=none;fontFamily=Helvetica;fontSize=8;fontColor=default;labelBackgroundColor=none;" parent="WAmQgtdZ2m0MMh2K5OEY-87" vertex="1">
          <mxGeometry x="-6" y="11" width="30" height="20" as="geometry" />
        </mxCell>
        <mxCell id="WAmQgtdZ2m0MMh2K5OEY-89" value="" style="endArrow=none;html=1;rounded=0;strokeColor=default;align=center;verticalAlign=middle;fontFamily=Helvetica;fontSize=11;fontColor=default;labelBackgroundColor=default;autosize=1;resizable=0;endSize=4;" parent="WAmQgtdZ2m0MMh2K5OEY-87" edge="1">
          <mxGeometry width="50" height="50" relative="1" as="geometry">
            <mxPoint x="12" y="31" as="sourcePoint" />
            <mxPoint x="16" y="21" as="targetPoint" />
          </mxGeometry>
        </mxCell>
        <mxCell id="WAmQgtdZ2m0MMh2K5OEY-90" value="" style="group;fontFamily=Helvetica;fontSize=11;fontColor=default;labelBackgroundColor=default;strokeColor=none;align=center;verticalAlign=middle;fillColor=none;" parent="1" vertex="1" connectable="0">
          <mxGeometry x="1737" y="1029" width="31" height="35" as="geometry" />
        </mxCell>
        <mxCell id="WAmQgtdZ2m0MMh2K5OEY-91" value="16" style="text;html=1;align=center;verticalAlign=middle;resizable=0;points=[];autosize=1;strokeColor=none;fillColor=none;fontFamily=Helvetica;fontSize=8;fontColor=default;labelBackgroundColor=none;" parent="WAmQgtdZ2m0MMh2K5OEY-90" vertex="1">
          <mxGeometry x="-6" y="11" width="30" height="20" as="geometry" />
        </mxCell>
        <mxCell id="WAmQgtdZ2m0MMh2K5OEY-92" value="" style="endArrow=none;html=1;rounded=0;strokeColor=default;align=center;verticalAlign=middle;fontFamily=Helvetica;fontSize=11;fontColor=default;labelBackgroundColor=default;autosize=1;resizable=0;endSize=4;" parent="WAmQgtdZ2m0MMh2K5OEY-90" edge="1">
          <mxGeometry width="50" height="50" relative="1" as="geometry">
            <mxPoint x="12" y="31" as="sourcePoint" />
            <mxPoint x="16" y="21" as="targetPoint" />
          </mxGeometry>
        </mxCell>
        <mxCell id="WAmQgtdZ2m0MMh2K5OEY-93" value="" style="group;fontFamily=Helvetica;fontSize=11;fontColor=default;labelBackgroundColor=default;strokeColor=none;align=center;verticalAlign=middle;fillColor=none;" parent="1" vertex="1" connectable="0">
          <mxGeometry x="1723" y="1049" width="31" height="35" as="geometry" />
        </mxCell>
        <mxCell id="WAmQgtdZ2m0MMh2K5OEY-94" value="16" style="text;html=1;align=center;verticalAlign=middle;resizable=0;points=[];autosize=1;strokeColor=none;fillColor=none;fontFamily=Helvetica;fontSize=8;fontColor=default;labelBackgroundColor=none;" parent="WAmQgtdZ2m0MMh2K5OEY-93" vertex="1">
          <mxGeometry x="-6" y="11" width="30" height="20" as="geometry" />
        </mxCell>
        <mxCell id="WAmQgtdZ2m0MMh2K5OEY-95" value="" style="endArrow=none;html=1;rounded=0;strokeColor=default;align=center;verticalAlign=middle;fontFamily=Helvetica;fontSize=11;fontColor=default;labelBackgroundColor=default;autosize=1;resizable=0;endSize=4;" parent="WAmQgtdZ2m0MMh2K5OEY-93" edge="1">
          <mxGeometry width="50" height="50" relative="1" as="geometry">
            <mxPoint x="12" y="31" as="sourcePoint" />
            <mxPoint x="16" y="21" as="targetPoint" />
          </mxGeometry>
        </mxCell>
        <mxCell id="WAmQgtdZ2m0MMh2K5OEY-96" value="" style="group;fontFamily=Helvetica;fontSize=11;fontColor=default;labelBackgroundColor=default;strokeColor=none;align=center;verticalAlign=middle;fillColor=none;" parent="1" vertex="1" connectable="0">
          <mxGeometry x="1737" y="1070" width="31" height="35" as="geometry" />
        </mxCell>
        <mxCell id="WAmQgtdZ2m0MMh2K5OEY-97" value="16" style="text;html=1;align=center;verticalAlign=middle;resizable=0;points=[];autosize=1;strokeColor=none;fillColor=none;fontFamily=Helvetica;fontSize=8;fontColor=default;labelBackgroundColor=none;" parent="WAmQgtdZ2m0MMh2K5OEY-96" vertex="1">
          <mxGeometry x="-6" y="11" width="30" height="20" as="geometry" />
        </mxCell>
        <mxCell id="WAmQgtdZ2m0MMh2K5OEY-98" value="" style="endArrow=none;html=1;rounded=0;strokeColor=default;align=center;verticalAlign=middle;fontFamily=Helvetica;fontSize=11;fontColor=default;labelBackgroundColor=default;autosize=1;resizable=0;endSize=4;" parent="WAmQgtdZ2m0MMh2K5OEY-96" edge="1">
          <mxGeometry width="50" height="50" relative="1" as="geometry">
            <mxPoint x="12" y="31" as="sourcePoint" />
            <mxPoint x="16" y="21" as="targetPoint" />
          </mxGeometry>
        </mxCell>
        <mxCell id="WAmQgtdZ2m0MMh2K5OEY-99" value="" style="group;fontFamily=Helvetica;fontSize=11;fontColor=default;labelBackgroundColor=default;strokeColor=none;align=center;verticalAlign=middle;fillColor=none;" parent="1" vertex="1" connectable="0">
          <mxGeometry x="1808" y="1039" width="31" height="35" as="geometry" />
        </mxCell>
        <mxCell id="WAmQgtdZ2m0MMh2K5OEY-100" value="16" style="text;html=1;align=center;verticalAlign=middle;resizable=0;points=[];autosize=1;strokeColor=none;fillColor=none;fontFamily=Helvetica;fontSize=8;fontColor=default;labelBackgroundColor=none;" parent="WAmQgtdZ2m0MMh2K5OEY-99" vertex="1">
          <mxGeometry x="-6" y="11" width="30" height="20" as="geometry" />
        </mxCell>
        <mxCell id="WAmQgtdZ2m0MMh2K5OEY-101" value="" style="endArrow=none;html=1;rounded=0;strokeColor=default;align=center;verticalAlign=middle;fontFamily=Helvetica;fontSize=11;fontColor=default;labelBackgroundColor=default;autosize=1;resizable=0;endSize=4;" parent="WAmQgtdZ2m0MMh2K5OEY-99" edge="1">
          <mxGeometry width="50" height="50" relative="1" as="geometry">
            <mxPoint x="12" y="31" as="sourcePoint" />
            <mxPoint x="16" y="21" as="targetPoint" />
          </mxGeometry>
        </mxCell>
        <mxCell id="WAmQgtdZ2m0MMh2K5OEY-102" value="" style="group;fontFamily=Helvetica;fontSize=11;fontColor=default;labelBackgroundColor=default;strokeColor=none;align=center;verticalAlign=middle;fillColor=none;" parent="1" vertex="1" connectable="0">
          <mxGeometry x="1076" y="1259" width="30" height="35" as="geometry" />
        </mxCell>
        <mxCell id="WAmQgtdZ2m0MMh2K5OEY-103" value="2" style="text;html=1;align=center;verticalAlign=middle;resizable=0;points=[];autosize=1;strokeColor=none;fillColor=none;fontFamily=Helvetica;fontSize=11;fontColor=default;labelBackgroundColor=none;" parent="WAmQgtdZ2m0MMh2K5OEY-102" vertex="1">
          <mxGeometry x="-4" y="5" width="30" height="30" as="geometry" />
        </mxCell>
        <mxCell id="WAmQgtdZ2m0MMh2K5OEY-104" value="" style="endArrow=none;html=1;rounded=0;strokeColor=default;align=center;verticalAlign=middle;fontFamily=Helvetica;fontSize=11;fontColor=default;labelBackgroundColor=default;autosize=1;resizable=0;endSize=4;" parent="WAmQgtdZ2m0MMh2K5OEY-102" edge="1">
          <mxGeometry width="50" height="50" relative="1" as="geometry">
            <mxPoint x="12" y="31" as="sourcePoint" />
            <mxPoint x="16" y="21" as="targetPoint" />
          </mxGeometry>
        </mxCell>
        <mxCell id="WAmQgtdZ2m0MMh2K5OEY-105" value="" style="group;fontFamily=Helvetica;fontSize=11;fontColor=default;labelBackgroundColor=default;strokeColor=none;align=center;verticalAlign=middle;fillColor=none;" parent="1" vertex="1" connectable="0">
          <mxGeometry x="2563" y="1610" width="31" height="35" as="geometry" />
        </mxCell>
        <mxCell id="WAmQgtdZ2m0MMh2K5OEY-106" value="16" style="text;html=1;align=center;verticalAlign=middle;resizable=0;points=[];autosize=1;strokeColor=none;fillColor=none;fontFamily=Helvetica;fontSize=8;fontColor=#4C0099;labelBackgroundColor=none;" parent="WAmQgtdZ2m0MMh2K5OEY-105" vertex="1">
          <mxGeometry x="-3" y="25" width="30" height="20" as="geometry" />
        </mxCell>
        <mxCell id="WAmQgtdZ2m0MMh2K5OEY-107" value="" style="endArrow=none;html=1;rounded=0;strokeColor=#4C0099;align=center;verticalAlign=middle;fontFamily=Helvetica;fontSize=11;fontColor=#4C0099;labelBackgroundColor=default;autosize=1;resizable=0;endSize=4;" parent="WAmQgtdZ2m0MMh2K5OEY-105" edge="1">
          <mxGeometry width="50" height="50" relative="1" as="geometry">
            <mxPoint x="12" y="31" as="sourcePoint" />
            <mxPoint x="16" y="21" as="targetPoint" />
          </mxGeometry>
        </mxCell>
        <mxCell id="WAmQgtdZ2m0MMh2K5OEY-108" value="16" style="text;html=1;align=center;verticalAlign=middle;resizable=0;points=[];autosize=1;strokeColor=none;fillColor=none;fontFamily=Helvetica;fontSize=8;fontColor=#99004D;labelBackgroundColor=none;" parent="1" vertex="1">
          <mxGeometry x="2190" y="1635" width="30" height="20" as="geometry" />
        </mxCell>
        <mxCell id="WAmQgtdZ2m0MMh2K5OEY-109" value="" style="endArrow=none;html=1;rounded=0;strokeColor=#99004D;align=center;verticalAlign=middle;fontFamily=Helvetica;fontSize=11;fontColor=#4C0099;labelBackgroundColor=default;autosize=1;resizable=0;endSize=4;" parent="1" edge="1">
          <mxGeometry width="50" height="50" relative="1" as="geometry">
            <mxPoint x="2204" y="1641" as="sourcePoint" />
            <mxPoint x="2208" y="1631" as="targetPoint" />
          </mxGeometry>
        </mxCell>
        <mxCell id="WAmQgtdZ2m0MMh2K5OEY-110" value="&lt;font color=&quot;#000000&quot;&gt;16-bit&lt;/font&gt;" style="text;html=1;align=center;verticalAlign=middle;resizable=0;points=[];autosize=1;strokeColor=none;fillColor=none;fontFamily=Helvetica;fontSize=7;fontColor=#999999;labelBackgroundColor=none;allowArrows=0;connectable=0;imageAspect=0;pointerEvents=0;deletable=1;" parent="1" vertex="1">
          <mxGeometry x="2276" y="1632" width="40" height="20" as="geometry" />
        </mxCell>
        <mxCell id="WAmQgtdZ2m0MMh2K5OEY-111" value="&lt;font color=&quot;#000000&quot;&gt;16-bit&lt;/font&gt;" style="text;html=1;align=center;verticalAlign=middle;resizable=0;points=[];autosize=1;strokeColor=none;fillColor=none;fontFamily=Helvetica;fontSize=7;fontColor=#999999;labelBackgroundColor=none;allowArrows=0;connectable=0;imageAspect=0;pointerEvents=0;deletable=1;" parent="1" vertex="1">
          <mxGeometry x="1956" y="1703" width="40" height="20" as="geometry" />
        </mxCell>
        <mxCell id="WAmQgtdZ2m0MMh2K5OEY-112" value="&lt;font color=&quot;#000000&quot;&gt;16-bit&lt;/font&gt;" style="text;html=1;align=center;verticalAlign=middle;resizable=0;points=[];autosize=1;strokeColor=none;fillColor=none;fontFamily=Helvetica;fontSize=7;fontColor=#999999;labelBackgroundColor=none;allowArrows=0;connectable=0;imageAspect=0;pointerEvents=0;deletable=1;" parent="1" vertex="1">
          <mxGeometry x="1906" y="1662" width="40" height="20" as="geometry" />
        </mxCell>
        <mxCell id="WAmQgtdZ2m0MMh2K5OEY-113" value="" style="group;fontFamily=Helvetica;fontSize=11;fontColor=default;labelBackgroundColor=default;strokeColor=none;align=center;verticalAlign=middle;fillColor=none;" parent="1" vertex="1" connectable="0">
          <mxGeometry x="1938" y="1640" width="31" height="35" as="geometry" />
        </mxCell>
        <mxCell id="WAmQgtdZ2m0MMh2K5OEY-114" value="16" style="text;html=1;align=center;verticalAlign=middle;resizable=0;points=[];autosize=1;strokeColor=none;fillColor=none;fontFamily=Helvetica;fontSize=8;fontColor=default;labelBackgroundColor=none;" parent="WAmQgtdZ2m0MMh2K5OEY-113" vertex="1">
          <mxGeometry x="-6" y="11" width="30" height="20" as="geometry" />
        </mxCell>
        <mxCell id="WAmQgtdZ2m0MMh2K5OEY-115" value="" style="endArrow=none;html=1;rounded=0;strokeColor=default;align=center;verticalAlign=middle;fontFamily=Helvetica;fontSize=11;fontColor=default;labelBackgroundColor=default;autosize=1;resizable=0;endSize=4;" parent="WAmQgtdZ2m0MMh2K5OEY-113" edge="1">
          <mxGeometry width="50" height="50" relative="1" as="geometry">
            <mxPoint x="12" y="31" as="sourcePoint" />
            <mxPoint x="16" y="21" as="targetPoint" />
          </mxGeometry>
        </mxCell>
        <mxCell id="WAmQgtdZ2m0MMh2K5OEY-116" value="" style="group;fontFamily=Helvetica;fontSize=11;fontColor=default;labelBackgroundColor=default;strokeColor=none;align=center;verticalAlign=middle;fillColor=none;" parent="1" vertex="1" connectable="0">
          <mxGeometry x="1996" y="1619" width="31" height="35" as="geometry" />
        </mxCell>
        <mxCell id="WAmQgtdZ2m0MMh2K5OEY-117" value="16" style="text;html=1;align=center;verticalAlign=middle;resizable=0;points=[];autosize=1;strokeColor=none;fillColor=none;fontFamily=Helvetica;fontSize=8;fontColor=default;labelBackgroundColor=none;" parent="WAmQgtdZ2m0MMh2K5OEY-116" vertex="1">
          <mxGeometry x="-6" y="11" width="30" height="20" as="geometry" />
        </mxCell>
        <mxCell id="WAmQgtdZ2m0MMh2K5OEY-118" value="" style="endArrow=none;html=1;rounded=0;strokeColor=default;align=center;verticalAlign=middle;fontFamily=Helvetica;fontSize=11;fontColor=default;labelBackgroundColor=default;autosize=1;resizable=0;endSize=4;" parent="WAmQgtdZ2m0MMh2K5OEY-116" edge="1">
          <mxGeometry width="50" height="50" relative="1" as="geometry">
            <mxPoint x="12" y="31" as="sourcePoint" />
            <mxPoint x="16" y="21" as="targetPoint" />
          </mxGeometry>
        </mxCell>
        <mxCell id="WAmQgtdZ2m0MMh2K5OEY-119" value="" style="group;fontFamily=Helvetica;fontSize=11;fontColor=default;labelBackgroundColor=default;strokeColor=none;align=center;verticalAlign=middle;fillColor=none;" parent="1" vertex="1" connectable="0">
          <mxGeometry x="2052" y="1609" width="31" height="35" as="geometry" />
        </mxCell>
        <mxCell id="WAmQgtdZ2m0MMh2K5OEY-120" value="16" style="text;html=1;align=center;verticalAlign=middle;resizable=0;points=[];autosize=1;strokeColor=none;fillColor=none;fontFamily=Helvetica;fontSize=8;fontColor=default;labelBackgroundColor=none;" parent="WAmQgtdZ2m0MMh2K5OEY-119" vertex="1">
          <mxGeometry x="-6" y="11" width="30" height="20" as="geometry" />
        </mxCell>
        <mxCell id="WAmQgtdZ2m0MMh2K5OEY-121" value="" style="endArrow=none;html=1;rounded=0;strokeColor=default;align=center;verticalAlign=middle;fontFamily=Helvetica;fontSize=11;fontColor=default;labelBackgroundColor=default;autosize=1;resizable=0;endSize=4;" parent="WAmQgtdZ2m0MMh2K5OEY-119" edge="1">
          <mxGeometry width="50" height="50" relative="1" as="geometry">
            <mxPoint x="12" y="31" as="sourcePoint" />
            <mxPoint x="16" y="21" as="targetPoint" />
          </mxGeometry>
        </mxCell>
        <mxCell id="WAmQgtdZ2m0MMh2K5OEY-122" value="" style="group;fontFamily=Helvetica;fontSize=11;fontColor=default;labelBackgroundColor=default;strokeColor=none;align=center;verticalAlign=middle;fillColor=none;" parent="1" vertex="1" connectable="0">
          <mxGeometry x="2052" y="1530" width="31" height="35" as="geometry" />
        </mxCell>
        <mxCell id="WAmQgtdZ2m0MMh2K5OEY-123" value="16" style="text;html=1;align=center;verticalAlign=middle;resizable=0;points=[];autosize=1;strokeColor=none;fillColor=none;fontFamily=Helvetica;fontSize=8;fontColor=default;labelBackgroundColor=none;" parent="WAmQgtdZ2m0MMh2K5OEY-122" vertex="1">
          <mxGeometry x="-6" y="11" width="30" height="20" as="geometry" />
        </mxCell>
        <mxCell id="WAmQgtdZ2m0MMh2K5OEY-124" value="" style="endArrow=none;html=1;rounded=0;strokeColor=default;align=center;verticalAlign=middle;fontFamily=Helvetica;fontSize=11;fontColor=default;labelBackgroundColor=default;autosize=1;resizable=0;endSize=4;" parent="WAmQgtdZ2m0MMh2K5OEY-122" edge="1">
          <mxGeometry width="50" height="50" relative="1" as="geometry">
            <mxPoint x="12" y="31" as="sourcePoint" />
            <mxPoint x="16" y="21" as="targetPoint" />
          </mxGeometry>
        </mxCell>
        <mxCell id="WAmQgtdZ2m0MMh2K5OEY-125" value="" style="group;fontFamily=Helvetica;fontSize=11;fontColor=default;labelBackgroundColor=default;strokeColor=none;align=center;verticalAlign=middle;fillColor=none;" parent="1" vertex="1" connectable="0">
          <mxGeometry x="1998" y="1539" width="31" height="35" as="geometry" />
        </mxCell>
        <mxCell id="WAmQgtdZ2m0MMh2K5OEY-126" value="16" style="text;html=1;align=center;verticalAlign=middle;resizable=0;points=[];autosize=1;strokeColor=none;fillColor=none;fontFamily=Helvetica;fontSize=8;fontColor=default;labelBackgroundColor=none;" parent="WAmQgtdZ2m0MMh2K5OEY-125" vertex="1">
          <mxGeometry x="-6" y="11" width="30" height="20" as="geometry" />
        </mxCell>
        <mxCell id="WAmQgtdZ2m0MMh2K5OEY-127" value="" style="endArrow=none;html=1;rounded=0;strokeColor=default;align=center;verticalAlign=middle;fontFamily=Helvetica;fontSize=11;fontColor=default;labelBackgroundColor=default;autosize=1;resizable=0;endSize=4;" parent="WAmQgtdZ2m0MMh2K5OEY-125" edge="1">
          <mxGeometry width="50" height="50" relative="1" as="geometry">
            <mxPoint x="12" y="31" as="sourcePoint" />
            <mxPoint x="16" y="21" as="targetPoint" />
          </mxGeometry>
        </mxCell>
        <mxCell id="WAmQgtdZ2m0MMh2K5OEY-128" value="" style="group;fontFamily=Helvetica;fontSize=11;fontColor=default;labelBackgroundColor=default;strokeColor=none;align=center;verticalAlign=middle;fillColor=none;" parent="1" vertex="1" connectable="0">
          <mxGeometry x="1998" y="1519" width="31" height="35" as="geometry" />
        </mxCell>
        <mxCell id="WAmQgtdZ2m0MMh2K5OEY-129" value="16" style="text;html=1;align=center;verticalAlign=middle;resizable=0;points=[];autosize=1;strokeColor=none;fillColor=none;fontFamily=Helvetica;fontSize=8;fontColor=default;labelBackgroundColor=none;" parent="WAmQgtdZ2m0MMh2K5OEY-128" vertex="1">
          <mxGeometry x="-6" y="11" width="30" height="20" as="geometry" />
        </mxCell>
        <mxCell id="WAmQgtdZ2m0MMh2K5OEY-130" value="" style="endArrow=none;html=1;rounded=0;strokeColor=default;align=center;verticalAlign=middle;fontFamily=Helvetica;fontSize=11;fontColor=default;labelBackgroundColor=default;autosize=1;resizable=0;endSize=4;" parent="WAmQgtdZ2m0MMh2K5OEY-128" edge="1">
          <mxGeometry width="50" height="50" relative="1" as="geometry">
            <mxPoint x="12" y="31" as="sourcePoint" />
            <mxPoint x="16" y="21" as="targetPoint" />
          </mxGeometry>
        </mxCell>
        <mxCell id="WAmQgtdZ2m0MMh2K5OEY-131" value="" style="group;fontFamily=Helvetica;fontSize=11;fontColor=default;labelBackgroundColor=default;strokeColor=none;align=center;verticalAlign=middle;fillColor=none;" parent="1" vertex="1" connectable="0">
          <mxGeometry x="1986" y="1469" width="31" height="35" as="geometry" />
        </mxCell>
        <mxCell id="WAmQgtdZ2m0MMh2K5OEY-132" value="2" style="text;html=1;align=center;verticalAlign=middle;resizable=0;points=[];autosize=1;strokeColor=none;fillColor=none;fontFamily=Helvetica;fontSize=8;fontColor=default;labelBackgroundColor=none;" parent="WAmQgtdZ2m0MMh2K5OEY-131" vertex="1">
          <mxGeometry x="-4" y="11" width="30" height="20" as="geometry" />
        </mxCell>
        <mxCell id="WAmQgtdZ2m0MMh2K5OEY-133" value="" style="endArrow=none;html=1;rounded=0;strokeColor=default;align=center;verticalAlign=middle;fontFamily=Helvetica;fontSize=11;fontColor=default;labelBackgroundColor=default;autosize=1;resizable=0;endSize=4;" parent="WAmQgtdZ2m0MMh2K5OEY-131" edge="1">
          <mxGeometry width="50" height="50" relative="1" as="geometry">
            <mxPoint x="12" y="31" as="sourcePoint" />
            <mxPoint x="16" y="21" as="targetPoint" />
          </mxGeometry>
        </mxCell>
        <mxCell id="WAmQgtdZ2m0MMh2K5OEY-134" value="" style="group;fontFamily=Helvetica;fontSize=11;fontColor=default;labelBackgroundColor=default;strokeColor=none;align=center;verticalAlign=middle;fillColor=none;" parent="1" vertex="1" connectable="0">
          <mxGeometry x="1986" y="1479" width="31" height="35" as="geometry" />
        </mxCell>
        <mxCell id="WAmQgtdZ2m0MMh2K5OEY-135" value="2" style="text;html=1;align=center;verticalAlign=middle;resizable=0;points=[];autosize=1;strokeColor=none;fillColor=none;fontFamily=Helvetica;fontSize=8;fontColor=default;labelBackgroundColor=none;" parent="WAmQgtdZ2m0MMh2K5OEY-134" vertex="1">
          <mxGeometry x="-4" y="11" width="30" height="20" as="geometry" />
        </mxCell>
        <mxCell id="WAmQgtdZ2m0MMh2K5OEY-136" value="" style="endArrow=none;html=1;rounded=0;strokeColor=default;align=center;verticalAlign=middle;fontFamily=Helvetica;fontSize=11;fontColor=default;labelBackgroundColor=default;autosize=1;resizable=0;endSize=4;" parent="WAmQgtdZ2m0MMh2K5OEY-134" edge="1">
          <mxGeometry width="50" height="50" relative="1" as="geometry">
            <mxPoint x="12" y="31" as="sourcePoint" />
            <mxPoint x="16" y="21" as="targetPoint" />
          </mxGeometry>
        </mxCell>
        <mxCell id="WAmQgtdZ2m0MMh2K5OEY-137" value="" style="group;fontFamily=Helvetica;fontSize=11;fontColor=default;labelBackgroundColor=default;strokeColor=none;align=center;verticalAlign=middle;fillColor=none;" parent="1" vertex="1" connectable="0">
          <mxGeometry x="2365" y="1479" width="31" height="35" as="geometry" />
        </mxCell>
        <mxCell id="WAmQgtdZ2m0MMh2K5OEY-138" value="2" style="text;html=1;align=center;verticalAlign=middle;resizable=0;points=[];autosize=1;strokeColor=none;fillColor=none;fontFamily=Helvetica;fontSize=8;fontColor=default;labelBackgroundColor=none;" parent="WAmQgtdZ2m0MMh2K5OEY-137" vertex="1">
          <mxGeometry x="-4" y="11" width="30" height="20" as="geometry" />
        </mxCell>
        <mxCell id="WAmQgtdZ2m0MMh2K5OEY-139" value="" style="endArrow=none;html=1;rounded=0;strokeColor=default;align=center;verticalAlign=middle;fontFamily=Helvetica;fontSize=11;fontColor=default;labelBackgroundColor=default;autosize=1;resizable=0;endSize=4;" parent="WAmQgtdZ2m0MMh2K5OEY-137" edge="1">
          <mxGeometry width="50" height="50" relative="1" as="geometry">
            <mxPoint x="12" y="31" as="sourcePoint" />
            <mxPoint x="16" y="21" as="targetPoint" />
          </mxGeometry>
        </mxCell>
        <mxCell id="WAmQgtdZ2m0MMh2K5OEY-140" value="" style="group;fontFamily=Helvetica;fontSize=11;fontColor=default;labelBackgroundColor=default;strokeColor=none;align=center;verticalAlign=middle;fillColor=none;" parent="1" vertex="1" connectable="0">
          <mxGeometry x="2077" y="1439" width="31" height="35" as="geometry" />
        </mxCell>
        <mxCell id="WAmQgtdZ2m0MMh2K5OEY-141" value="2" style="text;html=1;align=center;verticalAlign=middle;resizable=0;points=[];autosize=1;strokeColor=none;fillColor=none;fontFamily=Helvetica;fontSize=8;fontColor=default;labelBackgroundColor=none;" parent="WAmQgtdZ2m0MMh2K5OEY-140" vertex="1">
          <mxGeometry x="-4" y="11" width="30" height="20" as="geometry" />
        </mxCell>
        <mxCell id="WAmQgtdZ2m0MMh2K5OEY-142" value="" style="endArrow=none;html=1;rounded=0;strokeColor=default;align=center;verticalAlign=middle;fontFamily=Helvetica;fontSize=11;fontColor=default;labelBackgroundColor=default;autosize=1;resizable=0;endSize=4;" parent="WAmQgtdZ2m0MMh2K5OEY-140" edge="1">
          <mxGeometry width="50" height="50" relative="1" as="geometry">
            <mxPoint x="12" y="31" as="sourcePoint" />
            <mxPoint x="16" y="21" as="targetPoint" />
          </mxGeometry>
        </mxCell>
        <mxCell id="WAmQgtdZ2m0MMh2K5OEY-143" value="" style="group;fontFamily=Helvetica;fontSize=11;fontColor=default;labelBackgroundColor=default;strokeColor=none;align=center;verticalAlign=middle;fillColor=none;" parent="1" vertex="1" connectable="0">
          <mxGeometry x="2366" y="1519" width="31" height="35" as="geometry" />
        </mxCell>
        <mxCell id="WAmQgtdZ2m0MMh2K5OEY-144" value="16" style="text;html=1;align=center;verticalAlign=middle;resizable=0;points=[];autosize=1;strokeColor=none;fillColor=none;fontFamily=Helvetica;fontSize=8;fontColor=default;labelBackgroundColor=none;" parent="WAmQgtdZ2m0MMh2K5OEY-143" vertex="1">
          <mxGeometry x="-6" y="11" width="30" height="20" as="geometry" />
        </mxCell>
        <mxCell id="WAmQgtdZ2m0MMh2K5OEY-145" value="" style="endArrow=none;html=1;rounded=0;strokeColor=default;align=center;verticalAlign=middle;fontFamily=Helvetica;fontSize=11;fontColor=default;labelBackgroundColor=default;autosize=1;resizable=0;endSize=4;" parent="WAmQgtdZ2m0MMh2K5OEY-143" edge="1">
          <mxGeometry width="50" height="50" relative="1" as="geometry">
            <mxPoint x="12" y="31" as="sourcePoint" />
            <mxPoint x="16" y="21" as="targetPoint" />
          </mxGeometry>
        </mxCell>
        <mxCell id="WAmQgtdZ2m0MMh2K5OEY-146" value="" style="group;fontFamily=Helvetica;fontSize=11;fontColor=default;labelBackgroundColor=default;strokeColor=none;align=center;verticalAlign=middle;fillColor=none;" parent="1" vertex="1" connectable="0">
          <mxGeometry x="2367" y="1540" width="31" height="35" as="geometry" />
        </mxCell>
        <mxCell id="WAmQgtdZ2m0MMh2K5OEY-147" value="16" style="text;html=1;align=center;verticalAlign=middle;resizable=0;points=[];autosize=1;strokeColor=none;fillColor=none;fontFamily=Helvetica;fontSize=8;fontColor=default;labelBackgroundColor=none;" parent="WAmQgtdZ2m0MMh2K5OEY-146" vertex="1">
          <mxGeometry x="-6" y="11" width="30" height="20" as="geometry" />
        </mxCell>
        <mxCell id="WAmQgtdZ2m0MMh2K5OEY-148" value="" style="endArrow=none;html=1;rounded=0;strokeColor=default;align=center;verticalAlign=middle;fontFamily=Helvetica;fontSize=11;fontColor=default;labelBackgroundColor=default;autosize=1;resizable=0;endSize=4;" parent="WAmQgtdZ2m0MMh2K5OEY-146" edge="1">
          <mxGeometry width="50" height="50" relative="1" as="geometry">
            <mxPoint x="12" y="31" as="sourcePoint" />
            <mxPoint x="16" y="21" as="targetPoint" />
          </mxGeometry>
        </mxCell>
        <mxCell id="WAmQgtdZ2m0MMh2K5OEY-149" value="" style="group;fontFamily=Helvetica;fontSize=11;fontColor=default;labelBackgroundColor=default;strokeColor=none;align=center;verticalAlign=middle;fillColor=none;" parent="1" vertex="1" connectable="0">
          <mxGeometry x="2421" y="1530" width="31" height="35" as="geometry" />
        </mxCell>
        <mxCell id="WAmQgtdZ2m0MMh2K5OEY-150" value="16" style="text;html=1;align=center;verticalAlign=middle;resizable=0;points=[];autosize=1;strokeColor=none;fillColor=none;fontFamily=Helvetica;fontSize=8;fontColor=default;labelBackgroundColor=none;" parent="WAmQgtdZ2m0MMh2K5OEY-149" vertex="1">
          <mxGeometry x="-6" y="11" width="30" height="20" as="geometry" />
        </mxCell>
        <mxCell id="WAmQgtdZ2m0MMh2K5OEY-151" value="" style="endArrow=none;html=1;rounded=0;strokeColor=default;align=center;verticalAlign=middle;fontFamily=Helvetica;fontSize=11;fontColor=default;labelBackgroundColor=default;autosize=1;resizable=0;endSize=4;" parent="WAmQgtdZ2m0MMh2K5OEY-149" edge="1">
          <mxGeometry width="50" height="50" relative="1" as="geometry">
            <mxPoint x="12" y="31" as="sourcePoint" />
            <mxPoint x="16" y="21" as="targetPoint" />
          </mxGeometry>
        </mxCell>
        <mxCell id="WAmQgtdZ2m0MMh2K5OEY-152" value="" style="group;fontFamily=Helvetica;fontSize=11;fontColor=default;labelBackgroundColor=default;strokeColor=none;align=center;verticalAlign=middle;fillColor=none;" parent="1" vertex="1" connectable="0">
          <mxGeometry x="2421" y="1610" width="31" height="35" as="geometry" />
        </mxCell>
        <mxCell id="WAmQgtdZ2m0MMh2K5OEY-153" value="16" style="text;html=1;align=center;verticalAlign=middle;resizable=0;points=[];autosize=1;strokeColor=none;fillColor=none;fontFamily=Helvetica;fontSize=8;fontColor=default;labelBackgroundColor=none;" parent="WAmQgtdZ2m0MMh2K5OEY-152" vertex="1">
          <mxGeometry x="-6" y="11" width="30" height="20" as="geometry" />
        </mxCell>
        <mxCell id="WAmQgtdZ2m0MMh2K5OEY-154" value="" style="endArrow=none;html=1;rounded=0;strokeColor=default;align=center;verticalAlign=middle;fontFamily=Helvetica;fontSize=11;fontColor=default;labelBackgroundColor=default;autosize=1;resizable=0;endSize=4;" parent="WAmQgtdZ2m0MMh2K5OEY-152" edge="1">
          <mxGeometry width="50" height="50" relative="1" as="geometry">
            <mxPoint x="12" y="31" as="sourcePoint" />
            <mxPoint x="16" y="21" as="targetPoint" />
          </mxGeometry>
        </mxCell>
        <mxCell id="WAmQgtdZ2m0MMh2K5OEY-155" value="" style="group;fontFamily=Helvetica;fontSize=11;fontColor=default;labelBackgroundColor=default;strokeColor=none;align=center;verticalAlign=middle;fillColor=none;" parent="1" vertex="1" connectable="0">
          <mxGeometry x="2487" y="1610" width="31" height="35" as="geometry" />
        </mxCell>
        <mxCell id="WAmQgtdZ2m0MMh2K5OEY-156" value="16" style="text;html=1;align=center;verticalAlign=middle;resizable=0;points=[];autosize=1;strokeColor=none;fillColor=none;fontFamily=Helvetica;fontSize=8;fontColor=default;labelBackgroundColor=none;" parent="WAmQgtdZ2m0MMh2K5OEY-155" vertex="1">
          <mxGeometry x="-6" y="11" width="30" height="20" as="geometry" />
        </mxCell>
        <mxCell id="WAmQgtdZ2m0MMh2K5OEY-157" value="" style="endArrow=none;html=1;rounded=0;strokeColor=default;align=center;verticalAlign=middle;fontFamily=Helvetica;fontSize=11;fontColor=default;labelBackgroundColor=default;autosize=1;resizable=0;endSize=4;" parent="WAmQgtdZ2m0MMh2K5OEY-155" edge="1">
          <mxGeometry width="50" height="50" relative="1" as="geometry">
            <mxPoint x="12" y="31" as="sourcePoint" />
            <mxPoint x="16" y="21" as="targetPoint" />
          </mxGeometry>
        </mxCell>
        <mxCell id="WAmQgtdZ2m0MMh2K5OEY-158" value="" style="group;fontFamily=Helvetica;fontSize=11;fontColor=default;labelBackgroundColor=default;strokeColor=none;align=center;verticalAlign=middle;fillColor=none;" parent="1" vertex="1" connectable="0">
          <mxGeometry x="2363" y="1630" width="31" height="35" as="geometry" />
        </mxCell>
        <mxCell id="WAmQgtdZ2m0MMh2K5OEY-159" value="16" style="text;html=1;align=center;verticalAlign=middle;resizable=0;points=[];autosize=1;strokeColor=none;fillColor=none;fontFamily=Helvetica;fontSize=8;fontColor=default;labelBackgroundColor=none;" parent="WAmQgtdZ2m0MMh2K5OEY-158" vertex="1">
          <mxGeometry x="-6" y="11" width="30" height="20" as="geometry" />
        </mxCell>
        <mxCell id="WAmQgtdZ2m0MMh2K5OEY-160" value="" style="endArrow=none;html=1;rounded=0;strokeColor=default;align=center;verticalAlign=middle;fontFamily=Helvetica;fontSize=11;fontColor=default;labelBackgroundColor=default;autosize=1;resizable=0;endSize=4;" parent="WAmQgtdZ2m0MMh2K5OEY-158" edge="1">
          <mxGeometry width="50" height="50" relative="1" as="geometry">
            <mxPoint x="12" y="31" as="sourcePoint" />
            <mxPoint x="16" y="21" as="targetPoint" />
          </mxGeometry>
        </mxCell>
        <mxCell id="WAmQgtdZ2m0MMh2K5OEY-161" value="" style="group;fontFamily=Helvetica;fontSize=11;fontColor=default;labelBackgroundColor=default;strokeColor=none;align=center;verticalAlign=middle;fillColor=none;" parent="1" vertex="1" connectable="0">
          <mxGeometry x="2307" y="1620" width="31" height="35" as="geometry" />
        </mxCell>
        <mxCell id="WAmQgtdZ2m0MMh2K5OEY-162" value="16" style="text;html=1;align=center;verticalAlign=middle;resizable=0;points=[];autosize=1;strokeColor=none;fillColor=none;fontFamily=Helvetica;fontSize=8;fontColor=default;labelBackgroundColor=none;" parent="WAmQgtdZ2m0MMh2K5OEY-161" vertex="1">
          <mxGeometry x="-6" y="11" width="30" height="20" as="geometry" />
        </mxCell>
        <mxCell id="WAmQgtdZ2m0MMh2K5OEY-163" value="" style="endArrow=none;html=1;rounded=0;strokeColor=default;align=center;verticalAlign=middle;fontFamily=Helvetica;fontSize=11;fontColor=default;labelBackgroundColor=default;autosize=1;resizable=0;endSize=4;" parent="WAmQgtdZ2m0MMh2K5OEY-161" edge="1">
          <mxGeometry width="50" height="50" relative="1" as="geometry">
            <mxPoint x="12" y="31" as="sourcePoint" />
            <mxPoint x="16" y="21" as="targetPoint" />
          </mxGeometry>
        </mxCell>
        <mxCell id="WAmQgtdZ2m0MMh2K5OEY-164" value="" style="group;fontFamily=Helvetica;fontSize=11;fontColor=default;labelBackgroundColor=default;strokeColor=none;align=center;verticalAlign=middle;fillColor=none;" parent="1" vertex="1" connectable="0">
          <mxGeometry x="2118" y="1609" width="31" height="35" as="geometry" />
        </mxCell>
        <mxCell id="WAmQgtdZ2m0MMh2K5OEY-165" value="16" style="text;html=1;align=center;verticalAlign=middle;resizable=0;points=[];autosize=1;strokeColor=none;fillColor=none;fontFamily=Helvetica;fontSize=8;fontColor=default;labelBackgroundColor=none;" parent="WAmQgtdZ2m0MMh2K5OEY-164" vertex="1">
          <mxGeometry x="-6" y="11" width="30" height="20" as="geometry" />
        </mxCell>
        <mxCell id="WAmQgtdZ2m0MMh2K5OEY-166" value="" style="endArrow=none;html=1;rounded=0;strokeColor=default;align=center;verticalAlign=middle;fontFamily=Helvetica;fontSize=11;fontColor=default;labelBackgroundColor=default;autosize=1;resizable=0;endSize=4;" parent="WAmQgtdZ2m0MMh2K5OEY-164" edge="1">
          <mxGeometry width="50" height="50" relative="1" as="geometry">
            <mxPoint x="12" y="31" as="sourcePoint" />
            <mxPoint x="16" y="21" as="targetPoint" />
          </mxGeometry>
        </mxCell>
        <mxCell id="WAmQgtdZ2m0MMh2K5OEY-167" value="&lt;font color=&quot;#000000&quot;&gt;16-bit&lt;/font&gt;" style="text;html=1;align=center;verticalAlign=middle;resizable=0;points=[];autosize=1;strokeColor=none;fillColor=none;fontFamily=Helvetica;fontSize=7;fontColor=#999999;labelBackgroundColor=none;allowArrows=0;connectable=0;imageAspect=0;pointerEvents=0;deletable=1;" parent="1" vertex="1">
          <mxGeometry x="2326" y="1703" width="40" height="20" as="geometry" />
        </mxCell>
        <mxCell id="WAmQgtdZ2m0MMh2K5OEY-168" value="eitherEq0" style="text;html=1;align=center;verticalAlign=middle;resizable=0;points=[];autosize=1;strokeColor=none;fillColor=none;fontFamily=Helvetica;fontSize=11;fontColor=#009900;labelBackgroundColor=none;" parent="1" vertex="1">
          <mxGeometry x="1353" y="1023" width="70" height="30" as="geometry" />
        </mxCell>
      </root>
    </mxGraphModel>
  </diagram>
</mxfile>
